%TF.GenerationSoftware,KiCad,Pcbnew,7.0.8*%
%TF.CreationDate,2024-08-14T14:07:48-06:00*%
%TF.ProjectId,blackpill_carrier,626c6163-6b70-4696-9c6c-5f6361727269,1.0*%
%TF.SameCoordinates,Original*%
%TF.FileFunction,Copper,L1,Top*%
%TF.FilePolarity,Positive*%
%FSLAX46Y46*%
G04 Gerber Fmt 4.6, Leading zero omitted, Abs format (unit mm)*
G04 Created by KiCad (PCBNEW 7.0.8) date 2024-08-14 14:07:48*
%MOMM*%
%LPD*%
G01*
G04 APERTURE LIST*
G04 Aperture macros list*
%AMRoundRect*
0 Rectangle with rounded corners*
0 $1 Rounding radius*
0 $2 $3 $4 $5 $6 $7 $8 $9 X,Y pos of 4 corners*
0 Add a 4 corners polygon primitive as box body*
4,1,4,$2,$3,$4,$5,$6,$7,$8,$9,$2,$3,0*
0 Add four circle primitives for the rounded corners*
1,1,$1+$1,$2,$3*
1,1,$1+$1,$4,$5*
1,1,$1+$1,$6,$7*
1,1,$1+$1,$8,$9*
0 Add four rect primitives between the rounded corners*
20,1,$1+$1,$2,$3,$4,$5,0*
20,1,$1+$1,$4,$5,$6,$7,0*
20,1,$1+$1,$6,$7,$8,$9,0*
20,1,$1+$1,$8,$9,$2,$3,0*%
G04 Aperture macros list end*
%TA.AperFunction,SMDPad,CuDef*%
%ADD10R,1.750000X0.600000*%
%TD*%
%TA.AperFunction,ComponentPad*%
%ADD11C,2.286000*%
%TD*%
%TA.AperFunction,SMDPad,CuDef*%
%ADD12RoundRect,0.200000X0.200000X0.275000X-0.200000X0.275000X-0.200000X-0.275000X0.200000X-0.275000X0*%
%TD*%
%TA.AperFunction,SMDPad,CuDef*%
%ADD13RoundRect,0.300000X0.300000X-0.300000X0.300000X0.300000X-0.300000X0.300000X-0.300000X-0.300000X0*%
%TD*%
%TA.AperFunction,SMDPad,CuDef*%
%ADD14RoundRect,0.185000X1.215000X-0.185000X1.215000X0.185000X-1.215000X0.185000X-1.215000X-0.185000X0*%
%TD*%
%TA.AperFunction,SMDPad,CuDef*%
%ADD15RoundRect,0.200000X0.600000X-0.200000X0.600000X0.200000X-0.600000X0.200000X-0.600000X-0.200000X0*%
%TD*%
%TA.AperFunction,SMDPad,CuDef*%
%ADD16RoundRect,0.250001X1.249999X-0.799999X1.249999X0.799999X-1.249999X0.799999X-1.249999X-0.799999X0*%
%TD*%
%TA.AperFunction,SMDPad,CuDef*%
%ADD17RoundRect,0.185000X-1.215000X0.185000X-1.215000X-0.185000X1.215000X-0.185000X1.215000X0.185000X0*%
%TD*%
%TA.AperFunction,ComponentPad*%
%ADD18R,1.700000X1.700000*%
%TD*%
%TA.AperFunction,ComponentPad*%
%ADD19C,1.700000*%
%TD*%
%TA.AperFunction,ViaPad*%
%ADD20C,1.016000*%
%TD*%
%TA.AperFunction,ViaPad*%
%ADD21C,0.457200*%
%TD*%
%TA.AperFunction,Conductor*%
%ADD22C,0.635000*%
%TD*%
%TA.AperFunction,Conductor*%
%ADD23C,0.254000*%
%TD*%
%TA.AperFunction,Conductor*%
%ADD24C,1.270000*%
%TD*%
G04 APERTURE END LIST*
D10*
%TO.P,J1,1,Pin_1*%
%TO.N,+3V3*%
X110081000Y-124984000D03*
%TO.P,J1,2,Pin_2*%
%TO.N,/TPWR*%
X108331000Y-125984000D03*
%TO.P,J1,3,Pin_3*%
%TO.N,unconnected-(J1-Pin_3-Pad3)*%
X110081000Y-126984000D03*
%TD*%
D11*
%TO.P,TP12,1,1*%
%TO.N,Net-(U1-PB2)*%
X146431000Y-87884000D03*
%TD*%
%TO.P,TP15,1,1*%
%TO.N,Net-(U1-PB12)*%
X108331000Y-77724000D03*
%TD*%
D12*
%TO.P,R6,1*%
%TO.N,Net-(D4-A)*%
X142176000Y-103124000D03*
%TO.P,R6,2*%
%TO.N,/LED_UART*%
X140526000Y-103124000D03*
%TD*%
D11*
%TO.P,TP2,1,1*%
%TO.N,Net-(U1-PA1)*%
X146431000Y-110744000D03*
%TD*%
%TO.P,TP3,1,1*%
%TO.N,Net-(U1-PA6)*%
X146431000Y-98044000D03*
%TD*%
%TO.P,TP4,1,1*%
%TO.N,Net-(U1-PA7)*%
X152781000Y-95504000D03*
%TD*%
D13*
%TO.P,D1,1,K*%
%TO.N,GND*%
X140716000Y-133511000D03*
%TO.P,D1,2,A*%
%TO.N,Net-(D1-A)*%
X140716000Y-131411000D03*
%TD*%
D12*
%TO.P,R3,1*%
%TO.N,Net-(D1-A)*%
X142176000Y-120904000D03*
%TO.P,R3,2*%
%TO.N,/LED_ERROR*%
X140526000Y-120904000D03*
%TD*%
D11*
%TO.P,TP14,1,1*%
%TO.N,Net-(U1-PB10)*%
X152781000Y-85344000D03*
%TD*%
D14*
%TO.P,J2,1,VTref*%
%TO.N,/TPWR*%
X102711000Y-118364000D03*
%TO.P,J2,2,SWDIO/TMS*%
%TO.N,/t_SWDIO{slash}TMS*%
X98711000Y-118364000D03*
%TO.P,J2,3,GND*%
%TO.N,GND*%
X102711000Y-117094000D03*
%TO.P,J2,4,SWDCLK/TCK*%
%TO.N,/t_SWDCLK{slash}TCK*%
X98711000Y-117094000D03*
%TO.P,J2,5,GND*%
%TO.N,GND*%
X102711000Y-115824000D03*
%TO.P,J2,6,SWO/TDO*%
%TO.N,/t_SWO{slash}TDO*%
X98711000Y-115824000D03*
%TO.P,J2,7,KEY*%
%TO.N,unconnected-(J2-KEY-Pad7)*%
X102711000Y-114554000D03*
%TO.P,J2,8,NC/TDI*%
%TO.N,/t_NC{slash}TDI*%
X98711000Y-114554000D03*
%TO.P,J2,9,GNDDetect*%
%TO.N,GND*%
X102711000Y-113284000D03*
%TO.P,J2,10,~{RESET}*%
%TO.N,/~{nRST}*%
X98711000Y-113284000D03*
%TD*%
D11*
%TO.P,TP17,1,1*%
%TO.N,Net-(U1-PB14)*%
X108331000Y-82804000D03*
%TD*%
D13*
%TO.P,D4,1,K*%
%TO.N,GND*%
X132969000Y-133511000D03*
%TO.P,D4,2,A*%
%TO.N,Net-(D4-A)*%
X132969000Y-131411000D03*
%TD*%
D11*
%TO.P,TP10,1,1*%
%TO.N,Net-(U1-PB0)*%
X146431000Y-92964000D03*
%TD*%
%TO.P,TP9,1,1*%
%TO.N,Net-(U1-PA12)*%
X108331000Y-98044000D03*
%TD*%
D12*
%TO.P,R5,1*%
%TO.N,Net-(D3-K)*%
X142176000Y-123444000D03*
%TO.P,R5,2*%
%TO.N,/LED_IDLE_RUN*%
X140526000Y-123444000D03*
%TD*%
%TO.P,R2,1*%
%TO.N,Net-(J4-Pin_3)*%
X142176000Y-105740200D03*
%TO.P,R2,2*%
%TO.N,/RXD*%
X140526000Y-105740200D03*
%TD*%
D11*
%TO.P,TP16,1,1*%
%TO.N,Net-(U1-PB13)*%
X101981000Y-80264000D03*
%TD*%
D12*
%TO.P,R1,1*%
%TO.N,Net-(J4-Pin_2)*%
X142176000Y-108331000D03*
%TO.P,R1,2*%
%TO.N,/TXD*%
X140526000Y-108331000D03*
%TD*%
D11*
%TO.P,TP11,1,1*%
%TO.N,Net-(U1-PB1)*%
X152781000Y-90424000D03*
%TD*%
%TO.P,TP6,1,1*%
%TO.N,Net-(U1-PA9)*%
X101981000Y-90424000D03*
%TD*%
D15*
%TO.P,J4,1,Pin_1*%
%TO.N,/TPWR*%
X152286000Y-108809000D03*
%TO.P,J4,2,Pin_2*%
%TO.N,Net-(J4-Pin_2)*%
X152286000Y-107559000D03*
%TO.P,J4,3,Pin_3*%
%TO.N,Net-(J4-Pin_3)*%
X152286000Y-106309000D03*
%TO.P,J4,4,Pin_4*%
%TO.N,GND*%
X152286000Y-105059000D03*
D16*
%TO.P,J4,MP*%
%TO.N,N/C*%
X155186000Y-111359000D03*
X155186000Y-102509000D03*
%TD*%
D17*
%TO.P,J3,1,VTref*%
%TO.N,+3V3*%
X98711000Y-101219000D03*
%TO.P,J3,2,SWDIO/TMS*%
%TO.N,/b_SWDIO*%
X102711000Y-101219000D03*
%TO.P,J3,3,GND*%
%TO.N,GND*%
X98711000Y-102489000D03*
%TO.P,J3,4,SWDCLK/TCK*%
%TO.N,/b_SWDCLK*%
X102711000Y-102489000D03*
%TO.P,J3,5,GND*%
%TO.N,GND*%
X98711000Y-103759000D03*
%TO.P,J3,6,SWO/TDO*%
%TO.N,/b_SWO*%
X102711000Y-103759000D03*
%TO.P,J3,7,KEY*%
%TO.N,unconnected-(J3-KEY-Pad7)*%
X98711000Y-105029000D03*
%TO.P,J3,8,NC/TDI*%
%TO.N,/b_TDI*%
X102711000Y-105029000D03*
%TO.P,J3,9,GNDDetect*%
%TO.N,GND*%
X98711000Y-106299000D03*
%TO.P,J3,10,~{RESET}*%
%TO.N,/~{RESET}*%
X102711000Y-106299000D03*
%TD*%
D18*
%TO.P,U1,1,PB12*%
%TO.N,Net-(U1-PB12)*%
X118491000Y-77724000D03*
D19*
%TO.P,U1,2,PB13*%
%TO.N,Net-(U1-PB13)*%
X118491000Y-80264000D03*
%TO.P,U1,3,PB14*%
%TO.N,Net-(U1-PB14)*%
X118491000Y-82804000D03*
%TO.P,U1,4,PB15*%
%TO.N,Net-(U1-PB15)*%
X118491000Y-85344000D03*
%TO.P,U1,5,PA8*%
%TO.N,Net-(U1-PA8)*%
X118491000Y-87884000D03*
%TO.P,U1,6,PA9*%
%TO.N,Net-(U1-PA9)*%
X118491000Y-90424000D03*
%TO.P,U1,7,PA10*%
%TO.N,Net-(U1-PA10)*%
X118491000Y-92964000D03*
%TO.P,U1,8,PA11*%
%TO.N,Net-(U1-PA11)*%
X118491000Y-95504000D03*
%TO.P,U1,9,PA12*%
%TO.N,Net-(U1-PA12)*%
X118491000Y-98044000D03*
%TO.P,U1,10,PA15/JTDI*%
%TO.N,/b_TDI*%
X118491000Y-100584000D03*
%TO.P,U1,11,PB3/JTDO/SWO*%
%TO.N,/b_SWO*%
X118491000Y-103124000D03*
%TO.P,U1,12,PB4/JTRST*%
%TO.N,unconnected-(U1-PB4{slash}JTRST-Pad12)*%
X118491000Y-105664000D03*
%TO.P,U1,13,PB5*%
%TO.N,Net-(U1-PB5)*%
X118491000Y-108204000D03*
%TO.P,U1,14,PB6*%
%TO.N,/t_NC{slash}TDI*%
X118491000Y-110744000D03*
%TO.P,U1,15,PB7*%
%TO.N,/t_SWO{slash}TDO*%
X118491000Y-113284000D03*
%TO.P,U1,16,PB8*%
%TO.N,/t_SWDCLK{slash}TCK*%
X118491000Y-115824000D03*
%TO.P,U1,17,PB9*%
%TO.N,/t_SWDIO{slash}TMS*%
X118491000Y-118364000D03*
%TO.P,U1,18,5V*%
%TO.N,unconnected-(U1-5V-Pad18)*%
X118491000Y-120904000D03*
%TO.P,U1,19,GND*%
%TO.N,GND*%
X118491000Y-123444000D03*
%TO.P,U1,20,3V3*%
%TO.N,+3V3*%
X118491000Y-125984000D03*
%TO.P,U1,21,VBAT*%
%TO.N,unconnected-(U1-VBAT-Pad21)*%
X133731000Y-125984000D03*
%TO.P,U1,22,PC13*%
%TO.N,/LED_IDLE_RUN*%
X133731000Y-123444000D03*
%TO.P,U1,23,PC14*%
%TO.N,/LED_ERROR*%
X133731000Y-120904000D03*
%TO.P,U1,24,PC15*%
%TO.N,/LED_BOOTLOADER*%
X133731000Y-118364000D03*
%TO.P,U1,25,~{RESET}*%
%TO.N,/~{RESET}*%
X133731000Y-115824000D03*
%TO.P,U1,26,PA0*%
%TO.N,Net-(U1-PA0)*%
X133731000Y-113284000D03*
%TO.P,U1,27,PA1*%
%TO.N,Net-(U1-PA1)*%
X133731000Y-110744000D03*
%TO.P,U1,28,PA2*%
%TO.N,/TXD*%
X133731000Y-108204000D03*
%TO.P,U1,29,PA3*%
%TO.N,/RXD*%
X133731000Y-105664000D03*
%TO.P,U1,30,PA4*%
%TO.N,/LED_UART*%
X133731000Y-103124000D03*
%TO.P,U1,31,PA5*%
%TO.N,/~{nRST}*%
X133731000Y-100584000D03*
%TO.P,U1,32,PA6*%
%TO.N,Net-(U1-PA6)*%
X133731000Y-98044000D03*
%TO.P,U1,33,PA7*%
%TO.N,Net-(U1-PA7)*%
X133731000Y-95504000D03*
%TO.P,U1,34,PB0*%
%TO.N,Net-(U1-PB0)*%
X133731000Y-92964000D03*
%TO.P,U1,35,PB1*%
%TO.N,Net-(U1-PB1)*%
X133731000Y-90424000D03*
%TO.P,U1,36,PB2*%
%TO.N,Net-(U1-PB2)*%
X133731000Y-87884000D03*
%TO.P,U1,37,PB10*%
%TO.N,Net-(U1-PB10)*%
X133731000Y-85344000D03*
%TO.P,U1,38,3V3*%
%TO.N,+3V3*%
X133731000Y-82804000D03*
%TO.P,U1,39,GND*%
%TO.N,GND*%
X133731000Y-80264000D03*
%TO.P,U1,40,5V*%
%TO.N,unconnected-(U1-5V-Pad40)*%
X133731000Y-77724000D03*
%TO.P,U1,41,3V3*%
%TO.N,+3V3*%
X122301000Y-122174000D03*
%TO.P,U1,42,PA13/JTMS/SWDIO*%
%TO.N,/b_SWDIO*%
X124841000Y-122174000D03*
%TO.P,U1,43,PA14/JTCL/SWCLK*%
%TO.N,/b_SWDCLK*%
X127381000Y-122174000D03*
%TO.P,U1,44,GND*%
%TO.N,GND*%
X129921000Y-122174000D03*
%TD*%
D11*
%TO.P,TP7,1,1*%
%TO.N,Net-(U1-PA10)*%
X108331000Y-92964000D03*
%TD*%
%TO.P,TP8,1,1*%
%TO.N,Net-(U1-PA11)*%
X101981000Y-95504000D03*
%TD*%
%TO.P,TP1,1,1*%
%TO.N,Net-(U1-PA0)*%
X146431000Y-116459000D03*
%TD*%
D13*
%TO.P,D3,1,K*%
%TO.N,Net-(D3-K)*%
X120396000Y-133604000D03*
%TO.P,D3,2,A*%
%TO.N,+3V3*%
X120396000Y-131504000D03*
%TD*%
D12*
%TO.P,R4,1*%
%TO.N,Net-(D2-A)*%
X142176000Y-118364000D03*
%TO.P,R4,2*%
%TO.N,/LED_BOOTLOADER*%
X140526000Y-118364000D03*
%TD*%
D11*
%TO.P,TP13,1,1*%
%TO.N,Net-(U1-PB5)*%
X108331000Y-108204000D03*
%TD*%
D13*
%TO.P,D2,1,K*%
%TO.N,GND*%
X136906000Y-133511000D03*
%TO.P,D2,2,A*%
%TO.N,Net-(D2-A)*%
X136906000Y-131411000D03*
%TD*%
D11*
%TO.P,TP5,1,1*%
%TO.N,Net-(U1-PA8)*%
X108331000Y-87884000D03*
%TD*%
%TO.P,TP18,1,1*%
%TO.N,Net-(U1-PB15)*%
X101981000Y-85344000D03*
%TD*%
D20*
%TO.N,GND*%
X122301000Y-114554000D03*
X112776000Y-120269000D03*
X131064000Y-88773000D03*
X122555000Y-88011000D03*
X122555000Y-85344000D03*
X128016000Y-125984000D03*
X122301000Y-109474000D03*
X129286000Y-125984000D03*
X126746000Y-125984000D03*
X125476000Y-100584000D03*
X122555000Y-93091000D03*
X131064000Y-93853000D03*
X125476000Y-103124000D03*
X130048000Y-82677000D03*
X106426000Y-120269000D03*
X122555000Y-95631000D03*
X131191000Y-103759000D03*
X122301000Y-117094000D03*
X125476000Y-101854000D03*
X130048000Y-77597000D03*
X122301000Y-112014000D03*
X130048000Y-80137000D03*
X131191000Y-102489000D03*
X131064000Y-96393000D03*
X131064000Y-91313000D03*
X110236000Y-120269000D03*
X122555000Y-77724000D03*
X107696000Y-120269000D03*
X124206000Y-125984000D03*
X108966000Y-120269000D03*
X122555000Y-80264000D03*
X111506000Y-120269000D03*
X125476000Y-125984000D03*
X122555000Y-82804000D03*
X122555000Y-90551000D03*
X131191000Y-101219000D03*
%TO.N,/TPWR*%
X152146000Y-127254000D03*
X113411000Y-127254000D03*
D21*
%TO.N,/t_SWDIO{slash}TMS*%
X96520000Y-118364000D03*
%TO.N,/t_SWDCLK{slash}TCK*%
X96520000Y-117094000D03*
%TO.N,/t_SWO{slash}TDO*%
X96520000Y-115824000D03*
%TO.N,/t_NC{slash}TDI*%
X96520000Y-114554000D03*
%TO.N,/~{nRST}*%
X96647000Y-113284000D03*
%TO.N,/b_SWDIO*%
X107188000Y-102790600D03*
%TO.N,/b_SWDCLK*%
X104902000Y-102489000D03*
%TO.N,/~{RESET}*%
X127555600Y-106933998D03*
%TD*%
D22*
%TO.N,GND*%
X106680000Y-115824000D02*
X106807000Y-115951000D01*
X102711000Y-111792000D02*
X102743000Y-111760000D01*
X96774000Y-103759000D02*
X96393000Y-104140000D01*
X102711000Y-117094000D02*
X102711000Y-115824000D01*
X102711000Y-113284000D02*
X105791000Y-113284000D01*
X102711000Y-117094000D02*
X106045000Y-117094000D01*
X96393000Y-107569000D02*
X97536000Y-108712000D01*
X96393000Y-104140000D02*
X96393000Y-107569000D01*
X98711000Y-102489000D02*
X98711000Y-103759000D01*
X98711000Y-103759000D02*
X96774000Y-103759000D01*
X97536000Y-108712000D02*
X97663000Y-108712000D01*
X102711000Y-113284000D02*
X102711000Y-111792000D01*
X102711000Y-115824000D02*
X106680000Y-115824000D01*
D23*
%TO.N,Net-(D1-A)*%
X140843000Y-131538000D02*
X141004000Y-131538000D01*
X143891000Y-128651000D02*
X143891000Y-122619000D01*
X141004000Y-131538000D02*
X143891000Y-128651000D01*
X140716000Y-131411000D02*
X140843000Y-131538000D01*
X143891000Y-122619000D02*
X142176000Y-120904000D01*
%TO.N,Net-(D2-A)*%
X136906000Y-131411000D02*
X137833000Y-132338000D01*
X143383000Y-118364000D02*
X142176000Y-118364000D01*
X137833000Y-132338000D02*
X142363000Y-132338000D01*
X145161000Y-129540000D02*
X145161000Y-120142000D01*
X145161000Y-120142000D02*
X143383000Y-118364000D01*
X142363000Y-132338000D02*
X145161000Y-129540000D01*
%TO.N,Net-(D3-K)*%
X142176000Y-127318000D02*
X142176000Y-123444000D01*
X133604000Y-135128000D02*
X135128000Y-133604000D01*
X136398000Y-129413000D02*
X140081000Y-129413000D01*
X121920000Y-135128000D02*
X133604000Y-135128000D01*
X120396000Y-133604000D02*
X121920000Y-135128000D01*
X140081000Y-129413000D02*
X142176000Y-127318000D01*
X135128000Y-133604000D02*
X135128000Y-130683000D01*
X135128000Y-130683000D02*
X136398000Y-129413000D01*
%TO.N,Net-(D4-A)*%
X131826000Y-105410000D02*
X131826000Y-130268000D01*
X142176000Y-103124000D02*
X140906000Y-104394000D01*
X131826000Y-130268000D02*
X132969000Y-131411000D01*
X132842000Y-104394000D02*
X131826000Y-105410000D01*
X140906000Y-104394000D02*
X132842000Y-104394000D01*
D24*
%TO.N,+3V3*%
X122301000Y-122174000D02*
X122301000Y-124841000D01*
D22*
X118491000Y-129413000D02*
X118491000Y-129159000D01*
X102743000Y-129413000D02*
X118491000Y-129413000D01*
D24*
X121158000Y-125984000D02*
X118491000Y-125984000D01*
D22*
X118491000Y-129159000D02*
X118491000Y-125984000D01*
X118491000Y-129599000D02*
X120396000Y-131504000D01*
X95402400Y-102209600D02*
X95402400Y-122072400D01*
D24*
X122301000Y-124841000D02*
X121158000Y-125984000D01*
D22*
X114554000Y-125984000D02*
X118491000Y-125984000D01*
X96393000Y-101219000D02*
X95402400Y-102209600D01*
D24*
X128952600Y-87582400D02*
X128952600Y-115522400D01*
X133731000Y-82804000D02*
X128952600Y-87582400D01*
D22*
X95402400Y-122072400D02*
X102743000Y-129413000D01*
X98711000Y-101219000D02*
X96393000Y-101219000D01*
D24*
X128952600Y-115522400D02*
X122301000Y-122174000D01*
D22*
X110081000Y-124984000D02*
X113554000Y-124984000D01*
X118491000Y-129159000D02*
X118491000Y-129599000D01*
X113554000Y-124984000D02*
X114554000Y-125984000D01*
D23*
%TO.N,/TPWR*%
X102711000Y-118364000D02*
X102711000Y-124301000D01*
X152286000Y-127114000D02*
X152286000Y-108809000D01*
X102711000Y-124301000D02*
X104394000Y-125984000D01*
X104394000Y-125984000D02*
X108331000Y-125984000D01*
X112141000Y-125984000D02*
X113411000Y-127254000D01*
X152146000Y-127254000D02*
X152286000Y-127114000D01*
X108331000Y-125984000D02*
X112141000Y-125984000D01*
%TO.N,/t_SWDIO{slash}TMS*%
X98711000Y-118364000D02*
X96520000Y-118364000D01*
%TO.N,/t_SWDCLK{slash}TCK*%
X98711000Y-117094000D02*
X96520000Y-117094000D01*
X96520000Y-117094000D02*
X96647000Y-117094000D01*
%TO.N,/t_SWO{slash}TDO*%
X96520000Y-115824000D02*
X96647000Y-115824000D01*
X98711000Y-115824000D02*
X96520000Y-115824000D01*
%TO.N,/t_NC{slash}TDI*%
X96520000Y-114554000D02*
X96647000Y-114554000D01*
X98711000Y-114554000D02*
X96520000Y-114554000D01*
%TO.N,/~{nRST}*%
X98711000Y-113284000D02*
X96647000Y-113284000D01*
%TO.N,/b_SWDIO*%
X102711000Y-101219000D02*
X105616400Y-101219000D01*
X105616400Y-101219000D02*
X107188000Y-102790600D01*
%TO.N,/b_SWDCLK*%
X102711000Y-102489000D02*
X104902000Y-102489000D01*
%TO.N,/b_SWO*%
X107823000Y-103759000D02*
X112293400Y-99288600D01*
X120777000Y-102235000D02*
X119888000Y-103124000D01*
X102711000Y-103759000D02*
X107823000Y-103759000D01*
X119888000Y-103124000D02*
X118491000Y-103124000D01*
X119608600Y-99288600D02*
X120777000Y-100457000D01*
X120777000Y-100457000D02*
X120777000Y-102235000D01*
X112293400Y-99288600D02*
X119608600Y-99288600D01*
%TO.N,/b_TDI*%
X114046000Y-100584000D02*
X118491000Y-100584000D01*
X109601000Y-105029000D02*
X114046000Y-100584000D01*
X102711000Y-105029000D02*
X109601000Y-105029000D01*
%TO.N,/~{RESET}*%
X117119400Y-106299000D02*
X117754398Y-106933998D01*
X117754398Y-106933998D02*
X127555600Y-106933998D01*
X102711000Y-106299000D02*
X117119400Y-106299000D01*
%TO.N,Net-(J4-Pin_2)*%
X148971000Y-108331000D02*
X149743000Y-107559000D01*
X142176000Y-108331000D02*
X148971000Y-108331000D01*
X149743000Y-107559000D02*
X152286000Y-107559000D01*
%TO.N,Net-(J4-Pin_3)*%
X149616000Y-106309000D02*
X152286000Y-106309000D01*
X142176000Y-105740200D02*
X149047200Y-105740200D01*
X149047200Y-105740200D02*
X149616000Y-106309000D01*
%TO.N,/TXD*%
X140399000Y-108204000D02*
X140526000Y-108331000D01*
X133731000Y-108204000D02*
X140399000Y-108204000D01*
%TO.N,/RXD*%
X140449800Y-105664000D02*
X140526000Y-105740200D01*
X133731000Y-105664000D02*
X140449800Y-105664000D01*
%TO.N,/LED_ERROR*%
X133731000Y-120904000D02*
X140526000Y-120904000D01*
%TO.N,/LED_BOOTLOADER*%
X133731000Y-118364000D02*
X140526000Y-118364000D01*
%TO.N,/LED_IDLE_RUN*%
X133731000Y-123444000D02*
X140526000Y-123444000D01*
%TO.N,/LED_UART*%
X140526000Y-103124000D02*
X133731000Y-103124000D01*
%TO.N,Net-(U1-PA0)*%
X133731000Y-113284000D02*
X144018000Y-113284000D01*
X144018000Y-113284000D02*
X146431000Y-115697000D01*
X146431000Y-115697000D02*
X146431000Y-116459000D01*
%TO.N,Net-(U1-PA1)*%
X133731000Y-110744000D02*
X146431000Y-110744000D01*
D22*
%TO.N,Net-(U1-PA6)*%
X146431000Y-98044000D02*
X133731000Y-98044000D01*
%TO.N,Net-(U1-PA7)*%
X133731000Y-95504000D02*
X152781000Y-95504000D01*
%TO.N,Net-(U1-PA8)*%
X108331000Y-87884000D02*
X118491000Y-87884000D01*
%TO.N,Net-(U1-PA9)*%
X118491000Y-90424000D02*
X101981000Y-90424000D01*
%TO.N,Net-(U1-PA10)*%
X108331000Y-92964000D02*
X118491000Y-92964000D01*
%TO.N,Net-(U1-PA11)*%
X118491000Y-95504000D02*
X101981000Y-95504000D01*
%TO.N,Net-(U1-PA12)*%
X108331000Y-98044000D02*
X118491000Y-98044000D01*
%TO.N,Net-(U1-PB0)*%
X133731000Y-92964000D02*
X146431000Y-92964000D01*
%TO.N,Net-(U1-PB1)*%
X133731000Y-90424000D02*
X152781000Y-90424000D01*
%TO.N,Net-(U1-PB2)*%
X133731000Y-87884000D02*
X146431000Y-87884000D01*
%TO.N,Net-(U1-PB5)*%
X118491000Y-108204000D02*
X108331000Y-108204000D01*
%TO.N,Net-(U1-PB10)*%
X133731000Y-85344000D02*
X152781000Y-85344000D01*
%TO.N,Net-(U1-PB12)*%
X118491000Y-77724000D02*
X108331000Y-77724000D01*
%TO.N,Net-(U1-PB13)*%
X118491000Y-80264000D02*
X101981000Y-80264000D01*
%TO.N,Net-(U1-PB14)*%
X108331000Y-82804000D02*
X118491000Y-82804000D01*
%TO.N,Net-(U1-PB15)*%
X118491000Y-85344000D02*
X101981000Y-85344000D01*
%TD*%
%TA.AperFunction,Conductor*%
%TO.N,GND*%
G36*
X151977515Y-68293155D02*
G01*
X151982090Y-68293498D01*
X152443707Y-68345511D01*
X152448260Y-68346198D01*
X152904678Y-68432556D01*
X152909167Y-68433581D01*
X153357873Y-68553811D01*
X153362273Y-68555169D01*
X153800721Y-68708589D01*
X153805011Y-68710274D01*
X154230765Y-68896029D01*
X154234938Y-68898038D01*
X154645607Y-69115083D01*
X154649607Y-69117393D01*
X155042911Y-69364522D01*
X155046744Y-69367135D01*
X155420477Y-69642962D01*
X155424092Y-69645846D01*
X155776177Y-69948840D01*
X155779577Y-69951995D01*
X156108004Y-70280422D01*
X156111159Y-70283822D01*
X156414153Y-70635907D01*
X156417045Y-70639533D01*
X156692864Y-71013255D01*
X156695477Y-71017088D01*
X156942606Y-71410392D01*
X156944925Y-71414408D01*
X157161958Y-71825055D01*
X157163970Y-71829234D01*
X157349725Y-72254988D01*
X157351415Y-72259292D01*
X157458089Y-72564149D01*
X157504826Y-72697715D01*
X157506194Y-72702147D01*
X157626415Y-73150821D01*
X157627447Y-73155342D01*
X157713800Y-73611733D01*
X157714492Y-73616319D01*
X157766499Y-74077890D01*
X157766845Y-74082508D01*
X157784300Y-74549000D01*
X157784300Y-138024079D01*
X157784300Y-138049000D01*
X157775303Y-138289470D01*
X157766846Y-138515484D01*
X157766499Y-138520109D01*
X157714492Y-138981680D01*
X157713800Y-138986266D01*
X157627447Y-139442657D01*
X157626415Y-139447178D01*
X157506194Y-139895852D01*
X157504826Y-139900284D01*
X157351420Y-140338694D01*
X157349725Y-140343011D01*
X157163970Y-140768765D01*
X157161958Y-140772944D01*
X156944925Y-141183591D01*
X156942606Y-141187607D01*
X156695477Y-141580911D01*
X156692864Y-141584744D01*
X156417045Y-141958466D01*
X156414153Y-141962092D01*
X156111159Y-142314177D01*
X156108004Y-142317577D01*
X155779577Y-142646004D01*
X155776177Y-142649159D01*
X155424092Y-142952153D01*
X155420466Y-142955045D01*
X155046744Y-143230864D01*
X155042911Y-143233477D01*
X154649607Y-143480606D01*
X154645591Y-143482925D01*
X154234944Y-143699958D01*
X154230765Y-143701970D01*
X153805011Y-143887725D01*
X153800698Y-143889418D01*
X153695516Y-143926223D01*
X153362284Y-144042826D01*
X153357852Y-144044194D01*
X152909178Y-144164415D01*
X152904657Y-144165447D01*
X152448266Y-144251800D01*
X152443681Y-144252491D01*
X152367646Y-144261059D01*
X151982109Y-144304499D01*
X151977489Y-144304845D01*
X151511000Y-144322300D01*
X100711000Y-144322300D01*
X100244508Y-144304845D01*
X100239890Y-144304499D01*
X100009104Y-144278495D01*
X99778314Y-144252491D01*
X99773733Y-144251800D01*
X99317342Y-144165447D01*
X99312821Y-144164415D01*
X98994243Y-144079052D01*
X98864143Y-144044192D01*
X98859715Y-144042826D01*
X98726149Y-143996089D01*
X98421292Y-143889415D01*
X98416988Y-143887725D01*
X97991234Y-143701970D01*
X97987055Y-143699958D01*
X97827292Y-143615521D01*
X97576401Y-143482921D01*
X97572392Y-143480606D01*
X97179088Y-143233477D01*
X97175255Y-143230864D01*
X96948787Y-143063723D01*
X96801526Y-142955039D01*
X96797907Y-142952153D01*
X96445822Y-142649159D01*
X96442422Y-142646004D01*
X96113995Y-142317577D01*
X96110840Y-142314177D01*
X95807846Y-141962092D01*
X95804962Y-141958477D01*
X95529135Y-141584744D01*
X95526522Y-141580911D01*
X95279393Y-141187607D01*
X95277083Y-141183607D01*
X95060038Y-140772938D01*
X95058029Y-140768765D01*
X94872274Y-140343011D01*
X94870589Y-140338721D01*
X94717169Y-139900273D01*
X94715811Y-139895873D01*
X94595581Y-139447167D01*
X94594556Y-139442678D01*
X94508198Y-138986260D01*
X94507511Y-138981707D01*
X94455498Y-138520090D01*
X94455155Y-138515515D01*
X94437700Y-138049000D01*
X94437700Y-138024079D01*
X94437700Y-122521074D01*
X94457385Y-122454035D01*
X94510189Y-122408280D01*
X94579347Y-122398336D01*
X94642903Y-122427361D01*
X94666180Y-122454292D01*
X94674294Y-122466986D01*
X94700396Y-122507822D01*
X94740949Y-122575222D01*
X94743002Y-122577922D01*
X94752687Y-122590311D01*
X94754805Y-122592946D01*
X94754807Y-122592948D01*
X94754808Y-122592949D01*
X94810423Y-122648564D01*
X94864506Y-122705658D01*
X94864510Y-122705661D01*
X94867152Y-122707906D01*
X94882194Y-122720335D01*
X102133410Y-129971551D01*
X102136805Y-129975233D01*
X102140653Y-129979763D01*
X102171606Y-130016206D01*
X102171611Y-130016211D01*
X102201561Y-130038977D01*
X102234222Y-130063805D01*
X102260365Y-130084819D01*
X102295519Y-130113077D01*
X102298440Y-130114944D01*
X102311674Y-130123153D01*
X102314637Y-130124935D01*
X102314641Y-130124938D01*
X102386018Y-130157960D01*
X102456477Y-130192905D01*
X102459740Y-130194104D01*
X102474401Y-130199266D01*
X102477702Y-130200378D01*
X102554501Y-130217282D01*
X102630832Y-130236265D01*
X102630838Y-130236265D01*
X102634234Y-130236728D01*
X102649698Y-130238622D01*
X102653163Y-130238999D01*
X102653167Y-130239000D01*
X102653171Y-130239000D01*
X102731820Y-130239000D01*
X102810432Y-130241129D01*
X102810432Y-130241128D01*
X102810435Y-130241129D01*
X102813775Y-130240856D01*
X102833316Y-130239000D01*
X117911497Y-130239000D01*
X117978536Y-130258685D01*
X117999178Y-130275319D01*
X119251181Y-131527321D01*
X119284666Y-131588644D01*
X119287500Y-131615002D01*
X119287500Y-131849412D01*
X119302781Y-131985041D01*
X119302782Y-131985046D01*
X119362958Y-132157017D01*
X119459872Y-132311254D01*
X119459889Y-132311281D01*
X119588719Y-132440111D01*
X119594977Y-132444043D01*
X119602877Y-132449007D01*
X119649167Y-132501343D01*
X119659814Y-132570396D01*
X119631438Y-132634244D01*
X119602877Y-132658993D01*
X119588717Y-132667890D01*
X119459889Y-132796718D01*
X119362958Y-132950982D01*
X119302782Y-133122953D01*
X119302781Y-133122958D01*
X119287500Y-133258587D01*
X119287500Y-133949412D01*
X119302781Y-134085041D01*
X119302782Y-134085046D01*
X119329118Y-134160308D01*
X119362957Y-134257015D01*
X119459889Y-134411281D01*
X119588719Y-134540111D01*
X119742985Y-134637043D01*
X119914953Y-134697217D01*
X119914958Y-134697218D01*
X120006357Y-134707515D01*
X120050588Y-134712499D01*
X120050591Y-134712500D01*
X120050594Y-134712500D01*
X120554406Y-134712500D01*
X120621445Y-134732185D01*
X120642087Y-134748819D01*
X121411339Y-135518071D01*
X121421269Y-135530465D01*
X121421476Y-135530295D01*
X121426444Y-135536300D01*
X121477709Y-135584441D01*
X121498903Y-135605636D01*
X121498906Y-135605638D01*
X121504504Y-135609981D01*
X121508936Y-135613766D01*
X121543494Y-135646217D01*
X121561470Y-135656099D01*
X121577716Y-135666770D01*
X121593933Y-135679349D01*
X121637431Y-135698172D01*
X121642660Y-135700734D01*
X121651206Y-135705432D01*
X121684192Y-135723567D01*
X121684194Y-135723567D01*
X121684197Y-135723569D01*
X121704066Y-135728670D01*
X121722462Y-135734968D01*
X121741292Y-135743117D01*
X121773796Y-135748264D01*
X121788098Y-135750530D01*
X121793817Y-135751714D01*
X121839718Y-135763500D01*
X121860226Y-135763500D01*
X121879623Y-135765026D01*
X121899877Y-135768234D01*
X121899878Y-135768235D01*
X121899878Y-135768234D01*
X121899879Y-135768235D01*
X121921987Y-135766145D01*
X121947061Y-135763775D01*
X121952899Y-135763500D01*
X133520153Y-135763500D01*
X133535932Y-135765241D01*
X133535958Y-135764974D01*
X133543711Y-135765706D01*
X133543719Y-135765708D01*
X133613985Y-135763500D01*
X133643983Y-135763500D01*
X133651013Y-135762611D01*
X133656836Y-135762153D01*
X133704205Y-135760665D01*
X133723906Y-135754940D01*
X133742951Y-135750997D01*
X133763299Y-135748427D01*
X133807393Y-135730968D01*
X133812856Y-135729098D01*
X133858393Y-135715869D01*
X133876054Y-135705423D01*
X133893512Y-135696871D01*
X133912588Y-135689319D01*
X133950928Y-135661462D01*
X133955800Y-135658261D01*
X133996598Y-135634134D01*
X134011094Y-135619637D01*
X134025892Y-135606998D01*
X134027767Y-135605636D01*
X134042487Y-135594942D01*
X134072707Y-135558410D01*
X134076621Y-135554109D01*
X135103070Y-134527660D01*
X136242891Y-134527660D01*
X136256697Y-134536335D01*
X136256701Y-134536337D01*
X136426858Y-134595877D01*
X136561069Y-134610999D01*
X136561070Y-134611000D01*
X137250930Y-134611000D01*
X137250930Y-134610999D01*
X137385143Y-134595877D01*
X137385145Y-134595877D01*
X137555300Y-134536336D01*
X137555307Y-134536333D01*
X137569107Y-134527661D01*
X137569107Y-134527660D01*
X140052891Y-134527660D01*
X140066697Y-134536335D01*
X140066701Y-134536337D01*
X140236858Y-134595877D01*
X140371069Y-134610999D01*
X140371070Y-134611000D01*
X141060930Y-134611000D01*
X141060930Y-134610999D01*
X141195143Y-134595877D01*
X141195145Y-134595877D01*
X141365300Y-134536336D01*
X141365307Y-134536333D01*
X141379107Y-134527661D01*
X141379107Y-134527660D01*
X140716001Y-133864553D01*
X140716000Y-133864553D01*
X140052891Y-134527660D01*
X137569107Y-134527660D01*
X136906001Y-133864553D01*
X136906000Y-133864553D01*
X136242891Y-134527660D01*
X135103070Y-134527660D01*
X135518072Y-134112658D01*
X135530461Y-134102735D01*
X135530289Y-134102528D01*
X135536298Y-134097555D01*
X135536303Y-134097553D01*
X135584441Y-134046290D01*
X135605638Y-134025094D01*
X135609979Y-134019497D01*
X135613774Y-134015054D01*
X135631261Y-133996433D01*
X135691501Y-133961038D01*
X135761315Y-133963830D01*
X135818537Y-134003924D01*
X135838695Y-134040362D01*
X135880662Y-134160298D01*
X135880667Y-134160308D01*
X135889338Y-134174108D01*
X136552447Y-133511000D01*
X136552447Y-133510999D01*
X135885134Y-132843686D01*
X135832565Y-132834480D01*
X135781184Y-132787133D01*
X135763500Y-132723313D01*
X135763500Y-132311254D01*
X135783185Y-132244215D01*
X135835989Y-132198460D01*
X135905147Y-132188516D01*
X135968703Y-132217541D01*
X135975181Y-132223573D01*
X136098719Y-132347111D01*
X136182877Y-132399991D01*
X136229168Y-132452326D01*
X136234744Y-132486192D01*
X136906000Y-133157447D01*
X137922660Y-134174107D01*
X137922661Y-134174107D01*
X137931333Y-134160307D01*
X137931336Y-134160300D01*
X137990877Y-133990145D01*
X137990877Y-133990143D01*
X138005999Y-133855930D01*
X138006000Y-133855930D01*
X138006000Y-133166070D01*
X138005999Y-133166069D01*
X137999838Y-133111384D01*
X138011892Y-133042562D01*
X138059241Y-132991183D01*
X138123058Y-132973500D01*
X139498942Y-132973500D01*
X139565981Y-132993185D01*
X139611736Y-133045989D01*
X139622162Y-133111384D01*
X139616000Y-133166069D01*
X139616000Y-133855930D01*
X139631122Y-133990141D01*
X139690662Y-134160298D01*
X139690667Y-134160308D01*
X139699338Y-134174108D01*
X140628319Y-133245128D01*
X140689642Y-133211643D01*
X140759334Y-133216627D01*
X140803681Y-133245128D01*
X141732660Y-134174107D01*
X141732661Y-134174107D01*
X141741333Y-134160307D01*
X141741336Y-134160300D01*
X141800877Y-133990145D01*
X141800877Y-133990143D01*
X141815999Y-133855930D01*
X141816000Y-133855930D01*
X141816000Y-133166070D01*
X141815999Y-133166069D01*
X141809838Y-133111384D01*
X141821892Y-133042562D01*
X141869241Y-132991183D01*
X141933058Y-132973500D01*
X142279153Y-132973500D01*
X142294932Y-132975241D01*
X142294958Y-132974974D01*
X142302711Y-132975706D01*
X142302719Y-132975708D01*
X142372985Y-132973500D01*
X142402983Y-132973500D01*
X142410013Y-132972611D01*
X142415836Y-132972153D01*
X142463205Y-132970665D01*
X142482906Y-132964940D01*
X142501951Y-132960997D01*
X142522299Y-132958427D01*
X142566393Y-132940968D01*
X142571856Y-132939098D01*
X142617393Y-132925869D01*
X142635054Y-132915423D01*
X142652512Y-132906871D01*
X142671588Y-132899319D01*
X142709928Y-132871462D01*
X142714800Y-132868261D01*
X142755598Y-132844134D01*
X142770094Y-132829637D01*
X142784892Y-132816998D01*
X142786763Y-132815639D01*
X142801487Y-132804942D01*
X142831708Y-132768409D01*
X142835609Y-132764122D01*
X145551075Y-130048656D01*
X145563458Y-130038738D01*
X145563286Y-130038530D01*
X145569292Y-130033559D01*
X145569303Y-130033553D01*
X145617426Y-129982306D01*
X145638639Y-129961094D01*
X145642983Y-129955492D01*
X145646770Y-129951057D01*
X145679217Y-129916506D01*
X145689099Y-129898529D01*
X145699771Y-129882282D01*
X145712350Y-129866066D01*
X145731174Y-129822563D01*
X145733739Y-129817329D01*
X145756566Y-129775809D01*
X145756566Y-129775807D01*
X145756569Y-129775803D01*
X145761669Y-129755935D01*
X145767967Y-129737538D01*
X145776117Y-129718707D01*
X145783530Y-129671901D01*
X145784715Y-129666177D01*
X145796500Y-129620282D01*
X145796500Y-129599773D01*
X145798027Y-129580373D01*
X145801235Y-129560120D01*
X145796775Y-129512938D01*
X145796500Y-129507100D01*
X145796500Y-120225851D01*
X145798242Y-120210069D01*
X145797975Y-120210044D01*
X145798707Y-120202288D01*
X145798709Y-120202281D01*
X145796500Y-120131996D01*
X145796500Y-120102017D01*
X145795610Y-120094982D01*
X145795153Y-120089164D01*
X145793665Y-120041795D01*
X145787941Y-120022093D01*
X145783997Y-120003049D01*
X145781427Y-119982701D01*
X145763973Y-119938618D01*
X145762098Y-119933142D01*
X145748869Y-119887607D01*
X145748868Y-119887606D01*
X145748868Y-119887604D01*
X145738428Y-119869952D01*
X145729869Y-119852482D01*
X145722319Y-119833412D01*
X145694468Y-119795080D01*
X145691261Y-119790197D01*
X145675065Y-119762812D01*
X145667135Y-119749402D01*
X145667133Y-119749400D01*
X145667128Y-119749394D01*
X145652633Y-119734899D01*
X145639995Y-119720103D01*
X145631156Y-119707937D01*
X145627942Y-119703513D01*
X145591422Y-119673301D01*
X145587100Y-119669367D01*
X143891658Y-117973925D01*
X143881732Y-117961535D01*
X143881525Y-117961707D01*
X143876552Y-117955696D01*
X143825306Y-117907573D01*
X143804097Y-117886363D01*
X143798492Y-117882015D01*
X143794046Y-117878218D01*
X143759509Y-117845785D01*
X143759501Y-117845780D01*
X143741540Y-117835906D01*
X143725274Y-117825222D01*
X143709064Y-117812648D01*
X143665571Y-117793827D01*
X143660323Y-117791256D01*
X143618805Y-117768432D01*
X143618804Y-117768431D01*
X143618803Y-117768431D01*
X143598937Y-117763330D01*
X143580538Y-117757030D01*
X143561709Y-117748883D01*
X143561708Y-117748882D01*
X143514902Y-117741469D01*
X143509181Y-117740284D01*
X143463283Y-117728500D01*
X143463282Y-117728500D01*
X143442774Y-117728500D01*
X143423376Y-117726973D01*
X143405792Y-117724188D01*
X143403122Y-117723765D01*
X143403121Y-117723764D01*
X143355939Y-117728225D01*
X143350101Y-117728500D01*
X143055906Y-117728500D01*
X142988867Y-117708815D01*
X142949789Y-117668650D01*
X142937818Y-117648848D01*
X142937817Y-117648847D01*
X142937816Y-117648845D01*
X142816155Y-117527184D01*
X142668913Y-117438173D01*
X142504649Y-117386987D01*
X142504647Y-117386986D01*
X142504645Y-117386986D01*
X142454667Y-117382444D01*
X142433265Y-117380500D01*
X142433262Y-117380500D01*
X141918727Y-117380500D01*
X141847354Y-117386985D01*
X141847344Y-117386988D01*
X141683090Y-117438171D01*
X141535841Y-117527186D01*
X141535840Y-117527187D01*
X141438681Y-117624347D01*
X141377358Y-117657832D01*
X141307666Y-117652848D01*
X141263319Y-117624347D01*
X141166158Y-117527186D01*
X141165410Y-117526734D01*
X141018913Y-117438173D01*
X140854649Y-117386987D01*
X140854647Y-117386986D01*
X140854645Y-117386986D01*
X140804667Y-117382444D01*
X140783265Y-117380500D01*
X140783262Y-117380500D01*
X140268727Y-117380500D01*
X140197354Y-117386985D01*
X140197344Y-117386988D01*
X140033090Y-117438171D01*
X139885843Y-117527185D01*
X139764181Y-117648848D01*
X139752211Y-117668650D01*
X139700683Y-117715837D01*
X139646094Y-117728500D01*
X135005649Y-117728500D01*
X134938610Y-117708815D01*
X134901841Y-117672322D01*
X134829890Y-117562194D01*
X134806722Y-117526732D01*
X134806719Y-117526729D01*
X134806715Y-117526723D01*
X134654243Y-117361097D01*
X134654238Y-117361092D01*
X134476577Y-117222812D01*
X134476578Y-117222812D01*
X134476576Y-117222811D01*
X134440070Y-117203055D01*
X134390479Y-117153836D01*
X134375371Y-117085619D01*
X134399541Y-117020064D01*
X134440070Y-116984945D01*
X134440084Y-116984936D01*
X134476576Y-116965189D01*
X134654240Y-116826906D01*
X134806722Y-116661268D01*
X134929860Y-116472791D01*
X135020296Y-116266616D01*
X135075564Y-116048368D01*
X135075565Y-116048359D01*
X135094156Y-115824005D01*
X135094156Y-115823994D01*
X135075565Y-115599640D01*
X135075563Y-115599628D01*
X135046604Y-115485271D01*
X135020296Y-115381384D01*
X134929860Y-115175209D01*
X134806722Y-114986732D01*
X134806719Y-114986729D01*
X134806715Y-114986723D01*
X134654243Y-114821097D01*
X134654238Y-114821092D01*
X134476577Y-114682812D01*
X134476578Y-114682812D01*
X134476576Y-114682811D01*
X134440070Y-114663055D01*
X134390479Y-114613836D01*
X134375371Y-114545619D01*
X134399541Y-114480064D01*
X134440070Y-114444945D01*
X134440084Y-114444936D01*
X134476576Y-114425189D01*
X134654240Y-114286906D01*
X134806722Y-114121268D01*
X134901841Y-113975678D01*
X134954987Y-113930322D01*
X135005649Y-113919500D01*
X143703406Y-113919500D01*
X143770445Y-113939185D01*
X143791087Y-113955819D01*
X145115564Y-115280296D01*
X145149049Y-115341619D01*
X145144065Y-115411311D01*
X145122175Y-115448507D01*
X145090777Y-115485270D01*
X145090774Y-115485273D01*
X144954951Y-115706915D01*
X144855472Y-115947080D01*
X144794789Y-116199846D01*
X144774393Y-116459000D01*
X144794789Y-116718153D01*
X144855472Y-116970919D01*
X144954951Y-117211084D01*
X145090773Y-117432723D01*
X145090774Y-117432726D01*
X145111113Y-117456540D01*
X145259602Y-117630398D01*
X145398329Y-117748882D01*
X145457273Y-117799225D01*
X145457276Y-117799226D01*
X145678915Y-117935048D01*
X145804752Y-117987171D01*
X145919080Y-118034527D01*
X146171850Y-118095211D01*
X146431000Y-118115607D01*
X146690150Y-118095211D01*
X146942920Y-118034527D01*
X147183084Y-117935048D01*
X147404729Y-117799223D01*
X147602398Y-117630398D01*
X147771223Y-117432729D01*
X147907048Y-117211084D01*
X148006527Y-116970920D01*
X148067211Y-116718150D01*
X148087607Y-116459000D01*
X148067211Y-116199850D01*
X148006527Y-115947080D01*
X147939528Y-115785330D01*
X147907048Y-115706915D01*
X147771226Y-115485276D01*
X147771225Y-115485273D01*
X147726152Y-115432500D01*
X147602398Y-115287602D01*
X147464512Y-115169836D01*
X147404726Y-115118774D01*
X147404723Y-115118773D01*
X147183084Y-114982951D01*
X146942919Y-114883472D01*
X146758169Y-114839118D01*
X146690150Y-114822789D01*
X146522956Y-114809630D01*
X146481081Y-114806334D01*
X146415793Y-114781449D01*
X146403130Y-114770397D01*
X144526658Y-112893925D01*
X144516732Y-112881535D01*
X144516525Y-112881707D01*
X144511552Y-112875696D01*
X144460306Y-112827573D01*
X144439097Y-112806363D01*
X144433492Y-112802015D01*
X144429046Y-112798218D01*
X144394509Y-112765785D01*
X144394501Y-112765780D01*
X144376540Y-112755906D01*
X144360274Y-112745222D01*
X144344064Y-112732648D01*
X144300571Y-112713827D01*
X144295323Y-112711256D01*
X144253805Y-112688432D01*
X144253804Y-112688431D01*
X144253803Y-112688431D01*
X144233937Y-112683330D01*
X144215538Y-112677030D01*
X144196709Y-112668883D01*
X144196708Y-112668882D01*
X144149902Y-112661469D01*
X144144181Y-112660284D01*
X144098283Y-112648500D01*
X144098282Y-112648500D01*
X144077774Y-112648500D01*
X144058376Y-112646973D01*
X144047769Y-112645293D01*
X144038122Y-112643765D01*
X144038121Y-112643764D01*
X143990939Y-112648225D01*
X143985101Y-112648500D01*
X135005649Y-112648500D01*
X134938610Y-112628815D01*
X134901841Y-112592322D01*
X134840655Y-112498670D01*
X134806722Y-112446732D01*
X134806719Y-112446729D01*
X134806715Y-112446723D01*
X134654243Y-112281097D01*
X134654238Y-112281092D01*
X134476577Y-112142812D01*
X134476578Y-112142812D01*
X134476576Y-112142811D01*
X134440070Y-112123055D01*
X134390479Y-112073836D01*
X134375371Y-112005619D01*
X134399541Y-111940064D01*
X134440070Y-111904945D01*
X134440084Y-111904936D01*
X134476576Y-111885189D01*
X134654240Y-111746906D01*
X134806722Y-111581268D01*
X134901841Y-111435678D01*
X134954987Y-111390322D01*
X135005649Y-111379500D01*
X144823807Y-111379500D01*
X144890846Y-111399185D01*
X144936601Y-111451989D01*
X144938368Y-111456048D01*
X144954949Y-111496080D01*
X144954951Y-111496083D01*
X145090773Y-111717723D01*
X145090774Y-111717726D01*
X145090777Y-111717729D01*
X145259602Y-111915398D01*
X145400409Y-112035658D01*
X145457273Y-112084225D01*
X145457276Y-112084226D01*
X145678915Y-112220048D01*
X145904348Y-112313425D01*
X145919080Y-112319527D01*
X146171850Y-112380211D01*
X146431000Y-112400607D01*
X146690150Y-112380211D01*
X146942920Y-112319527D01*
X147183084Y-112220048D01*
X147404729Y-112084223D01*
X147602398Y-111915398D01*
X147771223Y-111717729D01*
X147907048Y-111496084D01*
X148006527Y-111255920D01*
X148067211Y-111003150D01*
X148087607Y-110744000D01*
X148067211Y-110484850D01*
X148006527Y-110232080D01*
X147955306Y-110108421D01*
X147907048Y-109991915D01*
X147771226Y-109770276D01*
X147771225Y-109770273D01*
X147733084Y-109725616D01*
X147602398Y-109572602D01*
X147461591Y-109452342D01*
X147404726Y-109403774D01*
X147404723Y-109403773D01*
X147183084Y-109267951D01*
X147031252Y-109205061D01*
X146976849Y-109161220D01*
X146954784Y-109094926D01*
X146972063Y-109027227D01*
X147023200Y-108979616D01*
X147078705Y-108966500D01*
X148887153Y-108966500D01*
X148902932Y-108968241D01*
X148902958Y-108967974D01*
X148910711Y-108968706D01*
X148910719Y-108968708D01*
X148980985Y-108966500D01*
X149010983Y-108966500D01*
X149018013Y-108965611D01*
X149023836Y-108965153D01*
X149071205Y-108963665D01*
X149090906Y-108957940D01*
X149109951Y-108953997D01*
X149130299Y-108951427D01*
X149174393Y-108933968D01*
X149179856Y-108932098D01*
X149225393Y-108918869D01*
X149243054Y-108908423D01*
X149260512Y-108899871D01*
X149279588Y-108892319D01*
X149317928Y-108864462D01*
X149322800Y-108861261D01*
X149363598Y-108837134D01*
X149378094Y-108822637D01*
X149392892Y-108809998D01*
X149409487Y-108797942D01*
X149439706Y-108761411D01*
X149443610Y-108757120D01*
X149969914Y-108230819D01*
X150031237Y-108197334D01*
X150057595Y-108194500D01*
X150904541Y-108194500D01*
X150971580Y-108214185D01*
X151017335Y-108266989D01*
X151027279Y-108336147D01*
X151022926Y-108355390D01*
X150983987Y-108480349D01*
X150977500Y-108551737D01*
X150977500Y-109066272D01*
X150983985Y-109137645D01*
X150983988Y-109137655D01*
X151035171Y-109301909D01*
X151035172Y-109301911D01*
X151035173Y-109301913D01*
X151096750Y-109403773D01*
X151124186Y-109449158D01*
X151245841Y-109570813D01*
X151245843Y-109570814D01*
X151245845Y-109570816D01*
X151393087Y-109659827D01*
X151557351Y-109711013D01*
X151557357Y-109711013D01*
X151563389Y-109712893D01*
X151621537Y-109751630D01*
X151649512Y-109815655D01*
X151650500Y-109831279D01*
X151650500Y-126291931D01*
X151630815Y-126358970D01*
X151584956Y-126401287D01*
X151582809Y-126402435D01*
X151578528Y-126404723D01*
X151423747Y-126531747D01*
X151296718Y-126686536D01*
X151202333Y-126863118D01*
X151144208Y-127054728D01*
X151124582Y-127254000D01*
X151144208Y-127453271D01*
X151202333Y-127644881D01*
X151296718Y-127821463D01*
X151296720Y-127821465D01*
X151296722Y-127821469D01*
X151300985Y-127826663D01*
X151423747Y-127976252D01*
X151489770Y-128030434D01*
X151578531Y-128103278D01*
X151578534Y-128103280D01*
X151578536Y-128103281D01*
X151755118Y-128197666D01*
X151755120Y-128197667D01*
X151946731Y-128255792D01*
X152146000Y-128275418D01*
X152345269Y-128255792D01*
X152536880Y-128197667D01*
X152713469Y-128103278D01*
X152868252Y-127976252D01*
X152995278Y-127821469D01*
X153089667Y-127644880D01*
X153147792Y-127453269D01*
X153167418Y-127254000D01*
X153147792Y-127054731D01*
X153089667Y-126863120D01*
X153062266Y-126811856D01*
X152995281Y-126686536D01*
X152995280Y-126686534D01*
X152995278Y-126686531D01*
X152951176Y-126632792D01*
X152949645Y-126630926D01*
X152922333Y-126566616D01*
X152921500Y-126552263D01*
X152921500Y-112209551D01*
X153177500Y-112209551D01*
X153188113Y-112313428D01*
X153243883Y-112481735D01*
X153243884Y-112481738D01*
X153336967Y-112632647D01*
X153336970Y-112632651D01*
X153462348Y-112758029D01*
X153462352Y-112758032D01*
X153613261Y-112851115D01*
X153613264Y-112851116D01*
X153781571Y-112906886D01*
X153781572Y-112906886D01*
X153781575Y-112906887D01*
X153885456Y-112917500D01*
X153885461Y-112917500D01*
X156486539Y-112917500D01*
X156486544Y-112917500D01*
X156590425Y-112906887D01*
X156758738Y-112851115D01*
X156909651Y-112758030D01*
X157035030Y-112632651D01*
X157128115Y-112481738D01*
X157183887Y-112313425D01*
X157194500Y-112209544D01*
X157194500Y-110508456D01*
X157183887Y-110404575D01*
X157149694Y-110301384D01*
X157128116Y-110236264D01*
X157128115Y-110236261D01*
X157035032Y-110085352D01*
X157035029Y-110085348D01*
X156909651Y-109959970D01*
X156909647Y-109959967D01*
X156758738Y-109866884D01*
X156758735Y-109866883D01*
X156590428Y-109811113D01*
X156486551Y-109800500D01*
X156486544Y-109800500D01*
X153885456Y-109800500D01*
X153885448Y-109800500D01*
X153781571Y-109811113D01*
X153613264Y-109866883D01*
X153613261Y-109866884D01*
X153462352Y-109959967D01*
X153462348Y-109959970D01*
X153336970Y-110085348D01*
X153336967Y-110085352D01*
X153243884Y-110236261D01*
X153243883Y-110236264D01*
X153188113Y-110404571D01*
X153177500Y-110508448D01*
X153177500Y-112209551D01*
X152921500Y-112209551D01*
X152921500Y-109831280D01*
X152941185Y-109764241D01*
X152993989Y-109718486D01*
X153008610Y-109712894D01*
X153014645Y-109711013D01*
X153014649Y-109711013D01*
X153178913Y-109659827D01*
X153326155Y-109570816D01*
X153447816Y-109449155D01*
X153536827Y-109301913D01*
X153588013Y-109137649D01*
X153594500Y-109066265D01*
X153594499Y-108551736D01*
X153594499Y-108551735D01*
X153594499Y-108551727D01*
X153588014Y-108480354D01*
X153588011Y-108480344D01*
X153536828Y-108316090D01*
X153536827Y-108316089D01*
X153536827Y-108316087D01*
X153495756Y-108248149D01*
X153477921Y-108180595D01*
X153495757Y-108119850D01*
X153536827Y-108051913D01*
X153588013Y-107887649D01*
X153594500Y-107816265D01*
X153594499Y-107301736D01*
X153594499Y-107301727D01*
X153588014Y-107230354D01*
X153588011Y-107230344D01*
X153536828Y-107066090D01*
X153536827Y-107066089D01*
X153536827Y-107066087D01*
X153495756Y-106998149D01*
X153477921Y-106930595D01*
X153495757Y-106869850D01*
X153536827Y-106801913D01*
X153588013Y-106637649D01*
X153594500Y-106566265D01*
X153594499Y-106051736D01*
X153594499Y-106051727D01*
X153588014Y-105980354D01*
X153588011Y-105980344D01*
X153536828Y-105816090D01*
X153536827Y-105816089D01*
X153536827Y-105816087D01*
X153490789Y-105739931D01*
X153472954Y-105672380D01*
X153490791Y-105611633D01*
X153529018Y-105548398D01*
X153529019Y-105548397D01*
X153579590Y-105386106D01*
X153586000Y-105315572D01*
X153586000Y-105309000D01*
X150986001Y-105309000D01*
X150986001Y-105315582D01*
X150992408Y-105386102D01*
X150992409Y-105386107D01*
X151031829Y-105512609D01*
X151032981Y-105582469D01*
X150996180Y-105641862D01*
X150933111Y-105671930D01*
X150913444Y-105673500D01*
X149930595Y-105673500D01*
X149863556Y-105653815D01*
X149842914Y-105637181D01*
X149555858Y-105350125D01*
X149545932Y-105337735D01*
X149545725Y-105337907D01*
X149540752Y-105331896D01*
X149489506Y-105283773D01*
X149468297Y-105262563D01*
X149462692Y-105258215D01*
X149458246Y-105254418D01*
X149423709Y-105221985D01*
X149423701Y-105221980D01*
X149405740Y-105212106D01*
X149389474Y-105201422D01*
X149379988Y-105194064D01*
X149373267Y-105188850D01*
X149373266Y-105188849D01*
X149373264Y-105188848D01*
X149329771Y-105170027D01*
X149324523Y-105167456D01*
X149283005Y-105144632D01*
X149283004Y-105144631D01*
X149283003Y-105144631D01*
X149263137Y-105139530D01*
X149244738Y-105133230D01*
X149225909Y-105125083D01*
X149225908Y-105125082D01*
X149179102Y-105117669D01*
X149173381Y-105116484D01*
X149127483Y-105104700D01*
X149127482Y-105104700D01*
X149106974Y-105104700D01*
X149087576Y-105103173D01*
X149076969Y-105101493D01*
X149067322Y-105099965D01*
X149067321Y-105099964D01*
X149020139Y-105104425D01*
X149014301Y-105104700D01*
X143055906Y-105104700D01*
X142988867Y-105085015D01*
X142949789Y-105044850D01*
X142937818Y-105025048D01*
X142937817Y-105025047D01*
X142937816Y-105025045D01*
X142816155Y-104903384D01*
X142668913Y-104814373D01*
X142651670Y-104809000D01*
X150986000Y-104809000D01*
X152036000Y-104809000D01*
X152036000Y-104159000D01*
X152536000Y-104159000D01*
X152536000Y-104809000D01*
X153585999Y-104809000D01*
X153585999Y-104802417D01*
X153579591Y-104731897D01*
X153579590Y-104731892D01*
X153529018Y-104569603D01*
X153441072Y-104424122D01*
X153320877Y-104303927D01*
X153175395Y-104215980D01*
X153175396Y-104215980D01*
X153013105Y-104165409D01*
X153013106Y-104165409D01*
X152942572Y-104159000D01*
X152536000Y-104159000D01*
X152036000Y-104159000D01*
X151629417Y-104159000D01*
X151558897Y-104165408D01*
X151558892Y-104165409D01*
X151396603Y-104215981D01*
X151251122Y-104303927D01*
X151130927Y-104424122D01*
X151042980Y-104569604D01*
X150992409Y-104731893D01*
X150986000Y-104802427D01*
X150986000Y-104809000D01*
X142651670Y-104809000D01*
X142504649Y-104763187D01*
X142504647Y-104763186D01*
X142504645Y-104763186D01*
X142454667Y-104758644D01*
X142433265Y-104756700D01*
X142433262Y-104756700D01*
X141918727Y-104756700D01*
X141847354Y-104763185D01*
X141847352Y-104763186D01*
X141729439Y-104799929D01*
X141659578Y-104801079D01*
X141600186Y-104764278D01*
X141570118Y-104701209D01*
X141578922Y-104631896D01*
X141604865Y-104593865D01*
X142054913Y-104143818D01*
X142116236Y-104110333D01*
X142142594Y-104107499D01*
X142433271Y-104107499D01*
X142504644Y-104101014D01*
X142504647Y-104101013D01*
X142504649Y-104101013D01*
X142668913Y-104049827D01*
X142816155Y-103960816D01*
X142937816Y-103839155D01*
X143026827Y-103691913D01*
X143078013Y-103527649D01*
X143084500Y-103456265D01*
X143084500Y-103359551D01*
X153177500Y-103359551D01*
X153188113Y-103463428D01*
X153243883Y-103631735D01*
X153243884Y-103631738D01*
X153336967Y-103782647D01*
X153336970Y-103782651D01*
X153462348Y-103908029D01*
X153462352Y-103908032D01*
X153613261Y-104001115D01*
X153613264Y-104001116D01*
X153781571Y-104056886D01*
X153781572Y-104056886D01*
X153781575Y-104056887D01*
X153885456Y-104067500D01*
X153885461Y-104067500D01*
X156486539Y-104067500D01*
X156486544Y-104067500D01*
X156590425Y-104056887D01*
X156758738Y-104001115D01*
X156909651Y-103908030D01*
X157035030Y-103782651D01*
X157128115Y-103631738D01*
X157128647Y-103630134D01*
X157183886Y-103463428D01*
X157183885Y-103463428D01*
X157183887Y-103463425D01*
X157194500Y-103359544D01*
X157194500Y-101658456D01*
X157183887Y-101554575D01*
X157183886Y-101554571D01*
X157128116Y-101386264D01*
X157128115Y-101386261D01*
X157035032Y-101235352D01*
X157035029Y-101235348D01*
X156909651Y-101109970D01*
X156909647Y-101109967D01*
X156758738Y-101016884D01*
X156758735Y-101016883D01*
X156590428Y-100961113D01*
X156486551Y-100950500D01*
X156486544Y-100950500D01*
X153885456Y-100950500D01*
X153885448Y-100950500D01*
X153781571Y-100961113D01*
X153613264Y-101016883D01*
X153613261Y-101016884D01*
X153462352Y-101109967D01*
X153462348Y-101109970D01*
X153336970Y-101235348D01*
X153336967Y-101235352D01*
X153243884Y-101386261D01*
X153243883Y-101386264D01*
X153188113Y-101554571D01*
X153177500Y-101658448D01*
X153177500Y-103359551D01*
X143084500Y-103359551D01*
X143084499Y-102791736D01*
X143084499Y-102791727D01*
X143078014Y-102720354D01*
X143078011Y-102720344D01*
X143026828Y-102556090D01*
X143026827Y-102556089D01*
X143026827Y-102556087D01*
X142937816Y-102408845D01*
X142937814Y-102408843D01*
X142937813Y-102408841D01*
X142816158Y-102287186D01*
X142815410Y-102286734D01*
X142668913Y-102198173D01*
X142504649Y-102146987D01*
X142504647Y-102146986D01*
X142504645Y-102146986D01*
X142454667Y-102142444D01*
X142433265Y-102140500D01*
X142433262Y-102140500D01*
X141918727Y-102140500D01*
X141847354Y-102146985D01*
X141847344Y-102146988D01*
X141683090Y-102198171D01*
X141535841Y-102287186D01*
X141535840Y-102287187D01*
X141438681Y-102384347D01*
X141377358Y-102417832D01*
X141307666Y-102412848D01*
X141263319Y-102384347D01*
X141166158Y-102287186D01*
X141165410Y-102286734D01*
X141018913Y-102198173D01*
X140854649Y-102146987D01*
X140854647Y-102146986D01*
X140854645Y-102146986D01*
X140804667Y-102142444D01*
X140783265Y-102140500D01*
X140783262Y-102140500D01*
X140268727Y-102140500D01*
X140197354Y-102146985D01*
X140197344Y-102146988D01*
X140033090Y-102198171D01*
X139885843Y-102287185D01*
X139764181Y-102408848D01*
X139752211Y-102428650D01*
X139700683Y-102475837D01*
X139646094Y-102488500D01*
X135005649Y-102488500D01*
X134938610Y-102468815D01*
X134901841Y-102432322D01*
X134825676Y-102315744D01*
X134806722Y-102286732D01*
X134806719Y-102286729D01*
X134806715Y-102286723D01*
X134654243Y-102121097D01*
X134654238Y-102121092D01*
X134520877Y-102017292D01*
X134476576Y-101982811D01*
X134440070Y-101963055D01*
X134390479Y-101913836D01*
X134375371Y-101845619D01*
X134399541Y-101780064D01*
X134440070Y-101744945D01*
X134440084Y-101744936D01*
X134476576Y-101725189D01*
X134654240Y-101586906D01*
X134806722Y-101421268D01*
X134929860Y-101232791D01*
X135020296Y-101026616D01*
X135075564Y-100808368D01*
X135075565Y-100808359D01*
X135094156Y-100584005D01*
X135094156Y-100583994D01*
X135075565Y-100359640D01*
X135075563Y-100359628D01*
X135026905Y-100167484D01*
X135020296Y-100141384D01*
X134929860Y-99935209D01*
X134806722Y-99746732D01*
X134806719Y-99746729D01*
X134806715Y-99746723D01*
X134654243Y-99581097D01*
X134654238Y-99581092D01*
X134476577Y-99442812D01*
X134476578Y-99442812D01*
X134476576Y-99442811D01*
X134440070Y-99423055D01*
X134390479Y-99373836D01*
X134375371Y-99305619D01*
X134399541Y-99240064D01*
X134440070Y-99204945D01*
X134440084Y-99204936D01*
X134476576Y-99185189D01*
X134654240Y-99046906D01*
X134762588Y-98929210D01*
X134780257Y-98910017D01*
X134840144Y-98874026D01*
X134871486Y-98870000D01*
X144930805Y-98870000D01*
X144997844Y-98889685D01*
X145036532Y-98929210D01*
X145090773Y-99017724D01*
X145090774Y-99017726D01*
X145090777Y-99017729D01*
X145259602Y-99215398D01*
X145400409Y-99335658D01*
X145457273Y-99384225D01*
X145457276Y-99384226D01*
X145678915Y-99520048D01*
X145919080Y-99619527D01*
X146171850Y-99680211D01*
X146431000Y-99700607D01*
X146690150Y-99680211D01*
X146942920Y-99619527D01*
X147183084Y-99520048D01*
X147404729Y-99384223D01*
X147602398Y-99215398D01*
X147771223Y-99017729D01*
X147907048Y-98796084D01*
X148006527Y-98555920D01*
X148067211Y-98303150D01*
X148087607Y-98044000D01*
X148067211Y-97784850D01*
X148006527Y-97532080D01*
X147907048Y-97291915D01*
X147771226Y-97070276D01*
X147771225Y-97070273D01*
X147694165Y-96980048D01*
X147602398Y-96872602D01*
X147416892Y-96714165D01*
X147404726Y-96703774D01*
X147404723Y-96703773D01*
X147183083Y-96567951D01*
X147178740Y-96565738D01*
X147179413Y-96564416D01*
X147130153Y-96524722D01*
X147108087Y-96458428D01*
X147125365Y-96390729D01*
X147176501Y-96343117D01*
X147232008Y-96330000D01*
X151280805Y-96330000D01*
X151347844Y-96349685D01*
X151386532Y-96389210D01*
X151440773Y-96477724D01*
X151440774Y-96477726D01*
X151440777Y-96477729D01*
X151609602Y-96675398D01*
X151750409Y-96795658D01*
X151807273Y-96844225D01*
X151807276Y-96844226D01*
X152028915Y-96980048D01*
X152246734Y-97070271D01*
X152269080Y-97079527D01*
X152521850Y-97140211D01*
X152781000Y-97160607D01*
X153040150Y-97140211D01*
X153292920Y-97079527D01*
X153533084Y-96980048D01*
X153754729Y-96844223D01*
X153952398Y-96675398D01*
X154121223Y-96477729D01*
X154257048Y-96256084D01*
X154356527Y-96015920D01*
X154417211Y-95763150D01*
X154437607Y-95504000D01*
X154417211Y-95244850D01*
X154356527Y-94992080D01*
X154257048Y-94751915D01*
X154121226Y-94530276D01*
X154121225Y-94530273D01*
X154072136Y-94472797D01*
X153952398Y-94332602D01*
X153766892Y-94174165D01*
X153754726Y-94163774D01*
X153754723Y-94163773D01*
X153533084Y-94027951D01*
X153292919Y-93928472D01*
X153040153Y-93867789D01*
X152781000Y-93847393D01*
X152521846Y-93867789D01*
X152269080Y-93928472D01*
X152028915Y-94027951D01*
X151807276Y-94163773D01*
X151807273Y-94163774D01*
X151609602Y-94332602D01*
X151440774Y-94530273D01*
X151440773Y-94530275D01*
X151386532Y-94618790D01*
X151334721Y-94665665D01*
X151280805Y-94678000D01*
X147232008Y-94678000D01*
X147164969Y-94658315D01*
X147119214Y-94605511D01*
X147109270Y-94536353D01*
X147138295Y-94472797D01*
X147179250Y-94443264D01*
X147178740Y-94442262D01*
X147183078Y-94440050D01*
X147183084Y-94440048D01*
X147404729Y-94304223D01*
X147602398Y-94135398D01*
X147771223Y-93937729D01*
X147907048Y-93716084D01*
X148006527Y-93475920D01*
X148067211Y-93223150D01*
X148087607Y-92964000D01*
X148067211Y-92704850D01*
X148006527Y-92452080D01*
X147907048Y-92211915D01*
X147771226Y-91990276D01*
X147771225Y-91990273D01*
X147694165Y-91900048D01*
X147602398Y-91792602D01*
X147416892Y-91634165D01*
X147404726Y-91623774D01*
X147404723Y-91623773D01*
X147183083Y-91487951D01*
X147178740Y-91485738D01*
X147179413Y-91484416D01*
X147130153Y-91444722D01*
X147108087Y-91378428D01*
X147125365Y-91310729D01*
X147176501Y-91263117D01*
X147232008Y-91250000D01*
X151280805Y-91250000D01*
X151347844Y-91269685D01*
X151386532Y-91309210D01*
X151440773Y-91397724D01*
X151440774Y-91397726D01*
X151440777Y-91397729D01*
X151609602Y-91595398D01*
X151750409Y-91715658D01*
X151807273Y-91764225D01*
X151807276Y-91764226D01*
X152028915Y-91900048D01*
X152246734Y-91990271D01*
X152269080Y-91999527D01*
X152521850Y-92060211D01*
X152781000Y-92080607D01*
X153040150Y-92060211D01*
X153292920Y-91999527D01*
X153533084Y-91900048D01*
X153754729Y-91764223D01*
X153952398Y-91595398D01*
X154121223Y-91397729D01*
X154257048Y-91176084D01*
X154356527Y-90935920D01*
X154417211Y-90683150D01*
X154437607Y-90424000D01*
X154417211Y-90164850D01*
X154356527Y-89912080D01*
X154257048Y-89671915D01*
X154121226Y-89450276D01*
X154121225Y-89450273D01*
X154072136Y-89392797D01*
X153952398Y-89252602D01*
X153766892Y-89094165D01*
X153754726Y-89083774D01*
X153754723Y-89083773D01*
X153533084Y-88947951D01*
X153292919Y-88848472D01*
X153040153Y-88787789D01*
X152781000Y-88767393D01*
X152521846Y-88787789D01*
X152269080Y-88848472D01*
X152028915Y-88947951D01*
X151807276Y-89083773D01*
X151807273Y-89083774D01*
X151609602Y-89252602D01*
X151440774Y-89450273D01*
X151440773Y-89450275D01*
X151386532Y-89538790D01*
X151334721Y-89585665D01*
X151280805Y-89598000D01*
X147232008Y-89598000D01*
X147164969Y-89578315D01*
X147119214Y-89525511D01*
X147109270Y-89456353D01*
X147138295Y-89392797D01*
X147179250Y-89363264D01*
X147178740Y-89362262D01*
X147183078Y-89360050D01*
X147183084Y-89360048D01*
X147404729Y-89224223D01*
X147602398Y-89055398D01*
X147771223Y-88857729D01*
X147907048Y-88636084D01*
X148006527Y-88395920D01*
X148067211Y-88143150D01*
X148087607Y-87884000D01*
X148067211Y-87624850D01*
X148006527Y-87372080D01*
X147954051Y-87245391D01*
X147907048Y-87131915D01*
X147771226Y-86910276D01*
X147771225Y-86910273D01*
X147684498Y-86808729D01*
X147602398Y-86712602D01*
X147416892Y-86554165D01*
X147404726Y-86543774D01*
X147404723Y-86543773D01*
X147183083Y-86407951D01*
X147178740Y-86405738D01*
X147179413Y-86404416D01*
X147130153Y-86364722D01*
X147108087Y-86298428D01*
X147125365Y-86230729D01*
X147176501Y-86183117D01*
X147232008Y-86170000D01*
X151280805Y-86170000D01*
X151347844Y-86189685D01*
X151386532Y-86229210D01*
X151440773Y-86317724D01*
X151440774Y-86317726D01*
X151440777Y-86317729D01*
X151609602Y-86515398D01*
X151750409Y-86635658D01*
X151807273Y-86684225D01*
X151807276Y-86684226D01*
X152028915Y-86820048D01*
X152246734Y-86910271D01*
X152269080Y-86919527D01*
X152521850Y-86980211D01*
X152781000Y-87000607D01*
X153040150Y-86980211D01*
X153292920Y-86919527D01*
X153533084Y-86820048D01*
X153754729Y-86684223D01*
X153952398Y-86515398D01*
X154121223Y-86317729D01*
X154257048Y-86096084D01*
X154356527Y-85855920D01*
X154417211Y-85603150D01*
X154437607Y-85344000D01*
X154417211Y-85084850D01*
X154356527Y-84832080D01*
X154257048Y-84591915D01*
X154121226Y-84370276D01*
X154121225Y-84370273D01*
X154072136Y-84312797D01*
X153952398Y-84172602D01*
X153766892Y-84014165D01*
X153754726Y-84003774D01*
X153754723Y-84003773D01*
X153533084Y-83867951D01*
X153292919Y-83768472D01*
X153040153Y-83707789D01*
X152781000Y-83687393D01*
X152521846Y-83707789D01*
X152269080Y-83768472D01*
X152028915Y-83867951D01*
X151807276Y-84003773D01*
X151807273Y-84003774D01*
X151609602Y-84172602D01*
X151440774Y-84370273D01*
X151440773Y-84370275D01*
X151386532Y-84458790D01*
X151334721Y-84505665D01*
X151280805Y-84518000D01*
X134871486Y-84518000D01*
X134804447Y-84498315D01*
X134780257Y-84477983D01*
X134654243Y-84341097D01*
X134654238Y-84341092D01*
X134476577Y-84202812D01*
X134476578Y-84202812D01*
X134476576Y-84202811D01*
X134440070Y-84183055D01*
X134390479Y-84133836D01*
X134375371Y-84065619D01*
X134399541Y-84000064D01*
X134440070Y-83964945D01*
X134440084Y-83964936D01*
X134476576Y-83945189D01*
X134654240Y-83806906D01*
X134764261Y-83687393D01*
X134806715Y-83641276D01*
X134806716Y-83641274D01*
X134806722Y-83641268D01*
X134929860Y-83452791D01*
X135020296Y-83246616D01*
X135075564Y-83028368D01*
X135094156Y-82804000D01*
X135075564Y-82579632D01*
X135020296Y-82361384D01*
X134929860Y-82155209D01*
X134806722Y-81966732D01*
X134806719Y-81966729D01*
X134806715Y-81966723D01*
X134654243Y-81801097D01*
X134654238Y-81801092D01*
X134476577Y-81662812D01*
X134476577Y-81662811D01*
X134433303Y-81639393D01*
X134383713Y-81590173D01*
X134368605Y-81521957D01*
X134392775Y-81456401D01*
X134421198Y-81428763D01*
X134492373Y-81378925D01*
X133863533Y-80750086D01*
X133873315Y-80748680D01*
X134004100Y-80688952D01*
X134112761Y-80594798D01*
X134190493Y-80473844D01*
X134214076Y-80393524D01*
X134845925Y-81025373D01*
X134845926Y-81025373D01*
X134904598Y-80941582D01*
X134904600Y-80941578D01*
X135004429Y-80727492D01*
X135004433Y-80727483D01*
X135065567Y-80499326D01*
X135065569Y-80499315D01*
X135086157Y-80264001D01*
X135086157Y-80263998D01*
X135065569Y-80028684D01*
X135065567Y-80028673D01*
X135004433Y-79800516D01*
X135004429Y-79800507D01*
X134904600Y-79586423D01*
X134904599Y-79586421D01*
X134845925Y-79502626D01*
X134845925Y-79502625D01*
X134214076Y-80134475D01*
X134190493Y-80054156D01*
X134112761Y-79933202D01*
X134004100Y-79839048D01*
X133873315Y-79779320D01*
X133863533Y-79777913D01*
X134492373Y-79149073D01*
X134492373Y-79149072D01*
X134421199Y-79099236D01*
X134377574Y-79044659D01*
X134370380Y-78975161D01*
X134401903Y-78912806D01*
X134433305Y-78888606D01*
X134476576Y-78865189D01*
X134654240Y-78726906D01*
X134806722Y-78561268D01*
X134929860Y-78372791D01*
X135020296Y-78166616D01*
X135075564Y-77948368D01*
X135094156Y-77724000D01*
X135075564Y-77499632D01*
X135020296Y-77281384D01*
X134929860Y-77075209D01*
X134806722Y-76886732D01*
X134806719Y-76886729D01*
X134806715Y-76886723D01*
X134654243Y-76721097D01*
X134654238Y-76721092D01*
X134476577Y-76582812D01*
X134476572Y-76582808D01*
X134278580Y-76475661D01*
X134278577Y-76475659D01*
X134278574Y-76475658D01*
X134278571Y-76475657D01*
X134278569Y-76475656D01*
X134065637Y-76402556D01*
X133843569Y-76365500D01*
X133618431Y-76365500D01*
X133396362Y-76402556D01*
X133183430Y-76475656D01*
X133183419Y-76475661D01*
X132985427Y-76582808D01*
X132985422Y-76582812D01*
X132807761Y-76721092D01*
X132807756Y-76721097D01*
X132655284Y-76886723D01*
X132655276Y-76886734D01*
X132532140Y-77075207D01*
X132441703Y-77281385D01*
X132386436Y-77499628D01*
X132386434Y-77499640D01*
X132367844Y-77723994D01*
X132367844Y-77724005D01*
X132386434Y-77948359D01*
X132386436Y-77948371D01*
X132441703Y-78166614D01*
X132532140Y-78372792D01*
X132655276Y-78561265D01*
X132655284Y-78561276D01*
X132780900Y-78697729D01*
X132807760Y-78726906D01*
X132985424Y-78865189D01*
X133028695Y-78888606D01*
X133078286Y-78937825D01*
X133093394Y-79006042D01*
X133069224Y-79071597D01*
X133040801Y-79099236D01*
X132969626Y-79149072D01*
X132969625Y-79149072D01*
X133598466Y-79777913D01*
X133588685Y-79779320D01*
X133457900Y-79839048D01*
X133349239Y-79933202D01*
X133271507Y-80054156D01*
X133247923Y-80134476D01*
X132616072Y-79502625D01*
X132557401Y-79586419D01*
X132457570Y-79800507D01*
X132457566Y-79800516D01*
X132396432Y-80028673D01*
X132396430Y-80028684D01*
X132375843Y-80263998D01*
X132375843Y-80264001D01*
X132396430Y-80499315D01*
X132396432Y-80499326D01*
X132457566Y-80727483D01*
X132457570Y-80727492D01*
X132557400Y-80941579D01*
X132557402Y-80941583D01*
X132616072Y-81025373D01*
X132616073Y-81025373D01*
X133247923Y-80393523D01*
X133271507Y-80473844D01*
X133349239Y-80594798D01*
X133457900Y-80688952D01*
X133588685Y-80748680D01*
X133598466Y-80750086D01*
X132969625Y-81378925D01*
X133040801Y-81428763D01*
X133084426Y-81483340D01*
X133091620Y-81552838D01*
X133060097Y-81615193D01*
X133028697Y-81639392D01*
X132985427Y-81662809D01*
X132985422Y-81662812D01*
X132807761Y-81801092D01*
X132807756Y-81801097D01*
X132655284Y-81966723D01*
X132655276Y-81966734D01*
X132532140Y-82155207D01*
X132441703Y-82361386D01*
X132441700Y-82361394D01*
X132411168Y-82481961D01*
X132378644Y-82539201D01*
X128163717Y-86754129D01*
X128161646Y-86756106D01*
X128103924Y-86808726D01*
X128103921Y-86808730D01*
X128056847Y-86871064D01*
X128055070Y-86873307D01*
X128005175Y-86933395D01*
X128005171Y-86933400D01*
X127994330Y-86952862D01*
X127989641Y-86960059D01*
X127976209Y-86977848D01*
X127941391Y-87047771D01*
X127940056Y-87050303D01*
X127902051Y-87118535D01*
X127902051Y-87118536D01*
X127894969Y-87139666D01*
X127891681Y-87147603D01*
X127881748Y-87167553D01*
X127860379Y-87242656D01*
X127859532Y-87245391D01*
X127834706Y-87319462D01*
X127834704Y-87319473D01*
X127831625Y-87341543D01*
X127829852Y-87349948D01*
X127823755Y-87371382D01*
X127816546Y-87449164D01*
X127816216Y-87452006D01*
X127805427Y-87529357D01*
X127805427Y-87529359D01*
X127809034Y-87607386D01*
X127809100Y-87610249D01*
X127809100Y-106082040D01*
X127789415Y-106149079D01*
X127736611Y-106194834D01*
X127671217Y-106205260D01*
X127555604Y-106192234D01*
X127555597Y-106192234D01*
X127390547Y-106210830D01*
X127233761Y-106265691D01*
X127211798Y-106279492D01*
X127145826Y-106298498D01*
X119885925Y-106298498D01*
X119818886Y-106278813D01*
X119773131Y-106226009D01*
X119763187Y-106156851D01*
X119772368Y-106124689D01*
X119773772Y-106121489D01*
X119780296Y-106106616D01*
X119835564Y-105888368D01*
X119835565Y-105888359D01*
X119854156Y-105664005D01*
X119854156Y-105663994D01*
X119835565Y-105439640D01*
X119835563Y-105439628D01*
X119819806Y-105377406D01*
X119780296Y-105221384D01*
X119689860Y-105015209D01*
X119679239Y-104998953D01*
X119614678Y-104900134D01*
X119566722Y-104826732D01*
X119566719Y-104826729D01*
X119566715Y-104826723D01*
X119414243Y-104661097D01*
X119414238Y-104661092D01*
X119280875Y-104557291D01*
X119236576Y-104522811D01*
X119200070Y-104503055D01*
X119150479Y-104453836D01*
X119135371Y-104385619D01*
X119159541Y-104320064D01*
X119200070Y-104284945D01*
X119200084Y-104284936D01*
X119236576Y-104265189D01*
X119414240Y-104126906D01*
X119560615Y-103967902D01*
X119566715Y-103961276D01*
X119566716Y-103961274D01*
X119566722Y-103961268D01*
X119634772Y-103857109D01*
X119661841Y-103815678D01*
X119714987Y-103770322D01*
X119765649Y-103759500D01*
X119804153Y-103759500D01*
X119819932Y-103761241D01*
X119819958Y-103760974D01*
X119827711Y-103761706D01*
X119827719Y-103761708D01*
X119897985Y-103759500D01*
X119927983Y-103759500D01*
X119935013Y-103758611D01*
X119940836Y-103758153D01*
X119988205Y-103756665D01*
X120007906Y-103750940D01*
X120026951Y-103746997D01*
X120047299Y-103744427D01*
X120091393Y-103726968D01*
X120096856Y-103725098D01*
X120142393Y-103711869D01*
X120160054Y-103701423D01*
X120177512Y-103692871D01*
X120196588Y-103685319D01*
X120234928Y-103657462D01*
X120239800Y-103654261D01*
X120280598Y-103630134D01*
X120295094Y-103615637D01*
X120309892Y-103602998D01*
X120326487Y-103590942D01*
X120356706Y-103554411D01*
X120360620Y-103550110D01*
X121167074Y-102743657D01*
X121179458Y-102733738D01*
X121179286Y-102733530D01*
X121185292Y-102728559D01*
X121185303Y-102728553D01*
X121233426Y-102677306D01*
X121254639Y-102656094D01*
X121258993Y-102650479D01*
X121262768Y-102646058D01*
X121295217Y-102611506D01*
X121305094Y-102593537D01*
X121315779Y-102577272D01*
X121328350Y-102561067D01*
X121347183Y-102517543D01*
X121349732Y-102512341D01*
X121372569Y-102470803D01*
X121377670Y-102450930D01*
X121383969Y-102432534D01*
X121392117Y-102413708D01*
X121399136Y-102369388D01*
X121399530Y-102366902D01*
X121400715Y-102361178D01*
X121403070Y-102352005D01*
X121412500Y-102315282D01*
X121412500Y-102294774D01*
X121414027Y-102275374D01*
X121417235Y-102255121D01*
X121412775Y-102207939D01*
X121412500Y-102202101D01*
X121412500Y-100540847D01*
X121414241Y-100525067D01*
X121413974Y-100525042D01*
X121414706Y-100517288D01*
X121414708Y-100517281D01*
X121412500Y-100447014D01*
X121412500Y-100417017D01*
X121411611Y-100409984D01*
X121411153Y-100404162D01*
X121410992Y-100399052D01*
X121409665Y-100356795D01*
X121403941Y-100337093D01*
X121399997Y-100318049D01*
X121397427Y-100297701D01*
X121379973Y-100253618D01*
X121378098Y-100248142D01*
X121364869Y-100202607D01*
X121354427Y-100184951D01*
X121345870Y-100167484D01*
X121341253Y-100155823D01*
X121338319Y-100148412D01*
X121310462Y-100110070D01*
X121307253Y-100105185D01*
X121303753Y-100099267D01*
X121283134Y-100064401D01*
X121283131Y-100064398D01*
X121283129Y-100064395D01*
X121268633Y-100049899D01*
X121255995Y-100035103D01*
X121246970Y-100022681D01*
X121243942Y-100018513D01*
X121217440Y-99996589D01*
X121207422Y-99988301D01*
X121203100Y-99984367D01*
X120117258Y-98898525D01*
X120107332Y-98886135D01*
X120107125Y-98886307D01*
X120102152Y-98880296D01*
X120050906Y-98832173D01*
X120029697Y-98810963D01*
X120024092Y-98806615D01*
X120019646Y-98802818D01*
X119985109Y-98770385D01*
X119985101Y-98770380D01*
X119967140Y-98760506D01*
X119950874Y-98749822D01*
X119934664Y-98737248D01*
X119891171Y-98718427D01*
X119885923Y-98715856D01*
X119844401Y-98693030D01*
X119837154Y-98690161D01*
X119837870Y-98688351D01*
X119786702Y-98657893D01*
X119755516Y-98595370D01*
X119763084Y-98525911D01*
X119763975Y-98523822D01*
X119780296Y-98486616D01*
X119835564Y-98268368D01*
X119854156Y-98044000D01*
X119835564Y-97819632D01*
X119780296Y-97601384D01*
X119689860Y-97395209D01*
X119566722Y-97206732D01*
X119566719Y-97206729D01*
X119566715Y-97206723D01*
X119414243Y-97041097D01*
X119414238Y-97041092D01*
X119236577Y-96902812D01*
X119236578Y-96902812D01*
X119236576Y-96902811D01*
X119200070Y-96883055D01*
X119150479Y-96833836D01*
X119135371Y-96765619D01*
X119159541Y-96700064D01*
X119200070Y-96664945D01*
X119200084Y-96664936D01*
X119236576Y-96645189D01*
X119414240Y-96506906D01*
X119524261Y-96387393D01*
X119566715Y-96341276D01*
X119566716Y-96341274D01*
X119566722Y-96341268D01*
X119689860Y-96152791D01*
X119780296Y-95946616D01*
X119835564Y-95728368D01*
X119854156Y-95504000D01*
X119835564Y-95279632D01*
X119780296Y-95061384D01*
X119689860Y-94855209D01*
X119566722Y-94666732D01*
X119566719Y-94666729D01*
X119566715Y-94666723D01*
X119414243Y-94501097D01*
X119414238Y-94501092D01*
X119236577Y-94362812D01*
X119236578Y-94362812D01*
X119236576Y-94362811D01*
X119200070Y-94343055D01*
X119150479Y-94293836D01*
X119135371Y-94225619D01*
X119159541Y-94160064D01*
X119200070Y-94124945D01*
X119200084Y-94124936D01*
X119236576Y-94105189D01*
X119414240Y-93966906D01*
X119524261Y-93847393D01*
X119566715Y-93801276D01*
X119566716Y-93801274D01*
X119566722Y-93801268D01*
X119689860Y-93612791D01*
X119780296Y-93406616D01*
X119835564Y-93188368D01*
X119854156Y-92964000D01*
X119835564Y-92739632D01*
X119780296Y-92521384D01*
X119689860Y-92315209D01*
X119566722Y-92126732D01*
X119566719Y-92126729D01*
X119566715Y-92126723D01*
X119414243Y-91961097D01*
X119414238Y-91961092D01*
X119236577Y-91822812D01*
X119236578Y-91822812D01*
X119236576Y-91822811D01*
X119200070Y-91803055D01*
X119150479Y-91753836D01*
X119135371Y-91685619D01*
X119159541Y-91620064D01*
X119200070Y-91584945D01*
X119200084Y-91584936D01*
X119236576Y-91565189D01*
X119414240Y-91426906D01*
X119524261Y-91307393D01*
X119566715Y-91261276D01*
X119566716Y-91261274D01*
X119566722Y-91261268D01*
X119689860Y-91072791D01*
X119780296Y-90866616D01*
X119835564Y-90648368D01*
X119854156Y-90424000D01*
X119835564Y-90199632D01*
X119780296Y-89981384D01*
X119689860Y-89775209D01*
X119566722Y-89586732D01*
X119566719Y-89586729D01*
X119566715Y-89586723D01*
X119414243Y-89421097D01*
X119414238Y-89421092D01*
X119236577Y-89282812D01*
X119236578Y-89282812D01*
X119236576Y-89282811D01*
X119200070Y-89263055D01*
X119150479Y-89213836D01*
X119135371Y-89145619D01*
X119159541Y-89080064D01*
X119200070Y-89044945D01*
X119200084Y-89044936D01*
X119236576Y-89025189D01*
X119414240Y-88886906D01*
X119524261Y-88767393D01*
X119566715Y-88721276D01*
X119566716Y-88721274D01*
X119566722Y-88721268D01*
X119689860Y-88532791D01*
X119780296Y-88326616D01*
X119835564Y-88108368D01*
X119854156Y-87884000D01*
X119835564Y-87659632D01*
X119780296Y-87441384D01*
X119689860Y-87235209D01*
X119566722Y-87046732D01*
X119566719Y-87046729D01*
X119566715Y-87046723D01*
X119414243Y-86881097D01*
X119414238Y-86881092D01*
X119253657Y-86756106D01*
X119236576Y-86742811D01*
X119200070Y-86723055D01*
X119150479Y-86673836D01*
X119135371Y-86605619D01*
X119159541Y-86540064D01*
X119200070Y-86504945D01*
X119200084Y-86504936D01*
X119236576Y-86485189D01*
X119414240Y-86346906D01*
X119524261Y-86227393D01*
X119566715Y-86181276D01*
X119566716Y-86181274D01*
X119566722Y-86181268D01*
X119689860Y-85992791D01*
X119780296Y-85786616D01*
X119835564Y-85568368D01*
X119854156Y-85344000D01*
X119835564Y-85119632D01*
X119780296Y-84901384D01*
X119689860Y-84695209D01*
X119566722Y-84506732D01*
X119566719Y-84506729D01*
X119566715Y-84506723D01*
X119414243Y-84341097D01*
X119414238Y-84341092D01*
X119236577Y-84202812D01*
X119236578Y-84202812D01*
X119236576Y-84202811D01*
X119200070Y-84183055D01*
X119150479Y-84133836D01*
X119135371Y-84065619D01*
X119159541Y-84000064D01*
X119200070Y-83964945D01*
X119200084Y-83964936D01*
X119236576Y-83945189D01*
X119414240Y-83806906D01*
X119524261Y-83687393D01*
X119566715Y-83641276D01*
X119566716Y-83641274D01*
X119566722Y-83641268D01*
X119689860Y-83452791D01*
X119780296Y-83246616D01*
X119835564Y-83028368D01*
X119854156Y-82804000D01*
X119835564Y-82579632D01*
X119780296Y-82361384D01*
X119689860Y-82155209D01*
X119566722Y-81966732D01*
X119566719Y-81966729D01*
X119566715Y-81966723D01*
X119414243Y-81801097D01*
X119414238Y-81801092D01*
X119236577Y-81662812D01*
X119236578Y-81662812D01*
X119236576Y-81662811D01*
X119200070Y-81643055D01*
X119150479Y-81593836D01*
X119135371Y-81525619D01*
X119159541Y-81460064D01*
X119200070Y-81424945D01*
X119200084Y-81424936D01*
X119236576Y-81405189D01*
X119414240Y-81266906D01*
X119524261Y-81147393D01*
X119566715Y-81101276D01*
X119566716Y-81101274D01*
X119566722Y-81101268D01*
X119689860Y-80912791D01*
X119780296Y-80706616D01*
X119835564Y-80488368D01*
X119854156Y-80264000D01*
X119835564Y-80039632D01*
X119780296Y-79821384D01*
X119689860Y-79615209D01*
X119566722Y-79426732D01*
X119566719Y-79426729D01*
X119566715Y-79426723D01*
X119421510Y-79268991D01*
X119390587Y-79206337D01*
X119398447Y-79136911D01*
X119442594Y-79082755D01*
X119469405Y-79068827D01*
X119549584Y-79038920D01*
X119587204Y-79024889D01*
X119704261Y-78937261D01*
X119791889Y-78820204D01*
X119842989Y-78683201D01*
X119846591Y-78649692D01*
X119849499Y-78622654D01*
X119849500Y-78622637D01*
X119849500Y-76825362D01*
X119849499Y-76825345D01*
X119845403Y-76787257D01*
X119842989Y-76764799D01*
X119837572Y-76750276D01*
X119820522Y-76704564D01*
X119791889Y-76627796D01*
X119704261Y-76510739D01*
X119587204Y-76423111D01*
X119450203Y-76372011D01*
X119389654Y-76365500D01*
X119389638Y-76365500D01*
X117592362Y-76365500D01*
X117592345Y-76365500D01*
X117531797Y-76372011D01*
X117531795Y-76372011D01*
X117394795Y-76423111D01*
X117277739Y-76510739D01*
X117190111Y-76627795D01*
X117139011Y-76764795D01*
X117139011Y-76764797D01*
X117136596Y-76787257D01*
X117109857Y-76851808D01*
X117052464Y-76891655D01*
X117013307Y-76898000D01*
X109831195Y-76898000D01*
X109764156Y-76878315D01*
X109725468Y-76838790D01*
X109671226Y-76750275D01*
X109671225Y-76750273D01*
X109633084Y-76705616D01*
X109502398Y-76552602D01*
X109350783Y-76423111D01*
X109304726Y-76383774D01*
X109304723Y-76383773D01*
X109083084Y-76247951D01*
X108842919Y-76148472D01*
X108590153Y-76087789D01*
X108331000Y-76067393D01*
X108071846Y-76087789D01*
X107819080Y-76148472D01*
X107578915Y-76247951D01*
X107357276Y-76383773D01*
X107357273Y-76383774D01*
X107159602Y-76552602D01*
X106990774Y-76750273D01*
X106990773Y-76750276D01*
X106854951Y-76971915D01*
X106755472Y-77212080D01*
X106694789Y-77464846D01*
X106674393Y-77724000D01*
X106694789Y-77983153D01*
X106755472Y-78235919D01*
X106854951Y-78476084D01*
X106990773Y-78697723D01*
X106990774Y-78697726D01*
X106990777Y-78697729D01*
X107159602Y-78895398D01*
X107249692Y-78972342D01*
X107357273Y-79064225D01*
X107357276Y-79064226D01*
X107578916Y-79200048D01*
X107583260Y-79202262D01*
X107582586Y-79203583D01*
X107631847Y-79243278D01*
X107653913Y-79309572D01*
X107636635Y-79377271D01*
X107585499Y-79424883D01*
X107529992Y-79438000D01*
X103481195Y-79438000D01*
X103414156Y-79418315D01*
X103375468Y-79378790D01*
X103321226Y-79290275D01*
X103321225Y-79290273D01*
X103272136Y-79232797D01*
X103152398Y-79092602D01*
X103011591Y-78972342D01*
X102954726Y-78923774D01*
X102954723Y-78923773D01*
X102733084Y-78787951D01*
X102492919Y-78688472D01*
X102240153Y-78627789D01*
X101981000Y-78607393D01*
X101721846Y-78627789D01*
X101469080Y-78688472D01*
X101228915Y-78787951D01*
X101007276Y-78923773D01*
X101007273Y-78923774D01*
X100809602Y-79092602D01*
X100640774Y-79290273D01*
X100640773Y-79290276D01*
X100504951Y-79511915D01*
X100405472Y-79752080D01*
X100344789Y-80004846D01*
X100324393Y-80264000D01*
X100344789Y-80523153D01*
X100405472Y-80775919D01*
X100504951Y-81016084D01*
X100640773Y-81237723D01*
X100640774Y-81237726D01*
X100640777Y-81237729D01*
X100809602Y-81435398D01*
X100947107Y-81552838D01*
X101007273Y-81604225D01*
X101007276Y-81604226D01*
X101228915Y-81740048D01*
X101446734Y-81830271D01*
X101469080Y-81839527D01*
X101721850Y-81900211D01*
X101981000Y-81920607D01*
X102240150Y-81900211D01*
X102492920Y-81839527D01*
X102733084Y-81740048D01*
X102954729Y-81604223D01*
X103152398Y-81435398D01*
X103321223Y-81237729D01*
X103364083Y-81167789D01*
X103375468Y-81149210D01*
X103427279Y-81102335D01*
X103481195Y-81090000D01*
X107529992Y-81090000D01*
X107597031Y-81109685D01*
X107642786Y-81162489D01*
X107652730Y-81231647D01*
X107623705Y-81295203D01*
X107582749Y-81324735D01*
X107583260Y-81325738D01*
X107578916Y-81327951D01*
X107357276Y-81463773D01*
X107357273Y-81463774D01*
X107159602Y-81632602D01*
X106990774Y-81830273D01*
X106990773Y-81830276D01*
X106854951Y-82051915D01*
X106755472Y-82292080D01*
X106694789Y-82544846D01*
X106674393Y-82804000D01*
X106694789Y-83063153D01*
X106755472Y-83315919D01*
X106854951Y-83556084D01*
X106990773Y-83777723D01*
X106990774Y-83777726D01*
X106990777Y-83777729D01*
X107159602Y-83975398D01*
X107300409Y-84095658D01*
X107357273Y-84144225D01*
X107357276Y-84144226D01*
X107578916Y-84280048D01*
X107583260Y-84282262D01*
X107582586Y-84283583D01*
X107631847Y-84323278D01*
X107653913Y-84389572D01*
X107636635Y-84457271D01*
X107585499Y-84504883D01*
X107529992Y-84518000D01*
X103481195Y-84518000D01*
X103414156Y-84498315D01*
X103375468Y-84458790D01*
X103321226Y-84370275D01*
X103321225Y-84370273D01*
X103272136Y-84312797D01*
X103152398Y-84172602D01*
X102966892Y-84014165D01*
X102954726Y-84003774D01*
X102954723Y-84003773D01*
X102733084Y-83867951D01*
X102492919Y-83768472D01*
X102240153Y-83707789D01*
X101981000Y-83687393D01*
X101721846Y-83707789D01*
X101469080Y-83768472D01*
X101228915Y-83867951D01*
X101007276Y-84003773D01*
X101007273Y-84003774D01*
X100809602Y-84172602D01*
X100640774Y-84370273D01*
X100640773Y-84370276D01*
X100504951Y-84591915D01*
X100405472Y-84832080D01*
X100344789Y-85084846D01*
X100324393Y-85344000D01*
X100344789Y-85603153D01*
X100405472Y-85855919D01*
X100504951Y-86096084D01*
X100640773Y-86317723D01*
X100640774Y-86317726D01*
X100640777Y-86317729D01*
X100809602Y-86515398D01*
X100950409Y-86635658D01*
X101007273Y-86684225D01*
X101007276Y-86684226D01*
X101228915Y-86820048D01*
X101446734Y-86910271D01*
X101469080Y-86919527D01*
X101721850Y-86980211D01*
X101981000Y-87000607D01*
X102240150Y-86980211D01*
X102492920Y-86919527D01*
X102733084Y-86820048D01*
X102954729Y-86684223D01*
X103152398Y-86515398D01*
X103321223Y-86317729D01*
X103364083Y-86247789D01*
X103375468Y-86229210D01*
X103427279Y-86182335D01*
X103481195Y-86170000D01*
X107529992Y-86170000D01*
X107597031Y-86189685D01*
X107642786Y-86242489D01*
X107652730Y-86311647D01*
X107623705Y-86375203D01*
X107582749Y-86404735D01*
X107583260Y-86405738D01*
X107578916Y-86407951D01*
X107357276Y-86543773D01*
X107357273Y-86543774D01*
X107159602Y-86712602D01*
X106990774Y-86910273D01*
X106990773Y-86910276D01*
X106854951Y-87131915D01*
X106755472Y-87372080D01*
X106694789Y-87624846D01*
X106674393Y-87884000D01*
X106694789Y-88143153D01*
X106755472Y-88395919D01*
X106854951Y-88636084D01*
X106990773Y-88857723D01*
X106990774Y-88857726D01*
X106990777Y-88857729D01*
X107159602Y-89055398D01*
X107300409Y-89175658D01*
X107357273Y-89224225D01*
X107357276Y-89224226D01*
X107578916Y-89360048D01*
X107583260Y-89362262D01*
X107582586Y-89363583D01*
X107631847Y-89403278D01*
X107653913Y-89469572D01*
X107636635Y-89537271D01*
X107585499Y-89584883D01*
X107529992Y-89598000D01*
X103481195Y-89598000D01*
X103414156Y-89578315D01*
X103375468Y-89538790D01*
X103321226Y-89450275D01*
X103321225Y-89450273D01*
X103272136Y-89392797D01*
X103152398Y-89252602D01*
X102966892Y-89094165D01*
X102954726Y-89083774D01*
X102954723Y-89083773D01*
X102733084Y-88947951D01*
X102492919Y-88848472D01*
X102240153Y-88787789D01*
X101981000Y-88767393D01*
X101721846Y-88787789D01*
X101469080Y-88848472D01*
X101228915Y-88947951D01*
X101007276Y-89083773D01*
X101007273Y-89083774D01*
X100809602Y-89252602D01*
X100640774Y-89450273D01*
X100640773Y-89450276D01*
X100504951Y-89671915D01*
X100405472Y-89912080D01*
X100344789Y-90164846D01*
X100324393Y-90424000D01*
X100344789Y-90683153D01*
X100405472Y-90935919D01*
X100504951Y-91176084D01*
X100640773Y-91397723D01*
X100640774Y-91397726D01*
X100640777Y-91397729D01*
X100809602Y-91595398D01*
X100950409Y-91715658D01*
X101007273Y-91764225D01*
X101007276Y-91764226D01*
X101228915Y-91900048D01*
X101446734Y-91990271D01*
X101469080Y-91999527D01*
X101721850Y-92060211D01*
X101981000Y-92080607D01*
X102240150Y-92060211D01*
X102492920Y-91999527D01*
X102733084Y-91900048D01*
X102954729Y-91764223D01*
X103152398Y-91595398D01*
X103321223Y-91397729D01*
X103364083Y-91327789D01*
X103375468Y-91309210D01*
X103427279Y-91262335D01*
X103481195Y-91250000D01*
X107529992Y-91250000D01*
X107597031Y-91269685D01*
X107642786Y-91322489D01*
X107652730Y-91391647D01*
X107623705Y-91455203D01*
X107582749Y-91484735D01*
X107583260Y-91485738D01*
X107578916Y-91487951D01*
X107357276Y-91623773D01*
X107357273Y-91623774D01*
X107159602Y-91792602D01*
X106990774Y-91990273D01*
X106990773Y-91990276D01*
X106854951Y-92211915D01*
X106755472Y-92452080D01*
X106694789Y-92704846D01*
X106674393Y-92964000D01*
X106694789Y-93223153D01*
X106755472Y-93475919D01*
X106854951Y-93716084D01*
X106990773Y-93937723D01*
X106990774Y-93937726D01*
X106990777Y-93937729D01*
X107159602Y-94135398D01*
X107300409Y-94255658D01*
X107357273Y-94304225D01*
X107357276Y-94304226D01*
X107578916Y-94440048D01*
X107583260Y-94442262D01*
X107582586Y-94443583D01*
X107631847Y-94483278D01*
X107653913Y-94549572D01*
X107636635Y-94617271D01*
X107585499Y-94664883D01*
X107529992Y-94678000D01*
X103481195Y-94678000D01*
X103414156Y-94658315D01*
X103375468Y-94618790D01*
X103321226Y-94530275D01*
X103321225Y-94530273D01*
X103272136Y-94472797D01*
X103152398Y-94332602D01*
X102966892Y-94174165D01*
X102954726Y-94163774D01*
X102954723Y-94163773D01*
X102733084Y-94027951D01*
X102492919Y-93928472D01*
X102240153Y-93867789D01*
X101981000Y-93847393D01*
X101721846Y-93867789D01*
X101469080Y-93928472D01*
X101228915Y-94027951D01*
X101007276Y-94163773D01*
X101007273Y-94163774D01*
X100809602Y-94332602D01*
X100640774Y-94530273D01*
X100640773Y-94530276D01*
X100504951Y-94751915D01*
X100405472Y-94992080D01*
X100344789Y-95244846D01*
X100324393Y-95504000D01*
X100344789Y-95763153D01*
X100405472Y-96015919D01*
X100504951Y-96256084D01*
X100640773Y-96477723D01*
X100640774Y-96477726D01*
X100640777Y-96477729D01*
X100809602Y-96675398D01*
X100950409Y-96795658D01*
X101007273Y-96844225D01*
X101007276Y-96844226D01*
X101228915Y-96980048D01*
X101446734Y-97070271D01*
X101469080Y-97079527D01*
X101721850Y-97140211D01*
X101981000Y-97160607D01*
X102240150Y-97140211D01*
X102492920Y-97079527D01*
X102733084Y-96980048D01*
X102954729Y-96844223D01*
X103152398Y-96675398D01*
X103321223Y-96477729D01*
X103364083Y-96407789D01*
X103375468Y-96389210D01*
X103427279Y-96342335D01*
X103481195Y-96330000D01*
X107529992Y-96330000D01*
X107597031Y-96349685D01*
X107642786Y-96402489D01*
X107652730Y-96471647D01*
X107623705Y-96535203D01*
X107582749Y-96564735D01*
X107583260Y-96565738D01*
X107578916Y-96567951D01*
X107357276Y-96703773D01*
X107357273Y-96703774D01*
X107159602Y-96872602D01*
X106990774Y-97070273D01*
X106990773Y-97070276D01*
X106854951Y-97291915D01*
X106755472Y-97532080D01*
X106694789Y-97784846D01*
X106674393Y-98044000D01*
X106694789Y-98303153D01*
X106755472Y-98555919D01*
X106854951Y-98796084D01*
X106990773Y-99017723D01*
X106990774Y-99017726D01*
X106990777Y-99017729D01*
X107159602Y-99215398D01*
X107300409Y-99335658D01*
X107357273Y-99384225D01*
X107357276Y-99384226D01*
X107578915Y-99520048D01*
X107819080Y-99619527D01*
X108071850Y-99680211D01*
X108331000Y-99700607D01*
X108590150Y-99680211D01*
X108842920Y-99619527D01*
X109083084Y-99520048D01*
X109304729Y-99384223D01*
X109502398Y-99215398D01*
X109671223Y-99017729D01*
X109687005Y-98991974D01*
X109725468Y-98929210D01*
X109777279Y-98882335D01*
X109831195Y-98870000D01*
X111513905Y-98870000D01*
X111580944Y-98889685D01*
X111626699Y-98942489D01*
X111636643Y-99011647D01*
X111607618Y-99075203D01*
X111601586Y-99081681D01*
X108088699Y-102594566D01*
X108027376Y-102628051D01*
X107957684Y-102623067D01*
X107901751Y-102581195D01*
X107883976Y-102547838D01*
X107856307Y-102468762D01*
X107793866Y-102369388D01*
X107767934Y-102328118D01*
X107650482Y-102210666D01*
X107549136Y-102146986D01*
X107509836Y-102122292D01*
X107395933Y-102082435D01*
X107349207Y-102053075D01*
X106125058Y-100828925D01*
X106115132Y-100816535D01*
X106114925Y-100816707D01*
X106109952Y-100810696D01*
X106058706Y-100762573D01*
X106037497Y-100741363D01*
X106031892Y-100737015D01*
X106027446Y-100733218D01*
X105992909Y-100700785D01*
X105992901Y-100700780D01*
X105974940Y-100690906D01*
X105958674Y-100680222D01*
X105942464Y-100667648D01*
X105898971Y-100648827D01*
X105893723Y-100646256D01*
X105852205Y-100623432D01*
X105852204Y-100623431D01*
X105852203Y-100623431D01*
X105832337Y-100618330D01*
X105813938Y-100612030D01*
X105795109Y-100603883D01*
X105795108Y-100603882D01*
X105748302Y-100596469D01*
X105742581Y-100595284D01*
X105696683Y-100583500D01*
X105696682Y-100583500D01*
X105676174Y-100583500D01*
X105656776Y-100581973D01*
X105646169Y-100580293D01*
X105636522Y-100578765D01*
X105636521Y-100578764D01*
X105589339Y-100583225D01*
X105583501Y-100583500D01*
X104507620Y-100583500D01*
X104440581Y-100563815D01*
X104419943Y-100547185D01*
X104356836Y-100484078D01*
X104356835Y-100484077D01*
X104356833Y-100484075D01*
X104212714Y-100396953D01*
X104212713Y-100396952D01*
X104212712Y-100396952D01*
X104051925Y-100346849D01*
X104051923Y-100346848D01*
X104051921Y-100346848D01*
X104003004Y-100342403D01*
X103982057Y-100340500D01*
X103982054Y-100340500D01*
X101439935Y-100340500D01*
X101370079Y-100346847D01*
X101370071Y-100346849D01*
X101209288Y-100396951D01*
X101209286Y-100396952D01*
X101065166Y-100484075D01*
X101065162Y-100484078D01*
X100946078Y-100603162D01*
X100946075Y-100603166D01*
X100858952Y-100747286D01*
X100858951Y-100747288D01*
X100829385Y-100842171D01*
X100790648Y-100900318D01*
X100726622Y-100928292D01*
X100657637Y-100917210D01*
X100605594Y-100870592D01*
X100592615Y-100842171D01*
X100563048Y-100747288D01*
X100563047Y-100747286D01*
X100475924Y-100603166D01*
X100475921Y-100603162D01*
X100356837Y-100484078D01*
X100356833Y-100484075D01*
X100212714Y-100396953D01*
X100212713Y-100396952D01*
X100212712Y-100396952D01*
X100051925Y-100346849D01*
X100051923Y-100346848D01*
X100051921Y-100346848D01*
X100003004Y-100342403D01*
X99982057Y-100340500D01*
X99982054Y-100340500D01*
X97439935Y-100340500D01*
X97370079Y-100346847D01*
X97370071Y-100346849D01*
X97258922Y-100381485D01*
X97239988Y-100387385D01*
X97203099Y-100393000D01*
X96429109Y-100393000D01*
X96424074Y-100392795D01*
X96370503Y-100388432D01*
X96370496Y-100388433D01*
X96292558Y-100399051D01*
X96214384Y-100407554D01*
X96211136Y-100408269D01*
X96195677Y-100411892D01*
X96192484Y-100412686D01*
X96174658Y-100419235D01*
X96118651Y-100439811D01*
X96044126Y-100464922D01*
X96044124Y-100464922D01*
X96044124Y-100464923D01*
X96041159Y-100466294D01*
X96026753Y-100473197D01*
X96023827Y-100474649D01*
X95957578Y-100516995D01*
X95890182Y-100557546D01*
X95887520Y-100559569D01*
X95875029Y-100569335D01*
X95872454Y-100571405D01*
X95816835Y-100627023D01*
X95759740Y-100681107D01*
X95757578Y-100683652D01*
X95745066Y-100698791D01*
X94843858Y-101600000D01*
X94840155Y-101603414D01*
X94799191Y-101638210D01*
X94751594Y-101700822D01*
X94716128Y-101744945D01*
X94702317Y-101762126D01*
X94700565Y-101764866D01*
X94692186Y-101778374D01*
X94690460Y-101781244D01*
X94674239Y-101816305D01*
X94628224Y-101868883D01*
X94561088Y-101888236D01*
X94494147Y-101868221D01*
X94448653Y-101815192D01*
X94437700Y-101764238D01*
X94437700Y-74549000D01*
X94438206Y-74535477D01*
X94455155Y-74082482D01*
X94455498Y-74077911D01*
X94507511Y-73616288D01*
X94508199Y-73611733D01*
X94594558Y-73155315D01*
X94595580Y-73150837D01*
X94715813Y-72702119D01*
X94717167Y-72697733D01*
X94870593Y-72259269D01*
X94872274Y-72254988D01*
X95058029Y-71829234D01*
X95060032Y-71825071D01*
X95277089Y-71414381D01*
X95279393Y-71410392D01*
X95526522Y-71017088D01*
X95529135Y-71013255D01*
X95804972Y-70639509D01*
X95807846Y-70635907D01*
X96050438Y-70354011D01*
X96110840Y-70283821D01*
X96113982Y-70280435D01*
X96442435Y-69951982D01*
X96445822Y-69948840D01*
X96797913Y-69645840D01*
X96801509Y-69642972D01*
X97175261Y-69367130D01*
X97179088Y-69364522D01*
X97572392Y-69117393D01*
X97576381Y-69115089D01*
X97987071Y-68898032D01*
X97991234Y-68896029D01*
X98416988Y-68710274D01*
X98421269Y-68708593D01*
X98859733Y-68555167D01*
X98864119Y-68553813D01*
X99312837Y-68433580D01*
X99317315Y-68432558D01*
X99773743Y-68346197D01*
X99778288Y-68345511D01*
X100239911Y-68293498D01*
X100244482Y-68293155D01*
X100711000Y-68275700D01*
X100735921Y-68275700D01*
X151486079Y-68275700D01*
X151511000Y-68275700D01*
X151977515Y-68293155D01*
G37*
%TD.AperFunction*%
%TA.AperFunction,Conductor*%
G36*
X129461507Y-122383844D02*
G01*
X129539239Y-122504798D01*
X129647900Y-122598952D01*
X129778685Y-122658680D01*
X129788466Y-122660086D01*
X129159625Y-123288925D01*
X129243421Y-123347599D01*
X129457507Y-123447429D01*
X129457516Y-123447433D01*
X129685673Y-123508567D01*
X129685684Y-123508569D01*
X129920998Y-123529157D01*
X129921002Y-123529157D01*
X130156315Y-123508569D01*
X130156326Y-123508567D01*
X130384483Y-123447433D01*
X130384492Y-123447429D01*
X130598578Y-123347600D01*
X130598582Y-123347598D01*
X130682373Y-123288926D01*
X130682373Y-123288925D01*
X130053533Y-122660086D01*
X130063315Y-122658680D01*
X130194100Y-122598952D01*
X130302761Y-122504798D01*
X130380493Y-122383844D01*
X130404076Y-122303524D01*
X131035925Y-122935373D01*
X131055693Y-122933644D01*
X131124193Y-122947411D01*
X131174376Y-122996026D01*
X131190500Y-123057172D01*
X131190500Y-130184151D01*
X131188758Y-130199927D01*
X131189026Y-130199953D01*
X131188292Y-130207718D01*
X131188292Y-130207719D01*
X131189189Y-130236265D01*
X131190500Y-130277985D01*
X131190500Y-130307983D01*
X131191387Y-130315013D01*
X131191845Y-130320832D01*
X131193334Y-130368203D01*
X131193335Y-130368207D01*
X131199057Y-130387905D01*
X131203000Y-130406946D01*
X131205571Y-130427288D01*
X131205574Y-130427303D01*
X131223016Y-130471359D01*
X131224907Y-130476883D01*
X131238130Y-130522391D01*
X131248570Y-130540044D01*
X131257128Y-130557514D01*
X131264679Y-130576585D01*
X131264682Y-130576591D01*
X131292542Y-130614936D01*
X131295749Y-130619819D01*
X131319866Y-130660598D01*
X131319870Y-130660602D01*
X131334364Y-130675096D01*
X131346996Y-130689885D01*
X131359058Y-130706487D01*
X131395575Y-130736696D01*
X131399886Y-130740618D01*
X131682221Y-131022953D01*
X131824181Y-131164913D01*
X131857666Y-131226236D01*
X131860500Y-131252594D01*
X131860500Y-131756412D01*
X131875781Y-131892041D01*
X131875782Y-131892046D01*
X131908323Y-131985041D01*
X131935957Y-132064015D01*
X132032889Y-132218281D01*
X132161719Y-132347111D01*
X132245877Y-132399991D01*
X132292168Y-132452326D01*
X132297744Y-132486192D01*
X132969000Y-133157447D01*
X132969001Y-133157447D01*
X133640667Y-132485779D01*
X133646925Y-132450051D01*
X133692117Y-132399994D01*
X133776281Y-132347111D01*
X133905111Y-132218281D01*
X134002043Y-132064015D01*
X134062217Y-131892047D01*
X134067022Y-131849406D01*
X134077499Y-131756412D01*
X134077500Y-131756408D01*
X134077500Y-131065591D01*
X134077499Y-131065587D01*
X134062218Y-130929958D01*
X134062217Y-130929953D01*
X134034584Y-130850982D01*
X134002043Y-130757985D01*
X133905111Y-130603719D01*
X133776281Y-130474889D01*
X133668151Y-130406946D01*
X133622017Y-130377958D01*
X133622016Y-130377957D01*
X133622015Y-130377957D01*
X133561920Y-130356929D01*
X133450046Y-130317782D01*
X133450041Y-130317781D01*
X133314412Y-130302500D01*
X133314406Y-130302500D01*
X132810595Y-130302500D01*
X132743556Y-130282815D01*
X132722914Y-130266181D01*
X132497819Y-130041086D01*
X132464334Y-129979763D01*
X132461500Y-129953405D01*
X132461500Y-126928553D01*
X132481185Y-126861514D01*
X132533989Y-126815759D01*
X132603147Y-126805815D01*
X132666703Y-126834840D01*
X132676729Y-126844570D01*
X132807756Y-126986902D01*
X132807761Y-126986907D01*
X132857160Y-127025356D01*
X132985424Y-127125189D01*
X132985425Y-127125189D01*
X132985427Y-127125191D01*
X133094949Y-127184461D01*
X133183426Y-127232342D01*
X133396365Y-127305444D01*
X133618431Y-127342500D01*
X133843569Y-127342500D01*
X134065635Y-127305444D01*
X134278574Y-127232342D01*
X134476576Y-127125189D01*
X134654240Y-126986906D01*
X134769673Y-126861514D01*
X134806715Y-126821276D01*
X134806716Y-126821274D01*
X134806722Y-126821268D01*
X134929860Y-126632791D01*
X135020296Y-126426616D01*
X135075564Y-126208368D01*
X135094156Y-125984000D01*
X135075564Y-125759632D01*
X135020296Y-125541384D01*
X134929860Y-125335209D01*
X134920406Y-125320739D01*
X134815011Y-125159420D01*
X134806722Y-125146732D01*
X134806719Y-125146729D01*
X134806715Y-125146723D01*
X134654243Y-124981097D01*
X134654238Y-124981092D01*
X134476577Y-124842812D01*
X134476578Y-124842812D01*
X134476576Y-124842811D01*
X134440070Y-124823055D01*
X134390479Y-124773836D01*
X134375371Y-124705619D01*
X134399541Y-124640064D01*
X134440070Y-124604945D01*
X134440084Y-124604936D01*
X134476576Y-124585189D01*
X134654240Y-124446906D01*
X134770386Y-124320739D01*
X134806715Y-124281276D01*
X134806716Y-124281274D01*
X134806722Y-124281268D01*
X134885470Y-124160735D01*
X134901841Y-124135678D01*
X134954987Y-124090322D01*
X135005649Y-124079500D01*
X139646094Y-124079500D01*
X139713133Y-124099185D01*
X139752211Y-124139350D01*
X139764181Y-124159151D01*
X139764182Y-124159152D01*
X139764184Y-124159155D01*
X139885845Y-124280816D01*
X140033087Y-124369827D01*
X140197351Y-124421013D01*
X140268735Y-124427500D01*
X140783264Y-124427499D01*
X140783272Y-124427499D01*
X140854645Y-124421014D01*
X140854648Y-124421013D01*
X140854649Y-124421013D01*
X141018913Y-124369827D01*
X141166155Y-124280816D01*
X141263320Y-124183650D01*
X141324641Y-124150167D01*
X141394333Y-124155151D01*
X141438681Y-124183652D01*
X141504181Y-124249152D01*
X141537666Y-124310475D01*
X141540500Y-124336833D01*
X141540500Y-127003405D01*
X141520815Y-127070444D01*
X141504181Y-127091086D01*
X139854086Y-128741181D01*
X139792763Y-128774666D01*
X139766405Y-128777500D01*
X136481847Y-128777500D01*
X136466067Y-128775758D01*
X136466042Y-128776026D01*
X136458281Y-128775292D01*
X136388015Y-128777500D01*
X136358013Y-128777500D01*
X136350973Y-128778388D01*
X136345160Y-128778845D01*
X136297800Y-128780334D01*
X136297794Y-128780335D01*
X136278093Y-128786058D01*
X136259054Y-128790000D01*
X136238711Y-128792571D01*
X136238703Y-128792572D01*
X136238701Y-128792573D01*
X136238699Y-128792573D01*
X136238693Y-128792575D01*
X136194645Y-128810014D01*
X136189122Y-128811905D01*
X136143609Y-128825130D01*
X136143607Y-128825130D01*
X136143607Y-128825131D01*
X136125948Y-128835573D01*
X136108483Y-128844129D01*
X136089415Y-128851678D01*
X136089411Y-128851681D01*
X136051072Y-128879534D01*
X136046192Y-128882740D01*
X136005400Y-128906865D01*
X135990898Y-128921368D01*
X135976108Y-128934000D01*
X135959515Y-128946055D01*
X135959512Y-128946058D01*
X135929301Y-128982576D01*
X135925369Y-128986897D01*
X134737921Y-130174344D01*
X134725531Y-130184272D01*
X134725702Y-130184479D01*
X134719696Y-130189447D01*
X134702539Y-130207718D01*
X134671573Y-130240693D01*
X134664503Y-130247763D01*
X134650365Y-130261900D01*
X134650363Y-130261902D01*
X134646008Y-130267516D01*
X134642218Y-130271953D01*
X134609782Y-130306494D01*
X134609781Y-130306496D01*
X134599900Y-130324468D01*
X134589225Y-130340719D01*
X134576652Y-130356929D01*
X134576649Y-130356933D01*
X134557827Y-130400428D01*
X134555257Y-130405674D01*
X134532430Y-130447197D01*
X134527329Y-130467064D01*
X134521030Y-130485462D01*
X134512884Y-130504287D01*
X134512881Y-130504296D01*
X134505469Y-130551098D01*
X134504284Y-130556820D01*
X134492500Y-130602711D01*
X134492500Y-130623225D01*
X134490973Y-130642624D01*
X134488126Y-130660602D01*
X134487765Y-130662879D01*
X134490964Y-130696718D01*
X134492225Y-130710059D01*
X134492500Y-130715897D01*
X134492500Y-133289405D01*
X134472815Y-133356444D01*
X134456181Y-133377086D01*
X134280681Y-133552586D01*
X134219358Y-133586071D01*
X134149666Y-133581087D01*
X134093733Y-133539215D01*
X134069316Y-133473751D01*
X134069000Y-133464905D01*
X134069000Y-133166070D01*
X134068999Y-133166069D01*
X134053877Y-133031858D01*
X133994337Y-132861701D01*
X133994335Y-132861697D01*
X133985660Y-132847891D01*
X133056680Y-133776871D01*
X132995357Y-133810356D01*
X132925665Y-133805372D01*
X132881318Y-133776871D01*
X131952338Y-132847890D01*
X131952338Y-132847891D01*
X131943665Y-132861695D01*
X131884121Y-133031859D01*
X131869000Y-133166069D01*
X131869000Y-133855930D01*
X131884122Y-133990141D01*
X131943663Y-134160301D01*
X132033030Y-134302528D01*
X132052030Y-134369765D01*
X132031662Y-134436600D01*
X131978394Y-134481814D01*
X131928036Y-134492500D01*
X122234595Y-134492500D01*
X122167556Y-134472815D01*
X122146914Y-134456181D01*
X121540819Y-133850086D01*
X121507334Y-133788763D01*
X121504500Y-133762405D01*
X121504500Y-133258591D01*
X121504499Y-133258587D01*
X121489218Y-133122958D01*
X121489217Y-133122953D01*
X121461087Y-133042562D01*
X121429043Y-132950985D01*
X121332111Y-132796719D01*
X121203281Y-132667889D01*
X121203278Y-132667886D01*
X121189125Y-132658994D01*
X121142833Y-132606660D01*
X121132184Y-132537606D01*
X121160559Y-132473758D01*
X121189125Y-132449006D01*
X121203278Y-132440113D01*
X121203278Y-132440112D01*
X121203281Y-132440111D01*
X121332111Y-132311281D01*
X121429043Y-132157015D01*
X121489217Y-131985047D01*
X121504500Y-131849406D01*
X121504500Y-131158594D01*
X121499515Y-131114357D01*
X121489218Y-131022958D01*
X121489217Y-131022953D01*
X121462371Y-130946232D01*
X121429043Y-130850985D01*
X121332111Y-130696719D01*
X121203281Y-130567889D01*
X121102067Y-130504292D01*
X121049017Y-130470958D01*
X121049016Y-130470957D01*
X121049015Y-130470957D01*
X120981113Y-130447197D01*
X120877046Y-130410782D01*
X120877041Y-130410781D01*
X120741412Y-130395500D01*
X120741406Y-130395500D01*
X120507003Y-130395500D01*
X120439964Y-130375815D01*
X120419322Y-130359181D01*
X119353319Y-129293178D01*
X119319834Y-129231855D01*
X119317000Y-129205497D01*
X119317000Y-127251500D01*
X119336685Y-127184461D01*
X119389489Y-127138706D01*
X119441000Y-127127500D01*
X121130150Y-127127500D01*
X121133013Y-127127566D01*
X121143323Y-127128042D01*
X121211037Y-127131173D01*
X121288427Y-127120377D01*
X121291220Y-127120053D01*
X121369018Y-127112845D01*
X121390455Y-127106745D01*
X121398836Y-127104977D01*
X121420927Y-127101896D01*
X121495023Y-127077060D01*
X121497685Y-127076235D01*
X121572850Y-127054850D01*
X121592810Y-127044910D01*
X121600716Y-127041635D01*
X121621862Y-127034549D01*
X121690095Y-126996542D01*
X121692631Y-126995205D01*
X121762554Y-126960389D01*
X121780346Y-126946951D01*
X121787532Y-126942269D01*
X121807002Y-126931426D01*
X121867111Y-126881510D01*
X121869309Y-126879769D01*
X121931671Y-126832677D01*
X121968297Y-126792500D01*
X121984304Y-126774941D01*
X121986260Y-126772891D01*
X123089891Y-125669260D01*
X123091941Y-125667304D01*
X123114796Y-125646468D01*
X123149677Y-125614671D01*
X123196769Y-125552309D01*
X123198517Y-125550104D01*
X123248426Y-125490002D01*
X123259272Y-125470526D01*
X123263958Y-125463337D01*
X123277389Y-125445554D01*
X123312244Y-125375553D01*
X123313515Y-125373143D01*
X123351548Y-125304862D01*
X123358629Y-125283731D01*
X123361914Y-125275801D01*
X123371850Y-125255850D01*
X123393237Y-125180678D01*
X123394057Y-125178028D01*
X123418895Y-125103927D01*
X123421974Y-125081850D01*
X123423747Y-125073449D01*
X123429844Y-125052020D01*
X123429845Y-125052018D01*
X123437053Y-124974214D01*
X123437376Y-124971428D01*
X123448173Y-124894037D01*
X123444566Y-124816012D01*
X123444500Y-124813149D01*
X123444500Y-122944441D01*
X123464185Y-122877402D01*
X123464624Y-122876721D01*
X123467184Y-122872803D01*
X123520323Y-122827443D01*
X123589553Y-122818011D01*
X123652893Y-122847505D01*
X123674807Y-122872793D01*
X123765276Y-123011265D01*
X123765284Y-123011276D01*
X123917756Y-123176902D01*
X123917760Y-123176906D01*
X124095424Y-123315189D01*
X124095425Y-123315189D01*
X124095427Y-123315191D01*
X124155314Y-123347600D01*
X124293426Y-123422342D01*
X124506365Y-123495444D01*
X124728431Y-123532500D01*
X124953569Y-123532500D01*
X125175635Y-123495444D01*
X125388574Y-123422342D01*
X125586576Y-123315189D01*
X125764240Y-123176906D01*
X125916722Y-123011268D01*
X126007193Y-122872790D01*
X126060338Y-122827437D01*
X126129569Y-122818013D01*
X126192905Y-122847515D01*
X126214804Y-122872787D01*
X126305278Y-123011268D01*
X126305283Y-123011273D01*
X126305284Y-123011276D01*
X126457756Y-123176902D01*
X126457760Y-123176906D01*
X126635424Y-123315189D01*
X126635425Y-123315189D01*
X126635427Y-123315191D01*
X126695314Y-123347600D01*
X126833426Y-123422342D01*
X127046365Y-123495444D01*
X127268431Y-123532500D01*
X127493569Y-123532500D01*
X127715635Y-123495444D01*
X127928574Y-123422342D01*
X128126576Y-123315189D01*
X128304240Y-123176906D01*
X128456722Y-123011268D01*
X128550749Y-122867347D01*
X128603894Y-122821994D01*
X128673125Y-122812570D01*
X128736461Y-122842072D01*
X128756131Y-122864049D01*
X128806072Y-122935373D01*
X128806073Y-122935373D01*
X129437923Y-122303523D01*
X129461507Y-122383844D01*
G37*
%TD.AperFunction*%
%TA.AperFunction,Conductor*%
G36*
X96727785Y-102154868D02*
G01*
X96783719Y-102196739D01*
X96790925Y-102216060D01*
X96811875Y-102239000D01*
X98837000Y-102239000D01*
X98904039Y-102258685D01*
X98949794Y-102311489D01*
X98961000Y-102363000D01*
X98961000Y-103885000D01*
X98941315Y-103952039D01*
X98888511Y-103997794D01*
X98837000Y-104009000D01*
X96811877Y-104009000D01*
X96817271Y-104068379D01*
X96817272Y-104068384D01*
X96866760Y-104227196D01*
X96923849Y-104321633D01*
X96941685Y-104389188D01*
X96923850Y-104449932D01*
X96858952Y-104557288D01*
X96808848Y-104718078D01*
X96802500Y-104787946D01*
X96802500Y-105270064D01*
X96808847Y-105339920D01*
X96808849Y-105339928D01*
X96858951Y-105500711D01*
X96858952Y-105500713D01*
X96923849Y-105608067D01*
X96941685Y-105675622D01*
X96923849Y-105736365D01*
X96866761Y-105830800D01*
X96866759Y-105830804D01*
X96817272Y-105989616D01*
X96811876Y-106049000D01*
X98837000Y-106049000D01*
X98904039Y-106068685D01*
X98949794Y-106121489D01*
X98961000Y-106173000D01*
X98961000Y-107168999D01*
X99981369Y-107168999D01*
X100050375Y-107162729D01*
X100050382Y-107162727D01*
X100209195Y-107113240D01*
X100351558Y-107027178D01*
X100469178Y-106909558D01*
X100555238Y-106767197D01*
X100588161Y-106661543D01*
X100626898Y-106603395D01*
X100690923Y-106575420D01*
X100759909Y-106586501D01*
X100811952Y-106633119D01*
X100824932Y-106661541D01*
X100858951Y-106770710D01*
X100858952Y-106770713D01*
X100946075Y-106914833D01*
X100946078Y-106914837D01*
X101065162Y-107033921D01*
X101065166Y-107033924D01*
X101181794Y-107104427D01*
X101209288Y-107121048D01*
X101370075Y-107171151D01*
X101439943Y-107177500D01*
X103982056Y-107177499D01*
X103982063Y-107177499D01*
X104051920Y-107171152D01*
X104051923Y-107171151D01*
X104051925Y-107171151D01*
X104212712Y-107121048D01*
X104356836Y-107033922D01*
X104419940Y-106970817D01*
X104481261Y-106937334D01*
X104507620Y-106934500D01*
X106974413Y-106934500D01*
X107041452Y-106954185D01*
X107087207Y-107006989D01*
X107097151Y-107076147D01*
X107068703Y-107139030D01*
X107048465Y-107162727D01*
X106990774Y-107230273D01*
X106990773Y-107230276D01*
X106854951Y-107451915D01*
X106755472Y-107692080D01*
X106694789Y-107944846D01*
X106674393Y-108204000D01*
X106694789Y-108463153D01*
X106755472Y-108715919D01*
X106854951Y-108956084D01*
X106990773Y-109177723D01*
X106990774Y-109177726D01*
X107015693Y-109206902D01*
X107159602Y-109375398D01*
X107300409Y-109495658D01*
X107357273Y-109544225D01*
X107357276Y-109544226D01*
X107578915Y-109680048D01*
X107782176Y-109764241D01*
X107819080Y-109779527D01*
X108071850Y-109840211D01*
X108331000Y-109860607D01*
X108590150Y-109840211D01*
X108842920Y-109779527D01*
X109083084Y-109680048D01*
X109304729Y-109544223D01*
X109502398Y-109375398D01*
X109671223Y-109177729D01*
X109725468Y-109089210D01*
X109777279Y-109042335D01*
X109831195Y-109030000D01*
X117350514Y-109030000D01*
X117417553Y-109049685D01*
X117441743Y-109070017D01*
X117567756Y-109206902D01*
X117567760Y-109206906D01*
X117745424Y-109345189D01*
X117745429Y-109345191D01*
X117745431Y-109345193D01*
X117781930Y-109364946D01*
X117831520Y-109414165D01*
X117846628Y-109482382D01*
X117822457Y-109547937D01*
X117781930Y-109583054D01*
X117745431Y-109602806D01*
X117745422Y-109602812D01*
X117567761Y-109741092D01*
X117567756Y-109741097D01*
X117415284Y-109906723D01*
X117415276Y-109906734D01*
X117292140Y-110095207D01*
X117201703Y-110301385D01*
X117146436Y-110519628D01*
X117146434Y-110519640D01*
X117127844Y-110743994D01*
X117127844Y-110744005D01*
X117146434Y-110968359D01*
X117146436Y-110968371D01*
X117201703Y-111186614D01*
X117292140Y-111392792D01*
X117415276Y-111581265D01*
X117415284Y-111581276D01*
X117540900Y-111717729D01*
X117567760Y-111746906D01*
X117745424Y-111885189D01*
X117745429Y-111885191D01*
X117745431Y-111885193D01*
X117781930Y-111904946D01*
X117831520Y-111954165D01*
X117846628Y-112022382D01*
X117822457Y-112087937D01*
X117781930Y-112123054D01*
X117745431Y-112142806D01*
X117745422Y-112142812D01*
X117567761Y-112281092D01*
X117567756Y-112281097D01*
X117415284Y-112446723D01*
X117415276Y-112446734D01*
X117292140Y-112635207D01*
X117201703Y-112841385D01*
X117146436Y-113059628D01*
X117146434Y-113059640D01*
X117127844Y-113283994D01*
X117127844Y-113284005D01*
X117146434Y-113508359D01*
X117146436Y-113508371D01*
X117201703Y-113726614D01*
X117292140Y-113932792D01*
X117415276Y-114121265D01*
X117415284Y-114121276D01*
X117567756Y-114286902D01*
X117567760Y-114286906D01*
X117745424Y-114425189D01*
X117745429Y-114425191D01*
X117745431Y-114425193D01*
X117781930Y-114444946D01*
X117831520Y-114494165D01*
X117846628Y-114562382D01*
X117822457Y-114627937D01*
X117781930Y-114663054D01*
X117745431Y-114682806D01*
X117745422Y-114682812D01*
X117567761Y-114821092D01*
X117567756Y-114821097D01*
X117415284Y-114986723D01*
X117415276Y-114986734D01*
X117292140Y-115175207D01*
X117201703Y-115381385D01*
X117146436Y-115599628D01*
X117146434Y-115599640D01*
X117127844Y-115823994D01*
X117127844Y-115824005D01*
X117146434Y-116048359D01*
X117146436Y-116048371D01*
X117201703Y-116266614D01*
X117292140Y-116472792D01*
X117415276Y-116661265D01*
X117415284Y-116661276D01*
X117567756Y-116826902D01*
X117567760Y-116826906D01*
X117745424Y-116965189D01*
X117745429Y-116965191D01*
X117745431Y-116965193D01*
X117781930Y-116984946D01*
X117831520Y-117034165D01*
X117846628Y-117102382D01*
X117822457Y-117167937D01*
X117781930Y-117203054D01*
X117745431Y-117222806D01*
X117745422Y-117222812D01*
X117567761Y-117361092D01*
X117567756Y-117361097D01*
X117415284Y-117526723D01*
X117415276Y-117526734D01*
X117292140Y-117715207D01*
X117201703Y-117921385D01*
X117146436Y-118139628D01*
X117146434Y-118139640D01*
X117127844Y-118363994D01*
X117127844Y-118364005D01*
X117146434Y-118588359D01*
X117146436Y-118588371D01*
X117201703Y-118806614D01*
X117292140Y-119012792D01*
X117415276Y-119201265D01*
X117415284Y-119201276D01*
X117549894Y-119347499D01*
X117567760Y-119366906D01*
X117745424Y-119505189D01*
X117745429Y-119505191D01*
X117745431Y-119505193D01*
X117781930Y-119524946D01*
X117831520Y-119574165D01*
X117846628Y-119642382D01*
X117822457Y-119707937D01*
X117781930Y-119743054D01*
X117745431Y-119762806D01*
X117745422Y-119762812D01*
X117567761Y-119901092D01*
X117567756Y-119901097D01*
X117415284Y-120066723D01*
X117415276Y-120066734D01*
X117292140Y-120255207D01*
X117201703Y-120461385D01*
X117146436Y-120679628D01*
X117146434Y-120679640D01*
X117127844Y-120903994D01*
X117127844Y-120904005D01*
X117146434Y-121128359D01*
X117146436Y-121128371D01*
X117201703Y-121346614D01*
X117292140Y-121552792D01*
X117415276Y-121741265D01*
X117415284Y-121741276D01*
X117549894Y-121887499D01*
X117567760Y-121906906D01*
X117745424Y-122045189D01*
X117764302Y-122055405D01*
X117788695Y-122068606D01*
X117838286Y-122117825D01*
X117853394Y-122186042D01*
X117829224Y-122251597D01*
X117800801Y-122279236D01*
X117729626Y-122329072D01*
X117729625Y-122329072D01*
X118358466Y-122957913D01*
X118348685Y-122959320D01*
X118217900Y-123019048D01*
X118109239Y-123113202D01*
X118031507Y-123234156D01*
X118007923Y-123314476D01*
X117376072Y-122682625D01*
X117317401Y-122766419D01*
X117217570Y-122980507D01*
X117217566Y-122980516D01*
X117156432Y-123208673D01*
X117156430Y-123208684D01*
X117135843Y-123443998D01*
X117135843Y-123444001D01*
X117156430Y-123679315D01*
X117156432Y-123679326D01*
X117217566Y-123907483D01*
X117217570Y-123907492D01*
X117317400Y-124121579D01*
X117317402Y-124121583D01*
X117376072Y-124205373D01*
X117376073Y-124205373D01*
X118007923Y-123573523D01*
X118031507Y-123653844D01*
X118109239Y-123774798D01*
X118217900Y-123868952D01*
X118348685Y-123928680D01*
X118358466Y-123930086D01*
X117729625Y-124558925D01*
X117800801Y-124608763D01*
X117844426Y-124663340D01*
X117851620Y-124732838D01*
X117820097Y-124795193D01*
X117788697Y-124819392D01*
X117745427Y-124842809D01*
X117745422Y-124842812D01*
X117567761Y-124981092D01*
X117567756Y-124981097D01*
X117441743Y-125117983D01*
X117381856Y-125153974D01*
X117350514Y-125158000D01*
X114947502Y-125158000D01*
X114880463Y-125138315D01*
X114859821Y-125121681D01*
X114533333Y-124795193D01*
X114163587Y-124425446D01*
X114160184Y-124421754D01*
X114125389Y-124380790D01*
X114062777Y-124333194D01*
X114001483Y-124283924D01*
X113998607Y-124282086D01*
X113985278Y-124273818D01*
X113982355Y-124272059D01*
X113932838Y-124249151D01*
X113910973Y-124239035D01*
X113840522Y-124204095D01*
X113840518Y-124204094D01*
X113840512Y-124204091D01*
X113837399Y-124202947D01*
X113822475Y-124197692D01*
X113819298Y-124196622D01*
X113742494Y-124179716D01*
X113666162Y-124160733D01*
X113662941Y-124160294D01*
X113647115Y-124158356D01*
X113643836Y-124158000D01*
X113643833Y-124158000D01*
X113565200Y-124158000D01*
X113486562Y-124155869D01*
X113483206Y-124156143D01*
X113463678Y-124158000D01*
X110036207Y-124158000D01*
X109902391Y-124172553D01*
X109902180Y-124172600D01*
X109875519Y-124175500D01*
X109157345Y-124175500D01*
X109096797Y-124182011D01*
X109096795Y-124182011D01*
X108959795Y-124233111D01*
X108842739Y-124320739D01*
X108755111Y-124437795D01*
X108704011Y-124574795D01*
X108704011Y-124574797D01*
X108697500Y-124635345D01*
X108697500Y-125051500D01*
X108677815Y-125118539D01*
X108625011Y-125164294D01*
X108573500Y-125175500D01*
X107407345Y-125175500D01*
X107346797Y-125182011D01*
X107346795Y-125182011D01*
X107209795Y-125233111D01*
X107179420Y-125255850D01*
X107092739Y-125320739D01*
X107092737Y-125320740D01*
X107088695Y-125323767D01*
X107023231Y-125348184D01*
X107014384Y-125348500D01*
X104708595Y-125348500D01*
X104641556Y-125328815D01*
X104620914Y-125312181D01*
X103382819Y-124074086D01*
X103349334Y-124012763D01*
X103346500Y-123986405D01*
X103346500Y-119366499D01*
X103366185Y-119299460D01*
X103418989Y-119253705D01*
X103470500Y-119242499D01*
X103982063Y-119242499D01*
X104051920Y-119236152D01*
X104051923Y-119236151D01*
X104051925Y-119236151D01*
X104212712Y-119186048D01*
X104356836Y-119098922D01*
X104475922Y-118979836D01*
X104563048Y-118835712D01*
X104613151Y-118674925D01*
X104619500Y-118605057D01*
X104619499Y-118122944D01*
X104619499Y-118122943D01*
X104619499Y-118122935D01*
X104613152Y-118053079D01*
X104613150Y-118053071D01*
X104563048Y-117892288D01*
X104563047Y-117892286D01*
X104498150Y-117784932D01*
X104480314Y-117717378D01*
X104498150Y-117656633D01*
X104555240Y-117562194D01*
X104604727Y-117403383D01*
X104610124Y-117344000D01*
X102585000Y-117344000D01*
X102517961Y-117324315D01*
X102472206Y-117271511D01*
X102461000Y-117220000D01*
X102461000Y-116074000D01*
X102961000Y-116074000D01*
X102961000Y-116844000D01*
X104610123Y-116844000D01*
X104604728Y-116784620D01*
X104604727Y-116784615D01*
X104555239Y-116625804D01*
X104493183Y-116523150D01*
X104475347Y-116455595D01*
X104493183Y-116394850D01*
X104555240Y-116292195D01*
X104604727Y-116133383D01*
X104610124Y-116074000D01*
X102961000Y-116074000D01*
X102461000Y-116074000D01*
X102461000Y-115698000D01*
X102480685Y-115630961D01*
X102533489Y-115585206D01*
X102585000Y-115574000D01*
X104610123Y-115574000D01*
X104604728Y-115514620D01*
X104604727Y-115514615D01*
X104555239Y-115355804D01*
X104498150Y-115261366D01*
X104480314Y-115193811D01*
X104498150Y-115133066D01*
X104506790Y-115118774D01*
X104563048Y-115025712D01*
X104613151Y-114864925D01*
X104619500Y-114795057D01*
X104619499Y-114312944D01*
X104619499Y-114312943D01*
X104619499Y-114312935D01*
X104613152Y-114243079D01*
X104613150Y-114243071D01*
X104563048Y-114082288D01*
X104563047Y-114082286D01*
X104498150Y-113974932D01*
X104480314Y-113907378D01*
X104498150Y-113846633D01*
X104555240Y-113752194D01*
X104604727Y-113593383D01*
X104610124Y-113534000D01*
X102585000Y-113534000D01*
X102517961Y-113514315D01*
X102472206Y-113461511D01*
X102461000Y-113410000D01*
X102461000Y-112414000D01*
X102961000Y-112414000D01*
X102961000Y-113034000D01*
X104610123Y-113034000D01*
X104604728Y-112974620D01*
X104604727Y-112974615D01*
X104555239Y-112815804D01*
X104469178Y-112673441D01*
X104351558Y-112555821D01*
X104209194Y-112469759D01*
X104209195Y-112469759D01*
X104050382Y-112420272D01*
X104050384Y-112420272D01*
X103981360Y-112414000D01*
X102961000Y-112414000D01*
X102461000Y-112414000D01*
X101440629Y-112414000D01*
X101371624Y-112420270D01*
X101371617Y-112420272D01*
X101212804Y-112469759D01*
X101070441Y-112555821D01*
X100952821Y-112673441D01*
X100866759Y-112815805D01*
X100833837Y-112921457D01*
X100795100Y-112979605D01*
X100731074Y-113007579D01*
X100662089Y-112996497D01*
X100610046Y-112949879D01*
X100597067Y-112921457D01*
X100563049Y-112812290D01*
X100563047Y-112812286D01*
X100475924Y-112668166D01*
X100475921Y-112668162D01*
X100356837Y-112549078D01*
X100356833Y-112549075D01*
X100212714Y-112461953D01*
X100212713Y-112461952D01*
X100212712Y-112461952D01*
X100051925Y-112411849D01*
X100051923Y-112411848D01*
X100051921Y-112411848D01*
X100003004Y-112407403D01*
X99982057Y-112405500D01*
X99982054Y-112405500D01*
X97439935Y-112405500D01*
X97370079Y-112411847D01*
X97370071Y-112411849D01*
X97209288Y-112461951D01*
X97209286Y-112461952D01*
X97065169Y-112549073D01*
X97065163Y-112549078D01*
X97045938Y-112568303D01*
X96984615Y-112601787D01*
X96917306Y-112597662D01*
X96812058Y-112560834D01*
X96812057Y-112560833D01*
X96812052Y-112560832D01*
X96647003Y-112542236D01*
X96646997Y-112542236D01*
X96481947Y-112560832D01*
X96393354Y-112591832D01*
X96323575Y-112595393D01*
X96262948Y-112560664D01*
X96230721Y-112498670D01*
X96228400Y-112474790D01*
X96228400Y-106549000D01*
X96811877Y-106549000D01*
X96817271Y-106608379D01*
X96817272Y-106608384D01*
X96866760Y-106767195D01*
X96952821Y-106909558D01*
X97070441Y-107027178D01*
X97212805Y-107113240D01*
X97212804Y-107113240D01*
X97371617Y-107162727D01*
X97371615Y-107162727D01*
X97440639Y-107168999D01*
X98460999Y-107168999D01*
X98461000Y-107168998D01*
X98461000Y-106549000D01*
X96811877Y-106549000D01*
X96228400Y-106549000D01*
X96228400Y-103509000D01*
X96811876Y-103509000D01*
X98461000Y-103509000D01*
X98461000Y-102739000D01*
X96811877Y-102739000D01*
X96817271Y-102798379D01*
X96817272Y-102798384D01*
X96866760Y-102957197D01*
X96866761Y-102957199D01*
X96928816Y-103059851D01*
X96946652Y-103127405D01*
X96928816Y-103188149D01*
X96866761Y-103290800D01*
X96866759Y-103290804D01*
X96817272Y-103449616D01*
X96811876Y-103509000D01*
X96228400Y-103509000D01*
X96228400Y-102603103D01*
X96248085Y-102536064D01*
X96264719Y-102515422D01*
X96428136Y-102352005D01*
X96596773Y-102183367D01*
X96658094Y-102149884D01*
X96727785Y-102154868D01*
G37*
%TD.AperFunction*%
%TA.AperFunction,Conductor*%
G36*
X127211798Y-107588504D02*
G01*
X127216323Y-107591347D01*
X127233761Y-107602304D01*
X127390542Y-107657164D01*
X127390545Y-107657164D01*
X127390547Y-107657165D01*
X127555597Y-107675762D01*
X127555600Y-107675762D01*
X127555602Y-107675762D01*
X127671216Y-107662735D01*
X127740038Y-107674789D01*
X127791417Y-107722138D01*
X127809100Y-107785955D01*
X127809100Y-114997384D01*
X127789415Y-115064423D01*
X127772781Y-115085065D01*
X122041175Y-120816670D01*
X121979852Y-120850155D01*
X121973922Y-120851294D01*
X121970460Y-120851872D01*
X121966357Y-120852557D01*
X121753430Y-120925656D01*
X121753419Y-120925661D01*
X121555427Y-121032808D01*
X121555422Y-121032812D01*
X121377761Y-121171092D01*
X121377756Y-121171097D01*
X121225284Y-121336723D01*
X121225276Y-121336734D01*
X121102140Y-121525207D01*
X121011703Y-121731385D01*
X120956436Y-121949628D01*
X120956434Y-121949640D01*
X120937844Y-122173994D01*
X120937844Y-122174005D01*
X120956434Y-122398359D01*
X120956436Y-122398371D01*
X121011703Y-122616614D01*
X121102138Y-122822789D01*
X121105175Y-122827437D01*
X121137308Y-122876620D01*
X121157496Y-122943508D01*
X121157500Y-122944441D01*
X121157500Y-124315985D01*
X121137815Y-124383024D01*
X121121181Y-124403666D01*
X120720666Y-124804181D01*
X120659343Y-124837666D01*
X120632985Y-124840500D01*
X119263707Y-124840500D01*
X119204688Y-124825554D01*
X119193302Y-124819392D01*
X119143712Y-124770172D01*
X119128605Y-124701955D01*
X119152776Y-124636400D01*
X119181198Y-124608763D01*
X119252373Y-124558925D01*
X118623533Y-123930086D01*
X118633315Y-123928680D01*
X118764100Y-123868952D01*
X118872761Y-123774798D01*
X118950493Y-123653844D01*
X118974076Y-123573524D01*
X119605925Y-124205373D01*
X119605926Y-124205373D01*
X119664598Y-124121582D01*
X119664600Y-124121578D01*
X119764429Y-123907492D01*
X119764433Y-123907483D01*
X119825567Y-123679326D01*
X119825569Y-123679315D01*
X119846157Y-123444001D01*
X119846157Y-123443998D01*
X119825569Y-123208684D01*
X119825567Y-123208673D01*
X119764433Y-122980516D01*
X119764429Y-122980507D01*
X119664600Y-122766423D01*
X119664599Y-122766421D01*
X119605925Y-122682626D01*
X119605925Y-122682625D01*
X118974076Y-123314475D01*
X118950493Y-123234156D01*
X118872761Y-123113202D01*
X118764100Y-123019048D01*
X118633315Y-122959320D01*
X118623533Y-122957913D01*
X119252373Y-122329073D01*
X119252373Y-122329072D01*
X119181199Y-122279236D01*
X119137574Y-122224659D01*
X119130380Y-122155161D01*
X119161903Y-122092806D01*
X119193305Y-122068606D01*
X119200070Y-122064945D01*
X119236576Y-122045189D01*
X119414240Y-121906906D01*
X119566722Y-121741268D01*
X119689860Y-121552791D01*
X119780296Y-121346616D01*
X119835564Y-121128368D01*
X119843482Y-121032812D01*
X119854156Y-120904005D01*
X119854156Y-120903994D01*
X119835565Y-120679640D01*
X119835563Y-120679628D01*
X119780296Y-120461385D01*
X119778194Y-120456594D01*
X119689860Y-120255209D01*
X119670679Y-120225851D01*
X119583288Y-120092088D01*
X119566722Y-120066732D01*
X119566719Y-120066729D01*
X119566715Y-120066723D01*
X119414243Y-119901097D01*
X119414238Y-119901092D01*
X119278037Y-119795082D01*
X119236576Y-119762811D01*
X119200070Y-119743055D01*
X119150479Y-119693836D01*
X119135371Y-119625619D01*
X119159541Y-119560064D01*
X119200070Y-119524945D01*
X119200084Y-119524936D01*
X119236576Y-119505189D01*
X119414240Y-119366906D01*
X119566722Y-119201268D01*
X119689860Y-119012791D01*
X119780296Y-118806616D01*
X119835564Y-118588368D01*
X119854156Y-118364000D01*
X119835564Y-118139632D01*
X119780296Y-117921384D01*
X119689860Y-117715209D01*
X119651590Y-117656633D01*
X119589890Y-117562194D01*
X119566722Y-117526732D01*
X119566719Y-117526729D01*
X119566715Y-117526723D01*
X119414243Y-117361097D01*
X119414238Y-117361092D01*
X119236577Y-117222812D01*
X119236578Y-117222812D01*
X119236576Y-117222811D01*
X119200070Y-117203055D01*
X119150479Y-117153836D01*
X119135371Y-117085619D01*
X119159541Y-117020064D01*
X119200070Y-116984945D01*
X119200084Y-116984936D01*
X119236576Y-116965189D01*
X119414240Y-116826906D01*
X119566722Y-116661268D01*
X119689860Y-116472791D01*
X119780296Y-116266616D01*
X119835564Y-116048368D01*
X119835565Y-116048359D01*
X119854156Y-115824005D01*
X119854156Y-115823994D01*
X119835565Y-115599640D01*
X119835563Y-115599628D01*
X119806604Y-115485271D01*
X119780296Y-115381384D01*
X119689860Y-115175209D01*
X119566722Y-114986732D01*
X119566719Y-114986729D01*
X119566715Y-114986723D01*
X119414243Y-114821097D01*
X119414238Y-114821092D01*
X119236577Y-114682812D01*
X119236578Y-114682812D01*
X119236576Y-114682811D01*
X119200070Y-114663055D01*
X119150479Y-114613836D01*
X119135371Y-114545619D01*
X119159541Y-114480064D01*
X119200070Y-114444945D01*
X119200084Y-114444936D01*
X119236576Y-114425189D01*
X119414240Y-114286906D01*
X119566722Y-114121268D01*
X119689860Y-113932791D01*
X119780296Y-113726616D01*
X119835564Y-113508368D01*
X119854156Y-113284000D01*
X119835564Y-113059632D01*
X119780296Y-112841384D01*
X119689860Y-112635209D01*
X119668024Y-112601787D01*
X119600655Y-112498670D01*
X119566722Y-112446732D01*
X119566719Y-112446729D01*
X119566715Y-112446723D01*
X119414243Y-112281097D01*
X119414238Y-112281092D01*
X119236577Y-112142812D01*
X119236578Y-112142812D01*
X119236576Y-112142811D01*
X119200070Y-112123055D01*
X119150479Y-112073836D01*
X119135371Y-112005619D01*
X119159541Y-111940064D01*
X119200070Y-111904945D01*
X119200084Y-111904936D01*
X119236576Y-111885189D01*
X119414240Y-111746906D01*
X119566722Y-111581268D01*
X119689860Y-111392791D01*
X119780296Y-111186616D01*
X119835564Y-110968368D01*
X119854156Y-110744000D01*
X119835564Y-110519632D01*
X119780296Y-110301384D01*
X119689860Y-110095209D01*
X119683417Y-110085348D01*
X119566723Y-109906734D01*
X119566715Y-109906723D01*
X119414243Y-109741097D01*
X119414238Y-109741092D01*
X119236577Y-109602812D01*
X119236578Y-109602812D01*
X119236576Y-109602811D01*
X119200070Y-109583055D01*
X119150479Y-109533836D01*
X119135371Y-109465619D01*
X119159541Y-109400064D01*
X119200070Y-109364945D01*
X119200084Y-109364936D01*
X119236576Y-109345189D01*
X119414240Y-109206906D01*
X119539671Y-109070653D01*
X119566715Y-109041276D01*
X119566716Y-109041274D01*
X119566722Y-109041268D01*
X119689860Y-108852791D01*
X119780296Y-108646616D01*
X119835564Y-108428368D01*
X119835565Y-108428359D01*
X119854156Y-108204005D01*
X119854156Y-108203994D01*
X119835565Y-107979640D01*
X119835563Y-107979628D01*
X119780296Y-107761385D01*
X119772367Y-107743308D01*
X119763464Y-107674007D01*
X119793442Y-107610895D01*
X119852781Y-107574009D01*
X119885923Y-107569498D01*
X127145826Y-107569498D01*
X127211798Y-107588504D01*
G37*
%TD.AperFunction*%
%TA.AperFunction,Conductor*%
G36*
X132421162Y-85833504D02*
G01*
X132477095Y-85875376D01*
X132491384Y-85899876D01*
X132532140Y-85992792D01*
X132655276Y-86181265D01*
X132655284Y-86181276D01*
X132807756Y-86346902D01*
X132807761Y-86346907D01*
X132866981Y-86393000D01*
X132985424Y-86485189D01*
X132985429Y-86485191D01*
X132985431Y-86485193D01*
X133021930Y-86504946D01*
X133071520Y-86554165D01*
X133086628Y-86622382D01*
X133062457Y-86687937D01*
X133021930Y-86723054D01*
X132985431Y-86742806D01*
X132985422Y-86742812D01*
X132807761Y-86881092D01*
X132807756Y-86881097D01*
X132655284Y-87046723D01*
X132655276Y-87046734D01*
X132532140Y-87235207D01*
X132441703Y-87441385D01*
X132386436Y-87659628D01*
X132386434Y-87659640D01*
X132367844Y-87883994D01*
X132367844Y-87884005D01*
X132386434Y-88108359D01*
X132386436Y-88108371D01*
X132441703Y-88326614D01*
X132532140Y-88532792D01*
X132655276Y-88721265D01*
X132655284Y-88721276D01*
X132780900Y-88857729D01*
X132807760Y-88886906D01*
X132985424Y-89025189D01*
X132985429Y-89025191D01*
X132985431Y-89025193D01*
X133021930Y-89044946D01*
X133071520Y-89094165D01*
X133086628Y-89162382D01*
X133062457Y-89227937D01*
X133021930Y-89263054D01*
X132985431Y-89282806D01*
X132985422Y-89282812D01*
X132807761Y-89421092D01*
X132807756Y-89421097D01*
X132655284Y-89586723D01*
X132655276Y-89586734D01*
X132532140Y-89775207D01*
X132441703Y-89981385D01*
X132386436Y-90199628D01*
X132386434Y-90199640D01*
X132367844Y-90423994D01*
X132367844Y-90424005D01*
X132386434Y-90648359D01*
X132386436Y-90648371D01*
X132441703Y-90866614D01*
X132532140Y-91072792D01*
X132655276Y-91261265D01*
X132655284Y-91261276D01*
X132807756Y-91426902D01*
X132807761Y-91426907D01*
X132866981Y-91473000D01*
X132985424Y-91565189D01*
X132985429Y-91565191D01*
X132985431Y-91565193D01*
X133021930Y-91584946D01*
X133071520Y-91634165D01*
X133086628Y-91702382D01*
X133062457Y-91767937D01*
X133021930Y-91803054D01*
X132985431Y-91822806D01*
X132985422Y-91822812D01*
X132807761Y-91961092D01*
X132807756Y-91961097D01*
X132655284Y-92126723D01*
X132655276Y-92126734D01*
X132532140Y-92315207D01*
X132441703Y-92521385D01*
X132386436Y-92739628D01*
X132386434Y-92739640D01*
X132367844Y-92963994D01*
X132367844Y-92964005D01*
X132386434Y-93188359D01*
X132386436Y-93188371D01*
X132441703Y-93406614D01*
X132532140Y-93612792D01*
X132655276Y-93801265D01*
X132655284Y-93801276D01*
X132780900Y-93937729D01*
X132807760Y-93966906D01*
X132985424Y-94105189D01*
X132985429Y-94105191D01*
X132985431Y-94105193D01*
X133021930Y-94124946D01*
X133071520Y-94174165D01*
X133086628Y-94242382D01*
X133062457Y-94307937D01*
X133021930Y-94343054D01*
X132985431Y-94362806D01*
X132985422Y-94362812D01*
X132807761Y-94501092D01*
X132807756Y-94501097D01*
X132655284Y-94666723D01*
X132655276Y-94666734D01*
X132532140Y-94855207D01*
X132441703Y-95061385D01*
X132386436Y-95279628D01*
X132386434Y-95279640D01*
X132367844Y-95503994D01*
X132367844Y-95504005D01*
X132386434Y-95728359D01*
X132386436Y-95728371D01*
X132441703Y-95946614D01*
X132532140Y-96152792D01*
X132655276Y-96341265D01*
X132655284Y-96341276D01*
X132807756Y-96506902D01*
X132807761Y-96506907D01*
X132866981Y-96553000D01*
X132985424Y-96645189D01*
X132985429Y-96645191D01*
X132985431Y-96645193D01*
X133021930Y-96664946D01*
X133071520Y-96714165D01*
X133086628Y-96782382D01*
X133062457Y-96847937D01*
X133021930Y-96883054D01*
X132985431Y-96902806D01*
X132985422Y-96902812D01*
X132807761Y-97041092D01*
X132807756Y-97041097D01*
X132655284Y-97206723D01*
X132655276Y-97206734D01*
X132532140Y-97395207D01*
X132441703Y-97601385D01*
X132386436Y-97819628D01*
X132386434Y-97819640D01*
X132367844Y-98043994D01*
X132367844Y-98044005D01*
X132386434Y-98268359D01*
X132386436Y-98268371D01*
X132441703Y-98486614D01*
X132532140Y-98692792D01*
X132655276Y-98881265D01*
X132655284Y-98881276D01*
X132807756Y-99046902D01*
X132807761Y-99046907D01*
X132852438Y-99081681D01*
X132985424Y-99185189D01*
X132985429Y-99185191D01*
X132985431Y-99185193D01*
X133021930Y-99204946D01*
X133071520Y-99254165D01*
X133086628Y-99322382D01*
X133062457Y-99387937D01*
X133021930Y-99423054D01*
X132985431Y-99442806D01*
X132985422Y-99442812D01*
X132807761Y-99581092D01*
X132807756Y-99581097D01*
X132655284Y-99746723D01*
X132655276Y-99746734D01*
X132532140Y-99935207D01*
X132441703Y-100141385D01*
X132386436Y-100359628D01*
X132386434Y-100359640D01*
X132367844Y-100583994D01*
X132367844Y-100584005D01*
X132386434Y-100808359D01*
X132386436Y-100808371D01*
X132441703Y-101026614D01*
X132532140Y-101232792D01*
X132655276Y-101421265D01*
X132655284Y-101421276D01*
X132807756Y-101586902D01*
X132807760Y-101586906D01*
X132985424Y-101725189D01*
X132985429Y-101725191D01*
X132985431Y-101725193D01*
X133021930Y-101744946D01*
X133071520Y-101794165D01*
X133086628Y-101862382D01*
X133062457Y-101927937D01*
X133021930Y-101963054D01*
X132985431Y-101982806D01*
X132985422Y-101982812D01*
X132807761Y-102121092D01*
X132807756Y-102121097D01*
X132655284Y-102286723D01*
X132655276Y-102286734D01*
X132532140Y-102475207D01*
X132441703Y-102681385D01*
X132386436Y-102899628D01*
X132386434Y-102899640D01*
X132367844Y-103123994D01*
X132367844Y-103124005D01*
X132386434Y-103348359D01*
X132386436Y-103348371D01*
X132441703Y-103566614D01*
X132441705Y-103566618D01*
X132511043Y-103724697D01*
X132519946Y-103793997D01*
X132489968Y-103857109D01*
X132460612Y-103881236D01*
X132449398Y-103887868D01*
X132434902Y-103902364D01*
X132420112Y-103914996D01*
X132403516Y-103927054D01*
X132403512Y-103927057D01*
X132373296Y-103963581D01*
X132369364Y-103967902D01*
X131435921Y-104901344D01*
X131423531Y-104911272D01*
X131423702Y-104911479D01*
X131417696Y-104916447D01*
X131408967Y-104925743D01*
X131369573Y-104967693D01*
X131362503Y-104974763D01*
X131348365Y-104988900D01*
X131348363Y-104988902D01*
X131344008Y-104994516D01*
X131340218Y-104998953D01*
X131307782Y-105033494D01*
X131307781Y-105033496D01*
X131297900Y-105051468D01*
X131287225Y-105067719D01*
X131274652Y-105083929D01*
X131274649Y-105083933D01*
X131255827Y-105127428D01*
X131253257Y-105132674D01*
X131230430Y-105174197D01*
X131225329Y-105194064D01*
X131219030Y-105212462D01*
X131210884Y-105231287D01*
X131210881Y-105231296D01*
X131203469Y-105278098D01*
X131202284Y-105283820D01*
X131190500Y-105329711D01*
X131190500Y-105350225D01*
X131188973Y-105369624D01*
X131185765Y-105389877D01*
X131190225Y-105437059D01*
X131190500Y-105442897D01*
X131190500Y-121290827D01*
X131170815Y-121357866D01*
X131118011Y-121403621D01*
X131055693Y-121414355D01*
X131035925Y-121412625D01*
X130404076Y-122044475D01*
X130380493Y-121964156D01*
X130302761Y-121843202D01*
X130194100Y-121749048D01*
X130063315Y-121689320D01*
X130053533Y-121687913D01*
X130682373Y-121059073D01*
X130682373Y-121059072D01*
X130598583Y-121000402D01*
X130598579Y-121000400D01*
X130384492Y-120900570D01*
X130384483Y-120900566D01*
X130156326Y-120839432D01*
X130156315Y-120839430D01*
X129921002Y-120818843D01*
X129920998Y-120818843D01*
X129685684Y-120839430D01*
X129685673Y-120839432D01*
X129457516Y-120900566D01*
X129457507Y-120900570D01*
X129243419Y-121000401D01*
X129159625Y-121059072D01*
X129788466Y-121687913D01*
X129778685Y-121689320D01*
X129647900Y-121749048D01*
X129539239Y-121843202D01*
X129461507Y-121964156D01*
X129437923Y-122044476D01*
X128806072Y-121412625D01*
X128806072Y-121412626D01*
X128756131Y-121483950D01*
X128701555Y-121527575D01*
X128632056Y-121534769D01*
X128569701Y-121503246D01*
X128550748Y-121480649D01*
X128492664Y-121391746D01*
X128456722Y-121336732D01*
X128456719Y-121336729D01*
X128456715Y-121336723D01*
X128304243Y-121171097D01*
X128304238Y-121171092D01*
X128126577Y-121032812D01*
X128126572Y-121032808D01*
X127928580Y-120925661D01*
X127928577Y-120925659D01*
X127928574Y-120925658D01*
X127928571Y-120925657D01*
X127928569Y-120925656D01*
X127715637Y-120852556D01*
X127493569Y-120815500D01*
X127268431Y-120815500D01*
X127046362Y-120852556D01*
X126833430Y-120925656D01*
X126833419Y-120925661D01*
X126635427Y-121032808D01*
X126635422Y-121032812D01*
X126457761Y-121171092D01*
X126457756Y-121171097D01*
X126305284Y-121336723D01*
X126305276Y-121336734D01*
X126214808Y-121475206D01*
X126161662Y-121520562D01*
X126092431Y-121529986D01*
X126029095Y-121500484D01*
X126007192Y-121475206D01*
X125949286Y-121386576D01*
X125916722Y-121336732D01*
X125916719Y-121336729D01*
X125916715Y-121336723D01*
X125764243Y-121171097D01*
X125764238Y-121171092D01*
X125586577Y-121032812D01*
X125586576Y-121032811D01*
X125390727Y-120926823D01*
X125341137Y-120877603D01*
X125326029Y-120809387D01*
X125350199Y-120743831D01*
X125362057Y-120730094D01*
X129741491Y-116350660D01*
X129743541Y-116348704D01*
X129784082Y-116311746D01*
X129801277Y-116296071D01*
X129848369Y-116233709D01*
X129850117Y-116231504D01*
X129900026Y-116171402D01*
X129910869Y-116151932D01*
X129915551Y-116144746D01*
X129928989Y-116126954D01*
X129963808Y-116057025D01*
X129965142Y-116054495D01*
X129968560Y-116048359D01*
X130003149Y-115986262D01*
X130010235Y-115965116D01*
X130013510Y-115957210D01*
X130023450Y-115937250D01*
X130044835Y-115862085D01*
X130045660Y-115859423D01*
X130070496Y-115785327D01*
X130073577Y-115763236D01*
X130075345Y-115754855D01*
X130081445Y-115733418D01*
X130088653Y-115655620D01*
X130088977Y-115652827D01*
X130099773Y-115575437D01*
X130096166Y-115497411D01*
X130096100Y-115494548D01*
X130096100Y-88107414D01*
X130115785Y-88040375D01*
X130132414Y-88019738D01*
X132290147Y-85862004D01*
X132351470Y-85828520D01*
X132421162Y-85833504D01*
G37*
%TD.AperFunction*%
%TD*%
M02*
