M48
; DRILL file {KiCad 7.0.8} date Wed Aug 14 14:08:03 2024
; FORMAT={-:-/ absolute / inch / decimal}
; #@! TF.CreationDate,2024-08-14T14:08:03-06:00
; #@! TF.GenerationSoftware,Kicad,Pcbnew,7.0.8
; #@! TF.FileFunction,Plated,1,2,PTH
FMAT,2
INCH
; #@! TA.AperFunction,Plated,PTH,ViaDrill
T1C0.0100
; #@! TA.AperFunction,Plated,PTH,ViaDrill
T2C0.0200
; #@! TA.AperFunction,Plated,PTH,ComponentDrill
T3C0.0394
; #@! TA.AperFunction,Plated,PTH,ComponentDrill
T4C0.0400
%
G90
G05
T1
X3.8Y-4.51
X3.8Y-4.56
X3.8Y-4.61
X3.8Y-4.66
X3.805Y-4.46
X4.13Y-4.035
X4.22Y-4.0469
X5.0219Y-4.21
T2
X4.19Y-4.735
X4.24Y-4.735
X4.29Y-4.735
X4.34Y-4.735
X4.39Y-4.735
X4.44Y-4.735
X4.465Y-5.01
X4.815Y-4.31
X4.815Y-4.41
X4.815Y-4.51
X4.815Y-4.61
X4.825Y-3.06
X4.825Y-3.16
X4.825Y-3.26
X4.825Y-3.36
X4.825Y-3.465
X4.825Y-3.565
X4.825Y-3.665
X4.825Y-3.765
X4.89Y-4.96
X4.94Y-3.96
X4.94Y-4.01
X4.94Y-4.06
X4.94Y-4.96
X4.99Y-4.96
X5.04Y-4.96
X5.09Y-4.96
X5.12Y-3.055
X5.12Y-3.155
X5.12Y-3.255
X5.16Y-3.495
X5.16Y-3.595
X5.16Y-3.695
X5.16Y-3.795
X5.165Y-3.985
X5.165Y-4.035
X5.165Y-4.085
X5.99Y-5.01
T3
X4.665Y-3.06
X4.665Y-3.16
X4.665Y-3.26
X4.665Y-3.36
X4.665Y-3.46
X4.665Y-3.56
X4.665Y-3.66
X4.665Y-3.76
X4.665Y-3.86
X4.665Y-3.96
X4.665Y-4.06
X4.665Y-4.16
X4.665Y-4.26
X4.665Y-4.36
X4.665Y-4.46
X4.665Y-4.56
X4.665Y-4.66
X4.665Y-4.76
X4.665Y-4.86
X4.665Y-4.96
X4.815Y-4.81
X4.915Y-4.81
X5.015Y-4.81
X5.115Y-4.81
X5.265Y-3.06
X5.265Y-3.16
X5.265Y-3.26
X5.265Y-3.36
X5.265Y-3.46
X5.265Y-3.56
X5.265Y-3.66
X5.265Y-3.76
X5.265Y-3.86
X5.265Y-3.96
X5.265Y-4.06
X5.265Y-4.16
X5.265Y-4.26
X5.265Y-4.36
X5.265Y-4.46
X5.265Y-4.56
X5.265Y-4.66
X5.265Y-4.76
X5.265Y-4.86
X5.265Y-4.96
T4
X4.015Y-3.16
X4.015Y-3.36
X4.015Y-3.56
X4.015Y-3.76
X4.265Y-3.06
X4.265Y-3.26
X4.265Y-3.46
X4.265Y-3.66
X4.265Y-3.86
X4.265Y-4.26
X5.765Y-3.46
X5.765Y-3.66
X5.765Y-3.86
X5.765Y-4.36
X5.765Y-4.585
X6.015Y-3.36
X6.015Y-3.56
X6.015Y-3.76
T0
M30
