%TF.GenerationSoftware,KiCad,Pcbnew,7.0.8*%
%TF.CreationDate,2024-08-14T14:07:48-06:00*%
%TF.ProjectId,blackpill_carrier,626c6163-6b70-4696-9c6c-5f6361727269,1.0*%
%TF.SameCoordinates,Original*%
%TF.FileFunction,Copper,L2,Bot*%
%TF.FilePolarity,Positive*%
%FSLAX46Y46*%
G04 Gerber Fmt 4.6, Leading zero omitted, Abs format (unit mm)*
G04 Created by KiCad (PCBNEW 7.0.8) date 2024-08-14 14:07:48*
%MOMM*%
%LPD*%
G01*
G04 APERTURE LIST*
%TA.AperFunction,ComponentPad*%
%ADD10C,2.286000*%
%TD*%
%TA.AperFunction,ComponentPad*%
%ADD11R,1.700000X1.700000*%
%TD*%
%TA.AperFunction,ComponentPad*%
%ADD12C,1.700000*%
%TD*%
%TA.AperFunction,ViaPad*%
%ADD13C,1.016000*%
%TD*%
%TA.AperFunction,ViaPad*%
%ADD14C,0.457200*%
%TD*%
%TA.AperFunction,Conductor*%
%ADD15C,0.254000*%
%TD*%
G04 APERTURE END LIST*
D10*
%TO.P,TP12,1,1*%
%TO.N,Net-(U1-PB2)*%
X146431000Y-87884000D03*
%TD*%
%TO.P,TP15,1,1*%
%TO.N,Net-(U1-PB12)*%
X108331000Y-77724000D03*
%TD*%
%TO.P,TP2,1,1*%
%TO.N,Net-(U1-PA1)*%
X146431000Y-110744000D03*
%TD*%
%TO.P,TP3,1,1*%
%TO.N,Net-(U1-PA6)*%
X146431000Y-98044000D03*
%TD*%
%TO.P,TP4,1,1*%
%TO.N,Net-(U1-PA7)*%
X152781000Y-95504000D03*
%TD*%
%TO.P,TP14,1,1*%
%TO.N,Net-(U1-PB10)*%
X152781000Y-85344000D03*
%TD*%
%TO.P,TP17,1,1*%
%TO.N,Net-(U1-PB14)*%
X108331000Y-82804000D03*
%TD*%
%TO.P,TP10,1,1*%
%TO.N,Net-(U1-PB0)*%
X146431000Y-92964000D03*
%TD*%
%TO.P,TP9,1,1*%
%TO.N,Net-(U1-PA12)*%
X108331000Y-98044000D03*
%TD*%
%TO.P,TP16,1,1*%
%TO.N,Net-(U1-PB13)*%
X101981000Y-80264000D03*
%TD*%
%TO.P,TP11,1,1*%
%TO.N,Net-(U1-PB1)*%
X152781000Y-90424000D03*
%TD*%
%TO.P,TP6,1,1*%
%TO.N,Net-(U1-PA9)*%
X101981000Y-90424000D03*
%TD*%
D11*
%TO.P,U1,1,PB12*%
%TO.N,Net-(U1-PB12)*%
X118491000Y-77724000D03*
D12*
%TO.P,U1,2,PB13*%
%TO.N,Net-(U1-PB13)*%
X118491000Y-80264000D03*
%TO.P,U1,3,PB14*%
%TO.N,Net-(U1-PB14)*%
X118491000Y-82804000D03*
%TO.P,U1,4,PB15*%
%TO.N,Net-(U1-PB15)*%
X118491000Y-85344000D03*
%TO.P,U1,5,PA8*%
%TO.N,Net-(U1-PA8)*%
X118491000Y-87884000D03*
%TO.P,U1,6,PA9*%
%TO.N,Net-(U1-PA9)*%
X118491000Y-90424000D03*
%TO.P,U1,7,PA10*%
%TO.N,Net-(U1-PA10)*%
X118491000Y-92964000D03*
%TO.P,U1,8,PA11*%
%TO.N,Net-(U1-PA11)*%
X118491000Y-95504000D03*
%TO.P,U1,9,PA12*%
%TO.N,Net-(U1-PA12)*%
X118491000Y-98044000D03*
%TO.P,U1,10,PA15/JTDI*%
%TO.N,/b_TDI*%
X118491000Y-100584000D03*
%TO.P,U1,11,PB3/JTDO/SWO*%
%TO.N,/b_SWO*%
X118491000Y-103124000D03*
%TO.P,U1,12,PB4/JTRST*%
%TO.N,unconnected-(U1-PB4{slash}JTRST-Pad12)*%
X118491000Y-105664000D03*
%TO.P,U1,13,PB5*%
%TO.N,Net-(U1-PB5)*%
X118491000Y-108204000D03*
%TO.P,U1,14,PB6*%
%TO.N,/t_NC{slash}TDI*%
X118491000Y-110744000D03*
%TO.P,U1,15,PB7*%
%TO.N,/t_SWO{slash}TDO*%
X118491000Y-113284000D03*
%TO.P,U1,16,PB8*%
%TO.N,/t_SWDCLK{slash}TCK*%
X118491000Y-115824000D03*
%TO.P,U1,17,PB9*%
%TO.N,/t_SWDIO{slash}TMS*%
X118491000Y-118364000D03*
%TO.P,U1,18,5V*%
%TO.N,unconnected-(U1-5V-Pad18)*%
X118491000Y-120904000D03*
%TO.P,U1,19,GND*%
%TO.N,GND*%
X118491000Y-123444000D03*
%TO.P,U1,20,3V3*%
%TO.N,+3V3*%
X118491000Y-125984000D03*
%TO.P,U1,21,VBAT*%
%TO.N,unconnected-(U1-VBAT-Pad21)*%
X133731000Y-125984000D03*
%TO.P,U1,22,PC13*%
%TO.N,/LED_IDLE_RUN*%
X133731000Y-123444000D03*
%TO.P,U1,23,PC14*%
%TO.N,/LED_ERROR*%
X133731000Y-120904000D03*
%TO.P,U1,24,PC15*%
%TO.N,/LED_BOOTLOADER*%
X133731000Y-118364000D03*
%TO.P,U1,25,~{RESET}*%
%TO.N,/~{RESET}*%
X133731000Y-115824000D03*
%TO.P,U1,26,PA0*%
%TO.N,Net-(U1-PA0)*%
X133731000Y-113284000D03*
%TO.P,U1,27,PA1*%
%TO.N,Net-(U1-PA1)*%
X133731000Y-110744000D03*
%TO.P,U1,28,PA2*%
%TO.N,/TXD*%
X133731000Y-108204000D03*
%TO.P,U1,29,PA3*%
%TO.N,/RXD*%
X133731000Y-105664000D03*
%TO.P,U1,30,PA4*%
%TO.N,/LED_UART*%
X133731000Y-103124000D03*
%TO.P,U1,31,PA5*%
%TO.N,/~{nRST}*%
X133731000Y-100584000D03*
%TO.P,U1,32,PA6*%
%TO.N,Net-(U1-PA6)*%
X133731000Y-98044000D03*
%TO.P,U1,33,PA7*%
%TO.N,Net-(U1-PA7)*%
X133731000Y-95504000D03*
%TO.P,U1,34,PB0*%
%TO.N,Net-(U1-PB0)*%
X133731000Y-92964000D03*
%TO.P,U1,35,PB1*%
%TO.N,Net-(U1-PB1)*%
X133731000Y-90424000D03*
%TO.P,U1,36,PB2*%
%TO.N,Net-(U1-PB2)*%
X133731000Y-87884000D03*
%TO.P,U1,37,PB10*%
%TO.N,Net-(U1-PB10)*%
X133731000Y-85344000D03*
%TO.P,U1,38,3V3*%
%TO.N,+3V3*%
X133731000Y-82804000D03*
%TO.P,U1,39,GND*%
%TO.N,GND*%
X133731000Y-80264000D03*
%TO.P,U1,40,5V*%
%TO.N,unconnected-(U1-5V-Pad40)*%
X133731000Y-77724000D03*
%TO.P,U1,41,3V3*%
%TO.N,+3V3*%
X122301000Y-122174000D03*
%TO.P,U1,42,PA13/JTMS/SWDIO*%
%TO.N,/b_SWDIO*%
X124841000Y-122174000D03*
%TO.P,U1,43,PA14/JTCL/SWCLK*%
%TO.N,/b_SWDCLK*%
X127381000Y-122174000D03*
%TO.P,U1,44,GND*%
%TO.N,GND*%
X129921000Y-122174000D03*
%TD*%
D10*
%TO.P,TP7,1,1*%
%TO.N,Net-(U1-PA10)*%
X108331000Y-92964000D03*
%TD*%
%TO.P,TP8,1,1*%
%TO.N,Net-(U1-PA11)*%
X101981000Y-95504000D03*
%TD*%
%TO.P,TP1,1,1*%
%TO.N,Net-(U1-PA0)*%
X146431000Y-116459000D03*
%TD*%
%TO.P,TP13,1,1*%
%TO.N,Net-(U1-PB5)*%
X108331000Y-108204000D03*
%TD*%
%TO.P,TP5,1,1*%
%TO.N,Net-(U1-PA8)*%
X108331000Y-87884000D03*
%TD*%
%TO.P,TP18,1,1*%
%TO.N,Net-(U1-PB15)*%
X101981000Y-85344000D03*
%TD*%
D13*
%TO.N,GND*%
X122301000Y-114554000D03*
X112776000Y-120269000D03*
X131064000Y-88773000D03*
X122555000Y-88011000D03*
X122555000Y-85344000D03*
X128016000Y-125984000D03*
X122301000Y-109474000D03*
X129286000Y-125984000D03*
X126746000Y-125984000D03*
X125476000Y-100584000D03*
X122555000Y-93091000D03*
X131064000Y-93853000D03*
X125476000Y-103124000D03*
X130048000Y-82677000D03*
X106426000Y-120269000D03*
X122555000Y-95631000D03*
X131191000Y-103759000D03*
X122301000Y-117094000D03*
X125476000Y-101854000D03*
X130048000Y-77597000D03*
X122301000Y-112014000D03*
X130048000Y-80137000D03*
X131191000Y-102489000D03*
X131064000Y-96393000D03*
X131064000Y-91313000D03*
X110236000Y-120269000D03*
X122555000Y-77724000D03*
X107696000Y-120269000D03*
X124206000Y-125984000D03*
X108966000Y-120269000D03*
X122555000Y-80264000D03*
X111506000Y-120269000D03*
X125476000Y-125984000D03*
X122555000Y-82804000D03*
X122555000Y-90551000D03*
X131191000Y-101219000D03*
%TO.N,/TPWR*%
X152146000Y-127254000D03*
X113411000Y-127254000D03*
D14*
%TO.N,/t_SWDIO{slash}TMS*%
X96520000Y-118364000D03*
%TO.N,/t_SWDCLK{slash}TCK*%
X96520000Y-117094000D03*
%TO.N,/t_SWO{slash}TDO*%
X96520000Y-115824000D03*
%TO.N,/t_NC{slash}TDI*%
X96520000Y-114554000D03*
%TO.N,/~{nRST}*%
X96647000Y-113284000D03*
%TO.N,/b_SWDIO*%
X107188000Y-102790600D03*
%TO.N,/b_SWDCLK*%
X104902000Y-102489000D03*
%TO.N,/~{RESET}*%
X127555600Y-106933998D03*
%TD*%
D15*
%TO.N,/TPWR*%
X113411000Y-127254000D02*
X152146000Y-127254000D01*
%TO.N,/t_SWDIO{slash}TMS*%
X96520000Y-118364000D02*
X118491000Y-118364000D01*
%TO.N,/t_SWDCLK{slash}TCK*%
X112903000Y-115824000D02*
X118491000Y-115824000D01*
X96520000Y-117094000D02*
X111633000Y-117094000D01*
X111633000Y-117094000D02*
X112903000Y-115824000D01*
%TO.N,/t_SWO{slash}TDO*%
X96520000Y-115824000D02*
X110744000Y-115824000D01*
X110744000Y-115824000D02*
X113284000Y-113284000D01*
X113284000Y-113284000D02*
X118491000Y-113284000D01*
%TO.N,/t_NC{slash}TDI*%
X96520000Y-114554000D02*
X109474000Y-114554000D01*
X109474000Y-114554000D02*
X113284000Y-110744000D01*
X113284000Y-110744000D02*
X118491000Y-110744000D01*
%TO.N,/~{nRST}*%
X115443000Y-100203000D02*
X116332000Y-99314000D01*
X132461000Y-99314000D02*
X133731000Y-100584000D01*
X116332000Y-99314000D02*
X132461000Y-99314000D01*
X96647000Y-112776000D02*
X101422200Y-108000800D01*
X103555800Y-100203000D02*
X115443000Y-100203000D01*
X102489000Y-101269800D02*
X103555800Y-100203000D01*
X102489000Y-106934000D02*
X102489000Y-101269800D01*
X96647000Y-113284000D02*
X96647000Y-112776000D01*
X101422200Y-108000800D02*
X102489000Y-106934000D01*
%TO.N,/b_SWDIO*%
X108791400Y-104394000D02*
X107188000Y-102790600D01*
X124841000Y-122174000D02*
X124841000Y-106045000D01*
X123190000Y-104394000D02*
X108791400Y-104394000D01*
X124841000Y-106045000D02*
X123190000Y-104394000D01*
%TO.N,/b_SWDCLK*%
X125666500Y-120459500D02*
X127381000Y-122174000D01*
X122047000Y-101854000D02*
X105537000Y-101854000D01*
X105537000Y-101854000D02*
X104902000Y-102489000D01*
X125666500Y-120459500D02*
X125666500Y-105473500D01*
X125666500Y-105473500D02*
X122047000Y-101854000D01*
%TO.N,/~{RESET}*%
X127555600Y-109648600D02*
X127555600Y-106933998D01*
X133731000Y-115824000D02*
X127555600Y-109648600D01*
%TD*%
%TA.AperFunction,Conductor*%
%TO.N,GND*%
G36*
X132213445Y-99969185D02*
G01*
X132234087Y-99985819D01*
X132381365Y-100133097D01*
X132414850Y-100194420D01*
X132413890Y-100251218D01*
X132386435Y-100359635D01*
X132367844Y-100583994D01*
X132367844Y-100584005D01*
X132386434Y-100808359D01*
X132386436Y-100808371D01*
X132441703Y-101026614D01*
X132532140Y-101232792D01*
X132655276Y-101421265D01*
X132655284Y-101421276D01*
X132807756Y-101586902D01*
X132807760Y-101586906D01*
X132985424Y-101725189D01*
X132985429Y-101725191D01*
X132985431Y-101725193D01*
X133021930Y-101744946D01*
X133071520Y-101794165D01*
X133086628Y-101862382D01*
X133062457Y-101927937D01*
X133021930Y-101963054D01*
X132985431Y-101982806D01*
X132985422Y-101982812D01*
X132807761Y-102121092D01*
X132807756Y-102121097D01*
X132655284Y-102286723D01*
X132655276Y-102286734D01*
X132532140Y-102475207D01*
X132441703Y-102681385D01*
X132386436Y-102899628D01*
X132386434Y-102899640D01*
X132367844Y-103123994D01*
X132367844Y-103124005D01*
X132386434Y-103348359D01*
X132386436Y-103348371D01*
X132441703Y-103566614D01*
X132532140Y-103772792D01*
X132655276Y-103961265D01*
X132655284Y-103961276D01*
X132807756Y-104126902D01*
X132807760Y-104126906D01*
X132985424Y-104265189D01*
X132985429Y-104265191D01*
X132985431Y-104265193D01*
X133021930Y-104284946D01*
X133071520Y-104334165D01*
X133086628Y-104402382D01*
X133062457Y-104467937D01*
X133021930Y-104503054D01*
X132985431Y-104522806D01*
X132985422Y-104522812D01*
X132807761Y-104661092D01*
X132807756Y-104661097D01*
X132655284Y-104826723D01*
X132655276Y-104826734D01*
X132532140Y-105015207D01*
X132441703Y-105221385D01*
X132386436Y-105439628D01*
X132386434Y-105439640D01*
X132367844Y-105663994D01*
X132367844Y-105664005D01*
X132386434Y-105888359D01*
X132386436Y-105888371D01*
X132441703Y-106106614D01*
X132532140Y-106312792D01*
X132655276Y-106501265D01*
X132655284Y-106501276D01*
X132807756Y-106666902D01*
X132807761Y-106666907D01*
X132832861Y-106686443D01*
X132985424Y-106805189D01*
X132985429Y-106805191D01*
X132985431Y-106805193D01*
X133021930Y-106824946D01*
X133071520Y-106874165D01*
X133086628Y-106942382D01*
X133062457Y-107007937D01*
X133021930Y-107043054D01*
X132985431Y-107062806D01*
X132985422Y-107062812D01*
X132807761Y-107201092D01*
X132807756Y-107201097D01*
X132655284Y-107366723D01*
X132655276Y-107366734D01*
X132532140Y-107555207D01*
X132441703Y-107761385D01*
X132386436Y-107979628D01*
X132386434Y-107979640D01*
X132367844Y-108203994D01*
X132367844Y-108204005D01*
X132386434Y-108428359D01*
X132386436Y-108428371D01*
X132441703Y-108646614D01*
X132532140Y-108852792D01*
X132655276Y-109041265D01*
X132655284Y-109041276D01*
X132780900Y-109177729D01*
X132807760Y-109206906D01*
X132985424Y-109345189D01*
X132985429Y-109345191D01*
X132985431Y-109345193D01*
X133021930Y-109364946D01*
X133071520Y-109414165D01*
X133086628Y-109482382D01*
X133062457Y-109547937D01*
X133021930Y-109583054D01*
X132985431Y-109602806D01*
X132985422Y-109602812D01*
X132807761Y-109741092D01*
X132807756Y-109741097D01*
X132655284Y-109906723D01*
X132655276Y-109906734D01*
X132532140Y-110095207D01*
X132441703Y-110301385D01*
X132386436Y-110519628D01*
X132386434Y-110519640D01*
X132367844Y-110743994D01*
X132367844Y-110744005D01*
X132386434Y-110968359D01*
X132386436Y-110968371D01*
X132441703Y-111186614D01*
X132532140Y-111392792D01*
X132655276Y-111581265D01*
X132655284Y-111581276D01*
X132780900Y-111717729D01*
X132807760Y-111746906D01*
X132985424Y-111885189D01*
X132985429Y-111885191D01*
X132985431Y-111885193D01*
X133021930Y-111904946D01*
X133071520Y-111954165D01*
X133086628Y-112022382D01*
X133062457Y-112087937D01*
X133021930Y-112123054D01*
X132985431Y-112142806D01*
X132985422Y-112142812D01*
X132807761Y-112281092D01*
X132807756Y-112281097D01*
X132655284Y-112446723D01*
X132655276Y-112446734D01*
X132532140Y-112635207D01*
X132441703Y-112841385D01*
X132386436Y-113059628D01*
X132386434Y-113059640D01*
X132368653Y-113274222D01*
X132343500Y-113339407D01*
X132287097Y-113380645D01*
X132217354Y-113384843D01*
X132157396Y-113351663D01*
X128227419Y-109421686D01*
X128193934Y-109360363D01*
X128191100Y-109334005D01*
X128191100Y-107343771D01*
X128210107Y-107277797D01*
X128223906Y-107255837D01*
X128278766Y-107099056D01*
X128282851Y-107062806D01*
X128297364Y-106934000D01*
X128297364Y-106933995D01*
X128278767Y-106768945D01*
X128278766Y-106768943D01*
X128278766Y-106768940D01*
X128223906Y-106612159D01*
X128135534Y-106471516D01*
X128018082Y-106354064D01*
X127877438Y-106265691D01*
X127720652Y-106210830D01*
X127555603Y-106192234D01*
X127555597Y-106192234D01*
X127390547Y-106210830D01*
X127233761Y-106265691D01*
X127093117Y-106354064D01*
X126975666Y-106471515D01*
X126887293Y-106612159D01*
X126832432Y-106768945D01*
X126813836Y-106933995D01*
X126813836Y-106934000D01*
X126832432Y-107099050D01*
X126868138Y-107201094D01*
X126887294Y-107255837D01*
X126900134Y-107276272D01*
X126901093Y-107277797D01*
X126920100Y-107343771D01*
X126920100Y-109564751D01*
X126918358Y-109580527D01*
X126918626Y-109580553D01*
X126917892Y-109588318D01*
X126920100Y-109658585D01*
X126920100Y-109688583D01*
X126920987Y-109695613D01*
X126921445Y-109701432D01*
X126922934Y-109748803D01*
X126922935Y-109748807D01*
X126928657Y-109768505D01*
X126932600Y-109787546D01*
X126935171Y-109807888D01*
X126935174Y-109807903D01*
X126952616Y-109851959D01*
X126954507Y-109857483D01*
X126967730Y-109902991D01*
X126967731Y-109902993D01*
X126969943Y-109906734D01*
X126978170Y-109920644D01*
X126986728Y-109938114D01*
X126994279Y-109957185D01*
X126994282Y-109957191D01*
X127022142Y-109995536D01*
X127025349Y-110000419D01*
X127049466Y-110041198D01*
X127049470Y-110041202D01*
X127063963Y-110055695D01*
X127076601Y-110070492D01*
X127088657Y-110087087D01*
X127125176Y-110117297D01*
X127129488Y-110121220D01*
X129758807Y-112750539D01*
X132381365Y-115373097D01*
X132414850Y-115434420D01*
X132413890Y-115491218D01*
X132386435Y-115599635D01*
X132367844Y-115823994D01*
X132367844Y-115824005D01*
X132386434Y-116048359D01*
X132386436Y-116048371D01*
X132441703Y-116266614D01*
X132532140Y-116472792D01*
X132655276Y-116661265D01*
X132655284Y-116661276D01*
X132757363Y-116772161D01*
X132807760Y-116826906D01*
X132985424Y-116965189D01*
X132985429Y-116965191D01*
X132985431Y-116965193D01*
X133021930Y-116984946D01*
X133071520Y-117034165D01*
X133086628Y-117102382D01*
X133062457Y-117167937D01*
X133021930Y-117203054D01*
X132985431Y-117222806D01*
X132985422Y-117222812D01*
X132807761Y-117361092D01*
X132807756Y-117361097D01*
X132655284Y-117526723D01*
X132655276Y-117526734D01*
X132532140Y-117715207D01*
X132441703Y-117921385D01*
X132386436Y-118139628D01*
X132386434Y-118139640D01*
X132367844Y-118363994D01*
X132367844Y-118364005D01*
X132386434Y-118588359D01*
X132386436Y-118588371D01*
X132441703Y-118806614D01*
X132532140Y-119012792D01*
X132655276Y-119201265D01*
X132655284Y-119201276D01*
X132807756Y-119366902D01*
X132807760Y-119366906D01*
X132985424Y-119505189D01*
X132985429Y-119505191D01*
X132985431Y-119505193D01*
X133021930Y-119524946D01*
X133071520Y-119574165D01*
X133086628Y-119642382D01*
X133062457Y-119707937D01*
X133021930Y-119743054D01*
X132985431Y-119762806D01*
X132985422Y-119762812D01*
X132807761Y-119901092D01*
X132807756Y-119901097D01*
X132655284Y-120066723D01*
X132655276Y-120066734D01*
X132532140Y-120255207D01*
X132441703Y-120461385D01*
X132386436Y-120679628D01*
X132386434Y-120679640D01*
X132367844Y-120903994D01*
X132367844Y-120904005D01*
X132386434Y-121128359D01*
X132386436Y-121128371D01*
X132441703Y-121346614D01*
X132532140Y-121552792D01*
X132655276Y-121741265D01*
X132655284Y-121741276D01*
X132807756Y-121906902D01*
X132807760Y-121906906D01*
X132985424Y-122045189D01*
X132985429Y-122045191D01*
X132985431Y-122045193D01*
X133021930Y-122064946D01*
X133071520Y-122114165D01*
X133086628Y-122182382D01*
X133062457Y-122247937D01*
X133021930Y-122283054D01*
X132985431Y-122302806D01*
X132985422Y-122302812D01*
X132807761Y-122441092D01*
X132807756Y-122441097D01*
X132655284Y-122606723D01*
X132655276Y-122606734D01*
X132532140Y-122795207D01*
X132441703Y-123001385D01*
X132386436Y-123219628D01*
X132386434Y-123219640D01*
X132367844Y-123443994D01*
X132367844Y-123444005D01*
X132386434Y-123668359D01*
X132386436Y-123668371D01*
X132441703Y-123886614D01*
X132532140Y-124092792D01*
X132655276Y-124281265D01*
X132655284Y-124281276D01*
X132807756Y-124446902D01*
X132807760Y-124446906D01*
X132985424Y-124585189D01*
X132985429Y-124585191D01*
X132985431Y-124585193D01*
X133021930Y-124604946D01*
X133071520Y-124654165D01*
X133086628Y-124722382D01*
X133062457Y-124787937D01*
X133021930Y-124823054D01*
X132985431Y-124842806D01*
X132985422Y-124842812D01*
X132807761Y-124981092D01*
X132807756Y-124981097D01*
X132655284Y-125146723D01*
X132655276Y-125146734D01*
X132532140Y-125335207D01*
X132441703Y-125541385D01*
X132386436Y-125759628D01*
X132386434Y-125759640D01*
X132367844Y-125983994D01*
X132367844Y-125984005D01*
X132386434Y-126208359D01*
X132386436Y-126208371D01*
X132441703Y-126426614D01*
X132441705Y-126426618D01*
X132449632Y-126444691D01*
X132458535Y-126513991D01*
X132428557Y-126577103D01*
X132369217Y-126613989D01*
X132336076Y-126618500D01*
X119885924Y-126618500D01*
X119818885Y-126598815D01*
X119773130Y-126546011D01*
X119763186Y-126476853D01*
X119772368Y-126444691D01*
X119774143Y-126440643D01*
X119780296Y-126426616D01*
X119835564Y-126208368D01*
X119854156Y-125984000D01*
X119835564Y-125759632D01*
X119780296Y-125541384D01*
X119689860Y-125335209D01*
X119566722Y-125146732D01*
X119566719Y-125146729D01*
X119566715Y-125146723D01*
X119414243Y-124981097D01*
X119414238Y-124981092D01*
X119236577Y-124842812D01*
X119236577Y-124842811D01*
X119193303Y-124819393D01*
X119143713Y-124770173D01*
X119128605Y-124701957D01*
X119152775Y-124636401D01*
X119181198Y-124608763D01*
X119252373Y-124558925D01*
X118623533Y-123930086D01*
X118633315Y-123928680D01*
X118764100Y-123868952D01*
X118872761Y-123774798D01*
X118950493Y-123653844D01*
X118974076Y-123573524D01*
X119605925Y-124205373D01*
X119605926Y-124205373D01*
X119664598Y-124121582D01*
X119664600Y-124121578D01*
X119764429Y-123907492D01*
X119764433Y-123907483D01*
X119825567Y-123679326D01*
X119825569Y-123679315D01*
X119846157Y-123444001D01*
X119846157Y-123443998D01*
X119825569Y-123208684D01*
X119825567Y-123208673D01*
X119764433Y-122980516D01*
X119764429Y-122980507D01*
X119664600Y-122766423D01*
X119664599Y-122766421D01*
X119605925Y-122682626D01*
X119605925Y-122682625D01*
X118974076Y-123314475D01*
X118950493Y-123234156D01*
X118872761Y-123113202D01*
X118764100Y-123019048D01*
X118633315Y-122959320D01*
X118623533Y-122957913D01*
X119252373Y-122329073D01*
X119252373Y-122329072D01*
X119181199Y-122279236D01*
X119137574Y-122224659D01*
X119130380Y-122155161D01*
X119161903Y-122092806D01*
X119193305Y-122068606D01*
X119200070Y-122064945D01*
X119236576Y-122045189D01*
X119414240Y-121906906D01*
X119566722Y-121741268D01*
X119689860Y-121552791D01*
X119780296Y-121346616D01*
X119835564Y-121128368D01*
X119843482Y-121032812D01*
X119854156Y-120904005D01*
X119854156Y-120903994D01*
X119835565Y-120679640D01*
X119835563Y-120679628D01*
X119780296Y-120461385D01*
X119689859Y-120255207D01*
X119566723Y-120066734D01*
X119566715Y-120066723D01*
X119414243Y-119901097D01*
X119414238Y-119901092D01*
X119236577Y-119762812D01*
X119236578Y-119762812D01*
X119236576Y-119762811D01*
X119200070Y-119743055D01*
X119150479Y-119693836D01*
X119135371Y-119625619D01*
X119159541Y-119560064D01*
X119200070Y-119524945D01*
X119200084Y-119524936D01*
X119236576Y-119505189D01*
X119414240Y-119366906D01*
X119566722Y-119201268D01*
X119689860Y-119012791D01*
X119780296Y-118806616D01*
X119835564Y-118588368D01*
X119854156Y-118364000D01*
X119835564Y-118139632D01*
X119780296Y-117921384D01*
X119689860Y-117715209D01*
X119658011Y-117666461D01*
X119606001Y-117586853D01*
X119566722Y-117526732D01*
X119566719Y-117526729D01*
X119566715Y-117526723D01*
X119414243Y-117361097D01*
X119414238Y-117361092D01*
X119236577Y-117222812D01*
X119236578Y-117222812D01*
X119236576Y-117222811D01*
X119200070Y-117203055D01*
X119150479Y-117153836D01*
X119135371Y-117085619D01*
X119159541Y-117020064D01*
X119200070Y-116984945D01*
X119200084Y-116984936D01*
X119236576Y-116965189D01*
X119414240Y-116826906D01*
X119566722Y-116661268D01*
X119689860Y-116472791D01*
X119780296Y-116266616D01*
X119835564Y-116048368D01*
X119854156Y-115824000D01*
X119835564Y-115599632D01*
X119780296Y-115381384D01*
X119689860Y-115175209D01*
X119658011Y-115126461D01*
X119606001Y-115046853D01*
X119566722Y-114986732D01*
X119566719Y-114986729D01*
X119566715Y-114986723D01*
X119414243Y-114821097D01*
X119414238Y-114821092D01*
X119236577Y-114682812D01*
X119236578Y-114682812D01*
X119236576Y-114682811D01*
X119200070Y-114663055D01*
X119150479Y-114613836D01*
X119135371Y-114545619D01*
X119159541Y-114480064D01*
X119200070Y-114444945D01*
X119200084Y-114444936D01*
X119236576Y-114425189D01*
X119414240Y-114286906D01*
X119566722Y-114121268D01*
X119689860Y-113932791D01*
X119780296Y-113726616D01*
X119835564Y-113508368D01*
X119846148Y-113380645D01*
X119854156Y-113284005D01*
X119854156Y-113283994D01*
X119835565Y-113059640D01*
X119835563Y-113059628D01*
X119788613Y-112874226D01*
X119780296Y-112841384D01*
X119689860Y-112635209D01*
X119665084Y-112597287D01*
X119600657Y-112498674D01*
X119566722Y-112446732D01*
X119566719Y-112446729D01*
X119566715Y-112446723D01*
X119414243Y-112281097D01*
X119414238Y-112281092D01*
X119236577Y-112142812D01*
X119236578Y-112142812D01*
X119236576Y-112142811D01*
X119200070Y-112123055D01*
X119150479Y-112073836D01*
X119135371Y-112005619D01*
X119159541Y-111940064D01*
X119200070Y-111904945D01*
X119200084Y-111904936D01*
X119236576Y-111885189D01*
X119414240Y-111746906D01*
X119566722Y-111581268D01*
X119689860Y-111392791D01*
X119780296Y-111186616D01*
X119835564Y-110968368D01*
X119854156Y-110744000D01*
X119835564Y-110519632D01*
X119780296Y-110301384D01*
X119689860Y-110095209D01*
X119566722Y-109906732D01*
X119566719Y-109906729D01*
X119566715Y-109906723D01*
X119414243Y-109741097D01*
X119414238Y-109741092D01*
X119236577Y-109602812D01*
X119236578Y-109602812D01*
X119236576Y-109602811D01*
X119200070Y-109583055D01*
X119150479Y-109533836D01*
X119135371Y-109465619D01*
X119159541Y-109400064D01*
X119200070Y-109364945D01*
X119200084Y-109364936D01*
X119236576Y-109345189D01*
X119414240Y-109206906D01*
X119566722Y-109041268D01*
X119689860Y-108852791D01*
X119780296Y-108646616D01*
X119835564Y-108428368D01*
X119835565Y-108428359D01*
X119854156Y-108204005D01*
X119854156Y-108203994D01*
X119835565Y-107979640D01*
X119835563Y-107979628D01*
X119780296Y-107761385D01*
X119749896Y-107692080D01*
X119689860Y-107555209D01*
X119661699Y-107512106D01*
X119566723Y-107366734D01*
X119566715Y-107366723D01*
X119414243Y-107201097D01*
X119414238Y-107201092D01*
X119240547Y-107065902D01*
X119236576Y-107062811D01*
X119200070Y-107043055D01*
X119150479Y-106993836D01*
X119135371Y-106925619D01*
X119159541Y-106860064D01*
X119200070Y-106824945D01*
X119200084Y-106824936D01*
X119236576Y-106805189D01*
X119414240Y-106666906D01*
X119566722Y-106501268D01*
X119689860Y-106312791D01*
X119780296Y-106106616D01*
X119835564Y-105888368D01*
X119854156Y-105664000D01*
X119844184Y-105543663D01*
X119835565Y-105439640D01*
X119835563Y-105439628D01*
X119811404Y-105344228D01*
X119780296Y-105221384D01*
X119772368Y-105203309D01*
X119763465Y-105134009D01*
X119793443Y-105070897D01*
X119852783Y-105034011D01*
X119885924Y-105029500D01*
X122875406Y-105029500D01*
X122942445Y-105049185D01*
X122963087Y-105065819D01*
X124169181Y-106271913D01*
X124202666Y-106333236D01*
X124205500Y-106359594D01*
X124205500Y-120899352D01*
X124185815Y-120966391D01*
X124140519Y-121008406D01*
X124095427Y-121032809D01*
X124095422Y-121032812D01*
X123917761Y-121171092D01*
X123917756Y-121171097D01*
X123765284Y-121336723D01*
X123765276Y-121336734D01*
X123674808Y-121475206D01*
X123621662Y-121520562D01*
X123552431Y-121529986D01*
X123489095Y-121500484D01*
X123467192Y-121475206D01*
X123409286Y-121386576D01*
X123376722Y-121336732D01*
X123376719Y-121336729D01*
X123376715Y-121336723D01*
X123224243Y-121171097D01*
X123224238Y-121171092D01*
X123046577Y-121032812D01*
X123046572Y-121032808D01*
X122848580Y-120925661D01*
X122848577Y-120925659D01*
X122848574Y-120925658D01*
X122848571Y-120925657D01*
X122848569Y-120925656D01*
X122635637Y-120852556D01*
X122413569Y-120815500D01*
X122188431Y-120815500D01*
X121966362Y-120852556D01*
X121753430Y-120925656D01*
X121753419Y-120925661D01*
X121555427Y-121032808D01*
X121555422Y-121032812D01*
X121377761Y-121171092D01*
X121377756Y-121171097D01*
X121225284Y-121336723D01*
X121225276Y-121336734D01*
X121102140Y-121525207D01*
X121011703Y-121731385D01*
X120956436Y-121949628D01*
X120956434Y-121949640D01*
X120937844Y-122173994D01*
X120937844Y-122174005D01*
X120956434Y-122398359D01*
X120956436Y-122398371D01*
X121011703Y-122616614D01*
X121102140Y-122822792D01*
X121225276Y-123011265D01*
X121225284Y-123011276D01*
X121377756Y-123176902D01*
X121377760Y-123176906D01*
X121555424Y-123315189D01*
X121555425Y-123315189D01*
X121555427Y-123315191D01*
X121615314Y-123347600D01*
X121753426Y-123422342D01*
X121966365Y-123495444D01*
X122188431Y-123532500D01*
X122413569Y-123532500D01*
X122635635Y-123495444D01*
X122848574Y-123422342D01*
X123046576Y-123315189D01*
X123224240Y-123176906D01*
X123376722Y-123011268D01*
X123467193Y-122872790D01*
X123520338Y-122827437D01*
X123589569Y-122818013D01*
X123652905Y-122847515D01*
X123674804Y-122872787D01*
X123765278Y-123011268D01*
X123765283Y-123011273D01*
X123765284Y-123011276D01*
X123917756Y-123176902D01*
X123917760Y-123176906D01*
X124095424Y-123315189D01*
X124095425Y-123315189D01*
X124095427Y-123315191D01*
X124155314Y-123347600D01*
X124293426Y-123422342D01*
X124506365Y-123495444D01*
X124728431Y-123532500D01*
X124953569Y-123532500D01*
X125175635Y-123495444D01*
X125388574Y-123422342D01*
X125586576Y-123315189D01*
X125764240Y-123176906D01*
X125916722Y-123011268D01*
X126007193Y-122872790D01*
X126060338Y-122827437D01*
X126129569Y-122818013D01*
X126192905Y-122847515D01*
X126214804Y-122872787D01*
X126305278Y-123011268D01*
X126305283Y-123011273D01*
X126305284Y-123011276D01*
X126457756Y-123176902D01*
X126457760Y-123176906D01*
X126635424Y-123315189D01*
X126635425Y-123315189D01*
X126635427Y-123315191D01*
X126695314Y-123347600D01*
X126833426Y-123422342D01*
X127046365Y-123495444D01*
X127268431Y-123532500D01*
X127493569Y-123532500D01*
X127715635Y-123495444D01*
X127928574Y-123422342D01*
X128126576Y-123315189D01*
X128304240Y-123176906D01*
X128456722Y-123011268D01*
X128550749Y-122867347D01*
X128603894Y-122821994D01*
X128673125Y-122812570D01*
X128736461Y-122842072D01*
X128756131Y-122864049D01*
X128806072Y-122935373D01*
X128806073Y-122935373D01*
X129437923Y-122303523D01*
X129461507Y-122383844D01*
X129539239Y-122504798D01*
X129647900Y-122598952D01*
X129778685Y-122658680D01*
X129788466Y-122660086D01*
X129159625Y-123288925D01*
X129243421Y-123347599D01*
X129457507Y-123447429D01*
X129457516Y-123447433D01*
X129685673Y-123508567D01*
X129685684Y-123508569D01*
X129920998Y-123529157D01*
X129921002Y-123529157D01*
X130156315Y-123508569D01*
X130156326Y-123508567D01*
X130384483Y-123447433D01*
X130384492Y-123447429D01*
X130598578Y-123347600D01*
X130598582Y-123347598D01*
X130682373Y-123288926D01*
X130682373Y-123288925D01*
X130053533Y-122660086D01*
X130063315Y-122658680D01*
X130194100Y-122598952D01*
X130302761Y-122504798D01*
X130380493Y-122383844D01*
X130404076Y-122303524D01*
X131035925Y-122935373D01*
X131035926Y-122935373D01*
X131094598Y-122851582D01*
X131094600Y-122851578D01*
X131194429Y-122637492D01*
X131194433Y-122637483D01*
X131255567Y-122409326D01*
X131255569Y-122409315D01*
X131276157Y-122174001D01*
X131276157Y-122173998D01*
X131255569Y-121938684D01*
X131255567Y-121938673D01*
X131194433Y-121710516D01*
X131194429Y-121710507D01*
X131094600Y-121496423D01*
X131094599Y-121496421D01*
X131035925Y-121412626D01*
X131035925Y-121412625D01*
X130404076Y-122044475D01*
X130380493Y-121964156D01*
X130302761Y-121843202D01*
X130194100Y-121749048D01*
X130063315Y-121689320D01*
X130053533Y-121687913D01*
X130682373Y-121059073D01*
X130682373Y-121059072D01*
X130598583Y-121000402D01*
X130598579Y-121000400D01*
X130384492Y-120900570D01*
X130384483Y-120900566D01*
X130156326Y-120839432D01*
X130156315Y-120839430D01*
X129921002Y-120818843D01*
X129920998Y-120818843D01*
X129685684Y-120839430D01*
X129685673Y-120839432D01*
X129457516Y-120900566D01*
X129457507Y-120900570D01*
X129243419Y-121000401D01*
X129159625Y-121059072D01*
X129788466Y-121687913D01*
X129778685Y-121689320D01*
X129647900Y-121749048D01*
X129539239Y-121843202D01*
X129461507Y-121964156D01*
X129437923Y-122044476D01*
X128806072Y-121412625D01*
X128806072Y-121412626D01*
X128756131Y-121483950D01*
X128701555Y-121527575D01*
X128632056Y-121534769D01*
X128569701Y-121503246D01*
X128550748Y-121480649D01*
X128494292Y-121394237D01*
X128456722Y-121336732D01*
X128456719Y-121336729D01*
X128456715Y-121336723D01*
X128304243Y-121171097D01*
X128304238Y-121171092D01*
X128126577Y-121032812D01*
X128126572Y-121032808D01*
X127928580Y-120925661D01*
X127928577Y-120925659D01*
X127928574Y-120925658D01*
X127928571Y-120925657D01*
X127928569Y-120925656D01*
X127715637Y-120852556D01*
X127493569Y-120815500D01*
X127268431Y-120815500D01*
X127046366Y-120852555D01*
X127044382Y-120853058D01*
X127043544Y-120853026D01*
X127041306Y-120853400D01*
X127041229Y-120852939D01*
X126974562Y-120850430D01*
X126926265Y-120820532D01*
X126338319Y-120232586D01*
X126304834Y-120171263D01*
X126302000Y-120144905D01*
X126302000Y-105557351D01*
X126303742Y-105541569D01*
X126303475Y-105541544D01*
X126304207Y-105533788D01*
X126304209Y-105533781D01*
X126302000Y-105463496D01*
X126302000Y-105433517D01*
X126301110Y-105426482D01*
X126300653Y-105420664D01*
X126299165Y-105373295D01*
X126293441Y-105353593D01*
X126289497Y-105334549D01*
X126286927Y-105314201D01*
X126269473Y-105270118D01*
X126267598Y-105264642D01*
X126254369Y-105219107D01*
X126243927Y-105201451D01*
X126235369Y-105183982D01*
X126227819Y-105164912D01*
X126199966Y-105126575D01*
X126196757Y-105121690D01*
X126172638Y-105080907D01*
X126172629Y-105080897D01*
X126158139Y-105066407D01*
X126145500Y-105051610D01*
X126143738Y-105049185D01*
X126133442Y-105035013D01*
X126133439Y-105035011D01*
X126133439Y-105035010D01*
X126096916Y-105004796D01*
X126092594Y-105000862D01*
X122555658Y-101463925D01*
X122545732Y-101451535D01*
X122545525Y-101451707D01*
X122540552Y-101445696D01*
X122489306Y-101397573D01*
X122468097Y-101376363D01*
X122462492Y-101372015D01*
X122458046Y-101368218D01*
X122423509Y-101335785D01*
X122423501Y-101335780D01*
X122405540Y-101325906D01*
X122389274Y-101315222D01*
X122373127Y-101302697D01*
X122373067Y-101302650D01*
X122373066Y-101302649D01*
X122373064Y-101302648D01*
X122329571Y-101283827D01*
X122324323Y-101281256D01*
X122282805Y-101258432D01*
X122282804Y-101258431D01*
X122282803Y-101258431D01*
X122262937Y-101253330D01*
X122244538Y-101247030D01*
X122225709Y-101238883D01*
X122225708Y-101238882D01*
X122178902Y-101231469D01*
X122173181Y-101230284D01*
X122127283Y-101218500D01*
X122127282Y-101218500D01*
X122106774Y-101218500D01*
X122087376Y-101216973D01*
X122076769Y-101215293D01*
X122067122Y-101213765D01*
X122067121Y-101213764D01*
X122019939Y-101218225D01*
X122014101Y-101218500D01*
X119885924Y-101218500D01*
X119818885Y-101198815D01*
X119773130Y-101146011D01*
X119763186Y-101076853D01*
X119772368Y-101044691D01*
X119777058Y-101033997D01*
X119780296Y-101026616D01*
X119835564Y-100808368D01*
X119838589Y-100771865D01*
X119854156Y-100584005D01*
X119854156Y-100583994D01*
X119835565Y-100359640D01*
X119835563Y-100359628D01*
X119808110Y-100251218D01*
X119780296Y-100141384D01*
X119772368Y-100123309D01*
X119763465Y-100054009D01*
X119793443Y-99990897D01*
X119852783Y-99954011D01*
X119885924Y-99949500D01*
X132146406Y-99949500D01*
X132213445Y-99969185D01*
G37*
%TD.AperFunction*%
%TA.AperFunction,Conductor*%
G36*
X151977515Y-68293155D02*
G01*
X151982090Y-68293498D01*
X152443707Y-68345511D01*
X152448260Y-68346198D01*
X152904678Y-68432556D01*
X152909167Y-68433581D01*
X153357873Y-68553811D01*
X153362273Y-68555169D01*
X153800721Y-68708589D01*
X153805011Y-68710274D01*
X154230765Y-68896029D01*
X154234938Y-68898038D01*
X154645607Y-69115083D01*
X154649607Y-69117393D01*
X155042911Y-69364522D01*
X155046744Y-69367135D01*
X155420477Y-69642962D01*
X155424092Y-69645846D01*
X155776177Y-69948840D01*
X155779577Y-69951995D01*
X156108004Y-70280422D01*
X156111159Y-70283822D01*
X156414153Y-70635907D01*
X156417045Y-70639533D01*
X156692864Y-71013255D01*
X156695477Y-71017088D01*
X156942606Y-71410392D01*
X156944925Y-71414408D01*
X157161958Y-71825055D01*
X157163970Y-71829234D01*
X157349725Y-72254988D01*
X157351415Y-72259292D01*
X157458089Y-72564149D01*
X157504826Y-72697715D01*
X157506194Y-72702147D01*
X157626415Y-73150821D01*
X157627447Y-73155342D01*
X157713800Y-73611733D01*
X157714492Y-73616319D01*
X157766499Y-74077890D01*
X157766845Y-74082508D01*
X157784300Y-74549000D01*
X157784300Y-138024079D01*
X157784300Y-138049000D01*
X157775303Y-138289470D01*
X157766846Y-138515484D01*
X157766499Y-138520109D01*
X157714492Y-138981680D01*
X157713800Y-138986266D01*
X157627447Y-139442657D01*
X157626415Y-139447178D01*
X157506194Y-139895852D01*
X157504826Y-139900284D01*
X157351420Y-140338694D01*
X157349725Y-140343011D01*
X157163970Y-140768765D01*
X157161958Y-140772944D01*
X156944925Y-141183591D01*
X156942606Y-141187607D01*
X156695477Y-141580911D01*
X156692864Y-141584744D01*
X156417045Y-141958466D01*
X156414153Y-141962092D01*
X156111159Y-142314177D01*
X156108004Y-142317577D01*
X155779577Y-142646004D01*
X155776177Y-142649159D01*
X155424092Y-142952153D01*
X155420466Y-142955045D01*
X155046744Y-143230864D01*
X155042911Y-143233477D01*
X154649607Y-143480606D01*
X154645591Y-143482925D01*
X154234944Y-143699958D01*
X154230765Y-143701970D01*
X153805011Y-143887725D01*
X153800698Y-143889418D01*
X153695516Y-143926223D01*
X153362284Y-144042826D01*
X153357852Y-144044194D01*
X152909178Y-144164415D01*
X152904657Y-144165447D01*
X152448266Y-144251800D01*
X152443681Y-144252491D01*
X152367646Y-144261059D01*
X151982109Y-144304499D01*
X151977489Y-144304845D01*
X151511000Y-144322300D01*
X100711000Y-144322300D01*
X100244508Y-144304845D01*
X100239890Y-144304499D01*
X100009104Y-144278495D01*
X99778314Y-144252491D01*
X99773733Y-144251800D01*
X99317342Y-144165447D01*
X99312821Y-144164415D01*
X98994243Y-144079052D01*
X98864143Y-144044192D01*
X98859715Y-144042826D01*
X98726149Y-143996089D01*
X98421292Y-143889415D01*
X98416988Y-143887725D01*
X97991234Y-143701970D01*
X97987055Y-143699958D01*
X97827292Y-143615521D01*
X97576401Y-143482921D01*
X97572392Y-143480606D01*
X97179088Y-143233477D01*
X97175255Y-143230864D01*
X96948787Y-143063723D01*
X96801526Y-142955039D01*
X96797907Y-142952153D01*
X96445822Y-142649159D01*
X96442422Y-142646004D01*
X96113995Y-142317577D01*
X96110840Y-142314177D01*
X95807846Y-141962092D01*
X95804962Y-141958477D01*
X95529135Y-141584744D01*
X95526522Y-141580911D01*
X95279393Y-141187607D01*
X95277083Y-141183607D01*
X95060038Y-140772938D01*
X95058029Y-140768765D01*
X94872274Y-140343011D01*
X94870589Y-140338721D01*
X94717169Y-139900273D01*
X94715811Y-139895873D01*
X94595581Y-139447167D01*
X94594556Y-139442678D01*
X94508198Y-138986260D01*
X94507511Y-138981707D01*
X94455498Y-138520090D01*
X94455155Y-138515515D01*
X94437700Y-138049000D01*
X94437700Y-138024079D01*
X94437700Y-118364002D01*
X95778236Y-118364002D01*
X95796832Y-118529052D01*
X95851693Y-118685838D01*
X95851694Y-118685839D01*
X95940066Y-118826482D01*
X96057518Y-118943934D01*
X96198161Y-119032306D01*
X96354942Y-119087166D01*
X96354945Y-119087166D01*
X96354947Y-119087167D01*
X96519997Y-119105764D01*
X96520000Y-119105764D01*
X96520003Y-119105764D01*
X96685052Y-119087167D01*
X96685053Y-119087166D01*
X96685058Y-119087166D01*
X96841839Y-119032306D01*
X96862721Y-119019185D01*
X96863802Y-119018506D01*
X96929774Y-118999500D01*
X117216351Y-118999500D01*
X117283390Y-119019185D01*
X117320159Y-119055678D01*
X117415276Y-119201265D01*
X117415284Y-119201276D01*
X117567756Y-119366902D01*
X117567760Y-119366906D01*
X117745424Y-119505189D01*
X117745429Y-119505191D01*
X117745431Y-119505193D01*
X117781930Y-119524946D01*
X117831520Y-119574165D01*
X117846628Y-119642382D01*
X117822457Y-119707937D01*
X117781930Y-119743054D01*
X117745431Y-119762806D01*
X117745422Y-119762812D01*
X117567761Y-119901092D01*
X117567756Y-119901097D01*
X117415284Y-120066723D01*
X117415276Y-120066734D01*
X117292140Y-120255207D01*
X117201703Y-120461385D01*
X117146436Y-120679628D01*
X117146434Y-120679640D01*
X117127844Y-120903994D01*
X117127844Y-120904005D01*
X117146434Y-121128359D01*
X117146436Y-121128371D01*
X117201703Y-121346614D01*
X117292140Y-121552792D01*
X117415276Y-121741265D01*
X117415284Y-121741276D01*
X117567756Y-121906902D01*
X117567760Y-121906906D01*
X117745424Y-122045189D01*
X117781930Y-122064945D01*
X117788695Y-122068606D01*
X117838286Y-122117825D01*
X117853394Y-122186042D01*
X117829224Y-122251597D01*
X117800801Y-122279236D01*
X117729626Y-122329072D01*
X117729625Y-122329072D01*
X118358466Y-122957913D01*
X118348685Y-122959320D01*
X118217900Y-123019048D01*
X118109239Y-123113202D01*
X118031507Y-123234156D01*
X118007923Y-123314476D01*
X117376072Y-122682625D01*
X117317401Y-122766419D01*
X117217570Y-122980507D01*
X117217566Y-122980516D01*
X117156432Y-123208673D01*
X117156430Y-123208684D01*
X117135843Y-123443998D01*
X117135843Y-123444001D01*
X117156430Y-123679315D01*
X117156432Y-123679326D01*
X117217566Y-123907483D01*
X117217570Y-123907492D01*
X117317400Y-124121579D01*
X117317402Y-124121583D01*
X117376072Y-124205373D01*
X117376073Y-124205373D01*
X118007923Y-123573523D01*
X118031507Y-123653844D01*
X118109239Y-123774798D01*
X118217900Y-123868952D01*
X118348685Y-123928680D01*
X118358466Y-123930086D01*
X117729625Y-124558925D01*
X117800801Y-124608763D01*
X117844426Y-124663340D01*
X117851620Y-124732838D01*
X117820097Y-124795193D01*
X117788697Y-124819392D01*
X117745427Y-124842809D01*
X117745422Y-124842812D01*
X117567761Y-124981092D01*
X117567756Y-124981097D01*
X117415284Y-125146723D01*
X117415276Y-125146734D01*
X117292140Y-125335207D01*
X117201703Y-125541385D01*
X117146436Y-125759628D01*
X117146434Y-125759640D01*
X117127844Y-125983994D01*
X117127844Y-125984005D01*
X117146434Y-126208359D01*
X117146436Y-126208371D01*
X117201703Y-126426614D01*
X117201705Y-126426618D01*
X117209632Y-126444691D01*
X117218535Y-126513991D01*
X117188557Y-126577103D01*
X117129217Y-126613989D01*
X117096076Y-126618500D01*
X114263095Y-126618500D01*
X114196056Y-126598815D01*
X114167241Y-126573164D01*
X114133252Y-126531747D01*
X114052801Y-126465724D01*
X113978469Y-126404722D01*
X113978465Y-126404720D01*
X113978463Y-126404718D01*
X113801881Y-126310333D01*
X113610271Y-126252208D01*
X113411000Y-126232582D01*
X113211728Y-126252208D01*
X113020118Y-126310333D01*
X112843536Y-126404718D01*
X112688747Y-126531747D01*
X112561718Y-126686536D01*
X112467333Y-126863118D01*
X112409208Y-127054728D01*
X112389582Y-127254000D01*
X112409208Y-127453271D01*
X112467333Y-127644881D01*
X112561718Y-127821463D01*
X112561720Y-127821465D01*
X112561722Y-127821469D01*
X112617553Y-127889500D01*
X112688747Y-127976252D01*
X112754770Y-128030434D01*
X112843531Y-128103278D01*
X112843534Y-128103280D01*
X112843536Y-128103281D01*
X113020118Y-128197666D01*
X113020120Y-128197667D01*
X113211731Y-128255792D01*
X113411000Y-128275418D01*
X113610269Y-128255792D01*
X113801880Y-128197667D01*
X113978469Y-128103278D01*
X114133252Y-127976252D01*
X114167241Y-127934836D01*
X114224986Y-127895501D01*
X114263095Y-127889500D01*
X151293905Y-127889500D01*
X151360944Y-127909185D01*
X151389759Y-127934836D01*
X151423747Y-127976252D01*
X151489770Y-128030434D01*
X151578531Y-128103278D01*
X151578534Y-128103280D01*
X151578536Y-128103281D01*
X151755118Y-128197666D01*
X151755120Y-128197667D01*
X151946731Y-128255792D01*
X152146000Y-128275418D01*
X152345269Y-128255792D01*
X152536880Y-128197667D01*
X152713469Y-128103278D01*
X152868252Y-127976252D01*
X152995278Y-127821469D01*
X153089667Y-127644880D01*
X153147792Y-127453269D01*
X153167418Y-127254000D01*
X153147792Y-127054731D01*
X153089667Y-126863120D01*
X152995278Y-126686531D01*
X152902241Y-126573164D01*
X152868252Y-126531747D01*
X152787801Y-126465724D01*
X152713469Y-126404722D01*
X152713465Y-126404720D01*
X152713463Y-126404718D01*
X152536881Y-126310333D01*
X152345271Y-126252208D01*
X152146000Y-126232582D01*
X151946728Y-126252208D01*
X151755118Y-126310333D01*
X151578536Y-126404718D01*
X151423747Y-126531747D01*
X151389759Y-126573164D01*
X151332014Y-126612499D01*
X151293905Y-126618500D01*
X135125924Y-126618500D01*
X135058885Y-126598815D01*
X135013130Y-126546011D01*
X135003186Y-126476853D01*
X135012368Y-126444691D01*
X135014143Y-126440643D01*
X135020296Y-126426616D01*
X135075564Y-126208368D01*
X135094156Y-125984000D01*
X135075564Y-125759632D01*
X135020296Y-125541384D01*
X134929860Y-125335209D01*
X134806722Y-125146732D01*
X134806719Y-125146729D01*
X134806715Y-125146723D01*
X134654243Y-124981097D01*
X134654238Y-124981092D01*
X134476577Y-124842812D01*
X134476578Y-124842812D01*
X134476576Y-124842811D01*
X134440070Y-124823055D01*
X134390479Y-124773836D01*
X134375371Y-124705619D01*
X134399541Y-124640064D01*
X134440070Y-124604945D01*
X134440084Y-124604936D01*
X134476576Y-124585189D01*
X134654240Y-124446906D01*
X134806722Y-124281268D01*
X134929860Y-124092791D01*
X135020296Y-123886616D01*
X135075564Y-123668368D01*
X135088806Y-123508567D01*
X135094156Y-123444005D01*
X135094156Y-123443994D01*
X135075565Y-123219640D01*
X135075563Y-123219628D01*
X135020296Y-123001385D01*
X135011142Y-122980516D01*
X134929860Y-122795209D01*
X134806722Y-122606732D01*
X134806719Y-122606729D01*
X134806715Y-122606723D01*
X134654243Y-122441097D01*
X134654238Y-122441092D01*
X134476577Y-122302812D01*
X134476578Y-122302812D01*
X134476576Y-122302811D01*
X134440070Y-122283055D01*
X134390479Y-122233836D01*
X134375371Y-122165619D01*
X134399541Y-122100064D01*
X134440070Y-122064945D01*
X134440084Y-122064936D01*
X134476576Y-122045189D01*
X134654240Y-121906906D01*
X134806722Y-121741268D01*
X134929860Y-121552791D01*
X135020296Y-121346616D01*
X135075564Y-121128368D01*
X135083482Y-121032812D01*
X135094156Y-120904005D01*
X135094156Y-120903994D01*
X135075565Y-120679640D01*
X135075563Y-120679628D01*
X135020296Y-120461385D01*
X134929859Y-120255207D01*
X134806723Y-120066734D01*
X134806715Y-120066723D01*
X134654243Y-119901097D01*
X134654238Y-119901092D01*
X134476577Y-119762812D01*
X134476578Y-119762812D01*
X134476576Y-119762811D01*
X134440070Y-119743055D01*
X134390479Y-119693836D01*
X134375371Y-119625619D01*
X134399541Y-119560064D01*
X134440070Y-119524945D01*
X134440084Y-119524936D01*
X134476576Y-119505189D01*
X134654240Y-119366906D01*
X134806722Y-119201268D01*
X134929860Y-119012791D01*
X135020296Y-118806616D01*
X135075564Y-118588368D01*
X135094156Y-118364000D01*
X135075564Y-118139632D01*
X135020296Y-117921384D01*
X134929860Y-117715209D01*
X134898011Y-117666461D01*
X134846001Y-117586853D01*
X134806722Y-117526732D01*
X134806719Y-117526729D01*
X134806715Y-117526723D01*
X134654243Y-117361097D01*
X134654238Y-117361092D01*
X134476577Y-117222812D01*
X134476578Y-117222812D01*
X134476576Y-117222811D01*
X134440070Y-117203055D01*
X134390479Y-117153836D01*
X134375371Y-117085619D01*
X134399541Y-117020064D01*
X134440070Y-116984945D01*
X134440084Y-116984936D01*
X134476576Y-116965189D01*
X134654240Y-116826906D01*
X134806722Y-116661268D01*
X134929860Y-116472791D01*
X134935909Y-116459000D01*
X144774393Y-116459000D01*
X144794789Y-116718153D01*
X144855472Y-116970919D01*
X144954951Y-117211084D01*
X145090773Y-117432723D01*
X145090774Y-117432726D01*
X145090777Y-117432729D01*
X145259602Y-117630398D01*
X145412616Y-117761084D01*
X145457273Y-117799225D01*
X145457276Y-117799226D01*
X145678915Y-117935048D01*
X145919080Y-118034527D01*
X146171850Y-118095211D01*
X146431000Y-118115607D01*
X146690150Y-118095211D01*
X146942920Y-118034527D01*
X147183084Y-117935048D01*
X147404729Y-117799223D01*
X147602398Y-117630398D01*
X147771223Y-117432729D01*
X147907048Y-117211084D01*
X148006527Y-116970920D01*
X148067211Y-116718150D01*
X148087607Y-116459000D01*
X148067211Y-116199850D01*
X148006527Y-115947080D01*
X147955546Y-115824000D01*
X147907048Y-115706915D01*
X147771226Y-115485276D01*
X147771225Y-115485273D01*
X147727792Y-115434420D01*
X147602398Y-115287602D01*
X147463316Y-115168815D01*
X147404726Y-115118774D01*
X147404723Y-115118773D01*
X147183084Y-114982951D01*
X146942919Y-114883472D01*
X146690153Y-114822789D01*
X146431000Y-114802393D01*
X146171846Y-114822789D01*
X145919080Y-114883472D01*
X145678915Y-114982951D01*
X145457276Y-115118773D01*
X145457273Y-115118774D01*
X145259602Y-115287602D01*
X145090774Y-115485273D01*
X145090773Y-115485276D01*
X144954951Y-115706915D01*
X144855472Y-115947080D01*
X144794789Y-116199846D01*
X144774393Y-116459000D01*
X134935909Y-116459000D01*
X135020296Y-116266616D01*
X135075564Y-116048368D01*
X135094156Y-115824000D01*
X135075564Y-115599632D01*
X135020296Y-115381384D01*
X134929860Y-115175209D01*
X134898011Y-115126461D01*
X134846001Y-115046853D01*
X134806722Y-114986732D01*
X134806719Y-114986729D01*
X134806715Y-114986723D01*
X134654243Y-114821097D01*
X134654238Y-114821092D01*
X134476577Y-114682812D01*
X134476578Y-114682812D01*
X134476576Y-114682811D01*
X134440070Y-114663055D01*
X134390479Y-114613836D01*
X134375371Y-114545619D01*
X134399541Y-114480064D01*
X134440070Y-114444945D01*
X134440084Y-114444936D01*
X134476576Y-114425189D01*
X134654240Y-114286906D01*
X134806722Y-114121268D01*
X134929860Y-113932791D01*
X135020296Y-113726616D01*
X135075564Y-113508368D01*
X135086148Y-113380645D01*
X135094156Y-113284005D01*
X135094156Y-113283994D01*
X135075565Y-113059640D01*
X135075563Y-113059628D01*
X135028613Y-112874226D01*
X135020296Y-112841384D01*
X134929860Y-112635209D01*
X134905084Y-112597287D01*
X134840657Y-112498674D01*
X134806722Y-112446732D01*
X134806719Y-112446729D01*
X134806715Y-112446723D01*
X134654243Y-112281097D01*
X134654238Y-112281092D01*
X134476577Y-112142812D01*
X134476578Y-112142812D01*
X134476576Y-112142811D01*
X134440070Y-112123055D01*
X134390479Y-112073836D01*
X134375371Y-112005619D01*
X134399541Y-111940064D01*
X134440070Y-111904945D01*
X134440084Y-111904936D01*
X134476576Y-111885189D01*
X134654240Y-111746906D01*
X134806722Y-111581268D01*
X134929860Y-111392791D01*
X135020296Y-111186616D01*
X135075564Y-110968368D01*
X135094156Y-110744000D01*
X144774393Y-110744000D01*
X144794789Y-111003153D01*
X144855472Y-111255919D01*
X144954951Y-111496084D01*
X145090773Y-111717723D01*
X145090774Y-111717726D01*
X145090777Y-111717729D01*
X145259602Y-111915398D01*
X145400409Y-112035658D01*
X145457273Y-112084225D01*
X145457276Y-112084226D01*
X145678915Y-112220048D01*
X145919080Y-112319527D01*
X146171850Y-112380211D01*
X146431000Y-112400607D01*
X146690150Y-112380211D01*
X146942920Y-112319527D01*
X147183084Y-112220048D01*
X147404729Y-112084223D01*
X147602398Y-111915398D01*
X147771223Y-111717729D01*
X147907048Y-111496084D01*
X148006527Y-111255920D01*
X148067211Y-111003150D01*
X148087607Y-110744000D01*
X148067211Y-110484850D01*
X148006527Y-110232080D01*
X147986065Y-110182681D01*
X147907048Y-109991915D01*
X147771226Y-109770276D01*
X147771225Y-109770273D01*
X147675834Y-109658585D01*
X147602398Y-109572602D01*
X147416892Y-109414165D01*
X147404726Y-109403774D01*
X147404723Y-109403773D01*
X147183084Y-109267951D01*
X146942919Y-109168472D01*
X146690153Y-109107789D01*
X146431000Y-109087393D01*
X146171846Y-109107789D01*
X145919080Y-109168472D01*
X145678915Y-109267951D01*
X145457276Y-109403773D01*
X145457273Y-109403774D01*
X145259602Y-109572602D01*
X145090774Y-109770273D01*
X145090773Y-109770276D01*
X144954951Y-109991915D01*
X144855472Y-110232080D01*
X144794789Y-110484846D01*
X144774393Y-110744000D01*
X135094156Y-110744000D01*
X135075564Y-110519632D01*
X135020296Y-110301384D01*
X134929860Y-110095209D01*
X134806722Y-109906732D01*
X134806719Y-109906729D01*
X134806715Y-109906723D01*
X134654243Y-109741097D01*
X134654238Y-109741092D01*
X134476577Y-109602812D01*
X134476578Y-109602812D01*
X134476576Y-109602811D01*
X134440070Y-109583055D01*
X134390479Y-109533836D01*
X134375371Y-109465619D01*
X134399541Y-109400064D01*
X134440070Y-109364945D01*
X134440084Y-109364936D01*
X134476576Y-109345189D01*
X134654240Y-109206906D01*
X134806722Y-109041268D01*
X134929860Y-108852791D01*
X135020296Y-108646616D01*
X135075564Y-108428368D01*
X135075565Y-108428359D01*
X135094156Y-108204005D01*
X135094156Y-108203994D01*
X135075565Y-107979640D01*
X135075563Y-107979628D01*
X135020296Y-107761385D01*
X134989896Y-107692080D01*
X134929860Y-107555209D01*
X134901699Y-107512106D01*
X134806723Y-107366734D01*
X134806715Y-107366723D01*
X134654243Y-107201097D01*
X134654238Y-107201092D01*
X134480547Y-107065902D01*
X134476576Y-107062811D01*
X134440070Y-107043055D01*
X134390479Y-106993836D01*
X134375371Y-106925619D01*
X134399541Y-106860064D01*
X134440070Y-106824945D01*
X134440084Y-106824936D01*
X134476576Y-106805189D01*
X134654240Y-106666906D01*
X134806722Y-106501268D01*
X134929860Y-106312791D01*
X135020296Y-106106616D01*
X135075564Y-105888368D01*
X135094156Y-105664000D01*
X135084184Y-105543663D01*
X135075565Y-105439640D01*
X135075563Y-105439628D01*
X135051404Y-105344228D01*
X135020296Y-105221384D01*
X134929860Y-105015209D01*
X134897274Y-104965333D01*
X134840071Y-104877776D01*
X134806722Y-104826732D01*
X134806719Y-104826729D01*
X134806715Y-104826723D01*
X134654243Y-104661097D01*
X134654238Y-104661092D01*
X134476577Y-104522812D01*
X134476578Y-104522812D01*
X134476576Y-104522811D01*
X134440070Y-104503055D01*
X134390479Y-104453836D01*
X134375371Y-104385619D01*
X134399541Y-104320064D01*
X134440070Y-104284945D01*
X134440084Y-104284936D01*
X134476576Y-104265189D01*
X134654240Y-104126906D01*
X134806722Y-103961268D01*
X134929860Y-103772791D01*
X135020296Y-103566616D01*
X135075564Y-103348368D01*
X135086850Y-103212167D01*
X135094156Y-103124005D01*
X135094156Y-103123994D01*
X135075565Y-102899640D01*
X135075563Y-102899628D01*
X135053079Y-102810840D01*
X135020296Y-102681384D01*
X134929860Y-102475209D01*
X134806722Y-102286732D01*
X134806719Y-102286729D01*
X134806715Y-102286723D01*
X134654243Y-102121097D01*
X134654238Y-102121092D01*
X134476577Y-101982812D01*
X134476578Y-101982812D01*
X134476576Y-101982811D01*
X134440070Y-101963055D01*
X134390479Y-101913836D01*
X134375371Y-101845619D01*
X134399541Y-101780064D01*
X134440070Y-101744945D01*
X134440084Y-101744936D01*
X134476576Y-101725189D01*
X134654240Y-101586906D01*
X134778859Y-101451535D01*
X134806715Y-101421276D01*
X134806716Y-101421274D01*
X134806722Y-101421268D01*
X134929860Y-101232791D01*
X135020296Y-101026616D01*
X135075564Y-100808368D01*
X135078589Y-100771865D01*
X135094156Y-100584005D01*
X135094156Y-100583994D01*
X135075565Y-100359640D01*
X135075563Y-100359628D01*
X135048110Y-100251218D01*
X135020296Y-100141384D01*
X134929860Y-99935209D01*
X134806722Y-99746732D01*
X134806719Y-99746729D01*
X134806715Y-99746723D01*
X134654243Y-99581097D01*
X134654238Y-99581092D01*
X134476577Y-99442812D01*
X134476578Y-99442812D01*
X134476576Y-99442811D01*
X134440070Y-99423055D01*
X134390479Y-99373836D01*
X134375371Y-99305619D01*
X134399541Y-99240064D01*
X134440070Y-99204945D01*
X134440084Y-99204936D01*
X134476576Y-99185189D01*
X134654240Y-99046906D01*
X134800615Y-98887902D01*
X134806715Y-98881276D01*
X134806716Y-98881274D01*
X134806722Y-98881268D01*
X134929860Y-98692791D01*
X135020296Y-98486616D01*
X135075564Y-98268368D01*
X135094156Y-98044000D01*
X144774393Y-98044000D01*
X144794789Y-98303153D01*
X144855472Y-98555919D01*
X144954951Y-98796084D01*
X145090773Y-99017723D01*
X145090774Y-99017726D01*
X145090777Y-99017729D01*
X145259602Y-99215398D01*
X145400409Y-99335658D01*
X145457273Y-99384225D01*
X145457276Y-99384226D01*
X145678915Y-99520048D01*
X145908465Y-99615130D01*
X145919080Y-99619527D01*
X146171850Y-99680211D01*
X146431000Y-99700607D01*
X146690150Y-99680211D01*
X146942920Y-99619527D01*
X147183084Y-99520048D01*
X147404729Y-99384223D01*
X147602398Y-99215398D01*
X147771223Y-99017729D01*
X147907048Y-98796084D01*
X148006527Y-98555920D01*
X148067211Y-98303150D01*
X148087607Y-98044000D01*
X148067211Y-97784850D01*
X148006527Y-97532080D01*
X147907048Y-97291915D01*
X147771226Y-97070276D01*
X147771225Y-97070273D01*
X147694165Y-96980048D01*
X147602398Y-96872602D01*
X147416892Y-96714165D01*
X147404726Y-96703774D01*
X147404723Y-96703773D01*
X147183084Y-96567951D01*
X146942919Y-96468472D01*
X146690153Y-96407789D01*
X146431000Y-96387393D01*
X146171846Y-96407789D01*
X145919080Y-96468472D01*
X145678915Y-96567951D01*
X145457276Y-96703773D01*
X145457273Y-96703774D01*
X145259602Y-96872602D01*
X145090774Y-97070273D01*
X145090773Y-97070276D01*
X144954951Y-97291915D01*
X144855472Y-97532080D01*
X144794789Y-97784846D01*
X144774393Y-98044000D01*
X135094156Y-98044000D01*
X135075564Y-97819632D01*
X135020296Y-97601384D01*
X134929860Y-97395209D01*
X134806722Y-97206732D01*
X134806719Y-97206729D01*
X134806715Y-97206723D01*
X134654243Y-97041097D01*
X134654238Y-97041092D01*
X134476577Y-96902812D01*
X134476578Y-96902812D01*
X134476576Y-96902811D01*
X134440070Y-96883055D01*
X134390479Y-96833836D01*
X134375371Y-96765619D01*
X134399541Y-96700064D01*
X134440070Y-96664945D01*
X134440084Y-96664936D01*
X134476576Y-96645189D01*
X134654240Y-96506906D01*
X134806722Y-96341268D01*
X134929860Y-96152791D01*
X135020296Y-95946616D01*
X135075564Y-95728368D01*
X135094156Y-95504000D01*
X151124393Y-95504000D01*
X151144789Y-95763153D01*
X151205472Y-96015919D01*
X151304951Y-96256084D01*
X151440773Y-96477723D01*
X151440774Y-96477726D01*
X151440777Y-96477729D01*
X151609602Y-96675398D01*
X151750409Y-96795658D01*
X151807273Y-96844225D01*
X151807276Y-96844226D01*
X152028915Y-96980048D01*
X152246734Y-97070271D01*
X152269080Y-97079527D01*
X152521850Y-97140211D01*
X152781000Y-97160607D01*
X153040150Y-97140211D01*
X153292920Y-97079527D01*
X153533084Y-96980048D01*
X153754729Y-96844223D01*
X153952398Y-96675398D01*
X154121223Y-96477729D01*
X154257048Y-96256084D01*
X154356527Y-96015920D01*
X154417211Y-95763150D01*
X154437607Y-95504000D01*
X154417211Y-95244850D01*
X154356527Y-94992080D01*
X154257048Y-94751915D01*
X154121226Y-94530276D01*
X154121225Y-94530273D01*
X154044165Y-94440048D01*
X153952398Y-94332602D01*
X153766892Y-94174165D01*
X153754726Y-94163774D01*
X153754723Y-94163773D01*
X153533084Y-94027951D01*
X153292919Y-93928472D01*
X153040153Y-93867789D01*
X152781000Y-93847393D01*
X152521846Y-93867789D01*
X152269080Y-93928472D01*
X152028915Y-94027951D01*
X151807276Y-94163773D01*
X151807273Y-94163774D01*
X151609602Y-94332602D01*
X151440774Y-94530273D01*
X151440773Y-94530276D01*
X151304951Y-94751915D01*
X151205472Y-94992080D01*
X151144789Y-95244846D01*
X151124393Y-95504000D01*
X135094156Y-95504000D01*
X135075564Y-95279632D01*
X135020296Y-95061384D01*
X134929860Y-94855209D01*
X134806722Y-94666732D01*
X134806719Y-94666729D01*
X134806715Y-94666723D01*
X134654243Y-94501097D01*
X134654238Y-94501092D01*
X134476577Y-94362812D01*
X134476578Y-94362812D01*
X134476576Y-94362811D01*
X134440070Y-94343055D01*
X134390479Y-94293836D01*
X134375371Y-94225619D01*
X134399541Y-94160064D01*
X134440070Y-94124945D01*
X134440084Y-94124936D01*
X134476576Y-94105189D01*
X134654240Y-93966906D01*
X134806722Y-93801268D01*
X134929860Y-93612791D01*
X135020296Y-93406616D01*
X135075564Y-93188368D01*
X135094156Y-92964000D01*
X144774393Y-92964000D01*
X144794789Y-93223153D01*
X144855472Y-93475919D01*
X144954951Y-93716084D01*
X145090773Y-93937723D01*
X145090774Y-93937726D01*
X145090777Y-93937729D01*
X145259602Y-94135398D01*
X145400409Y-94255658D01*
X145457273Y-94304225D01*
X145457276Y-94304226D01*
X145678915Y-94440048D01*
X145896734Y-94530271D01*
X145919080Y-94539527D01*
X146171850Y-94600211D01*
X146431000Y-94620607D01*
X146690150Y-94600211D01*
X146942920Y-94539527D01*
X147183084Y-94440048D01*
X147404729Y-94304223D01*
X147602398Y-94135398D01*
X147771223Y-93937729D01*
X147907048Y-93716084D01*
X148006527Y-93475920D01*
X148067211Y-93223150D01*
X148087607Y-92964000D01*
X148067211Y-92704850D01*
X148006527Y-92452080D01*
X147907048Y-92211915D01*
X147771226Y-91990276D01*
X147771225Y-91990273D01*
X147694165Y-91900048D01*
X147602398Y-91792602D01*
X147416892Y-91634165D01*
X147404726Y-91623774D01*
X147404723Y-91623773D01*
X147183084Y-91487951D01*
X146942919Y-91388472D01*
X146690153Y-91327789D01*
X146431000Y-91307393D01*
X146171846Y-91327789D01*
X145919080Y-91388472D01*
X145678915Y-91487951D01*
X145457276Y-91623773D01*
X145457273Y-91623774D01*
X145259602Y-91792602D01*
X145090774Y-91990273D01*
X145090773Y-91990276D01*
X144954951Y-92211915D01*
X144855472Y-92452080D01*
X144794789Y-92704846D01*
X144774393Y-92964000D01*
X135094156Y-92964000D01*
X135075564Y-92739632D01*
X135020296Y-92521384D01*
X134929860Y-92315209D01*
X134806722Y-92126732D01*
X134806719Y-92126729D01*
X134806715Y-92126723D01*
X134654243Y-91961097D01*
X134654238Y-91961092D01*
X134476577Y-91822812D01*
X134476578Y-91822812D01*
X134476576Y-91822811D01*
X134440070Y-91803055D01*
X134390479Y-91753836D01*
X134375371Y-91685619D01*
X134399541Y-91620064D01*
X134440070Y-91584945D01*
X134440084Y-91584936D01*
X134476576Y-91565189D01*
X134654240Y-91426906D01*
X134806722Y-91261268D01*
X134929860Y-91072791D01*
X135020296Y-90866616D01*
X135075564Y-90648368D01*
X135094156Y-90424000D01*
X151124393Y-90424000D01*
X151144789Y-90683153D01*
X151205472Y-90935919D01*
X151304951Y-91176084D01*
X151440773Y-91397723D01*
X151440774Y-91397726D01*
X151440777Y-91397729D01*
X151609602Y-91595398D01*
X151750409Y-91715658D01*
X151807273Y-91764225D01*
X151807276Y-91764226D01*
X152028915Y-91900048D01*
X152246734Y-91990271D01*
X152269080Y-91999527D01*
X152521850Y-92060211D01*
X152781000Y-92080607D01*
X153040150Y-92060211D01*
X153292920Y-91999527D01*
X153533084Y-91900048D01*
X153754729Y-91764223D01*
X153952398Y-91595398D01*
X154121223Y-91397729D01*
X154257048Y-91176084D01*
X154356527Y-90935920D01*
X154417211Y-90683150D01*
X154437607Y-90424000D01*
X154417211Y-90164850D01*
X154356527Y-89912080D01*
X154257048Y-89671915D01*
X154121226Y-89450276D01*
X154121225Y-89450273D01*
X154044165Y-89360048D01*
X153952398Y-89252602D01*
X153766892Y-89094165D01*
X153754726Y-89083774D01*
X153754723Y-89083773D01*
X153533084Y-88947951D01*
X153292919Y-88848472D01*
X153040153Y-88787789D01*
X152781000Y-88767393D01*
X152521846Y-88787789D01*
X152269080Y-88848472D01*
X152028915Y-88947951D01*
X151807276Y-89083773D01*
X151807273Y-89083774D01*
X151609602Y-89252602D01*
X151440774Y-89450273D01*
X151440773Y-89450276D01*
X151304951Y-89671915D01*
X151205472Y-89912080D01*
X151144789Y-90164846D01*
X151124393Y-90424000D01*
X135094156Y-90424000D01*
X135075564Y-90199632D01*
X135020296Y-89981384D01*
X134929860Y-89775209D01*
X134806722Y-89586732D01*
X134806719Y-89586729D01*
X134806715Y-89586723D01*
X134654243Y-89421097D01*
X134654238Y-89421092D01*
X134476577Y-89282812D01*
X134476578Y-89282812D01*
X134476576Y-89282811D01*
X134440070Y-89263055D01*
X134390479Y-89213836D01*
X134375371Y-89145619D01*
X134399541Y-89080064D01*
X134440070Y-89044945D01*
X134440084Y-89044936D01*
X134476576Y-89025189D01*
X134654240Y-88886906D01*
X134806722Y-88721268D01*
X134929860Y-88532791D01*
X135020296Y-88326616D01*
X135075564Y-88108368D01*
X135094156Y-87884000D01*
X144774393Y-87884000D01*
X144794789Y-88143153D01*
X144855472Y-88395919D01*
X144954951Y-88636084D01*
X145090773Y-88857723D01*
X145090774Y-88857726D01*
X145090777Y-88857729D01*
X145259602Y-89055398D01*
X145400409Y-89175658D01*
X145457273Y-89224225D01*
X145457276Y-89224226D01*
X145678915Y-89360048D01*
X145896734Y-89450271D01*
X145919080Y-89459527D01*
X146171850Y-89520211D01*
X146431000Y-89540607D01*
X146690150Y-89520211D01*
X146942920Y-89459527D01*
X147183084Y-89360048D01*
X147404729Y-89224223D01*
X147602398Y-89055398D01*
X147771223Y-88857729D01*
X147907048Y-88636084D01*
X148006527Y-88395920D01*
X148067211Y-88143150D01*
X148087607Y-87884000D01*
X148067211Y-87624850D01*
X148006527Y-87372080D01*
X147907048Y-87131915D01*
X147771226Y-86910276D01*
X147771225Y-86910273D01*
X147694165Y-86820048D01*
X147602398Y-86712602D01*
X147416892Y-86554165D01*
X147404726Y-86543774D01*
X147404723Y-86543773D01*
X147183084Y-86407951D01*
X146942919Y-86308472D01*
X146690153Y-86247789D01*
X146431000Y-86227393D01*
X146171846Y-86247789D01*
X145919080Y-86308472D01*
X145678915Y-86407951D01*
X145457276Y-86543773D01*
X145457273Y-86543774D01*
X145259602Y-86712602D01*
X145090774Y-86910273D01*
X145090773Y-86910276D01*
X144954951Y-87131915D01*
X144855472Y-87372080D01*
X144794789Y-87624846D01*
X144774393Y-87884000D01*
X135094156Y-87884000D01*
X135075564Y-87659632D01*
X135020296Y-87441384D01*
X134929860Y-87235209D01*
X134806722Y-87046732D01*
X134806719Y-87046729D01*
X134806715Y-87046723D01*
X134654243Y-86881097D01*
X134654238Y-86881092D01*
X134476577Y-86742812D01*
X134476578Y-86742812D01*
X134476576Y-86742811D01*
X134440070Y-86723055D01*
X134390479Y-86673836D01*
X134375371Y-86605619D01*
X134399541Y-86540064D01*
X134440070Y-86504945D01*
X134440084Y-86504936D01*
X134476576Y-86485189D01*
X134654240Y-86346906D01*
X134806722Y-86181268D01*
X134929860Y-85992791D01*
X135020296Y-85786616D01*
X135075564Y-85568368D01*
X135094156Y-85344000D01*
X151124393Y-85344000D01*
X151144789Y-85603153D01*
X151205472Y-85855919D01*
X151304951Y-86096084D01*
X151440773Y-86317723D01*
X151440774Y-86317726D01*
X151440777Y-86317729D01*
X151609602Y-86515398D01*
X151750409Y-86635658D01*
X151807273Y-86684225D01*
X151807276Y-86684226D01*
X152028915Y-86820048D01*
X152246734Y-86910271D01*
X152269080Y-86919527D01*
X152521850Y-86980211D01*
X152781000Y-87000607D01*
X153040150Y-86980211D01*
X153292920Y-86919527D01*
X153533084Y-86820048D01*
X153754729Y-86684223D01*
X153952398Y-86515398D01*
X154121223Y-86317729D01*
X154257048Y-86096084D01*
X154356527Y-85855920D01*
X154417211Y-85603150D01*
X154437607Y-85344000D01*
X154417211Y-85084850D01*
X154356527Y-84832080D01*
X154257048Y-84591915D01*
X154121226Y-84370276D01*
X154121225Y-84370273D01*
X154044165Y-84280048D01*
X153952398Y-84172602D01*
X153766892Y-84014165D01*
X153754726Y-84003774D01*
X153754723Y-84003773D01*
X153533084Y-83867951D01*
X153292919Y-83768472D01*
X153040153Y-83707789D01*
X152781000Y-83687393D01*
X152521846Y-83707789D01*
X152269080Y-83768472D01*
X152028915Y-83867951D01*
X151807276Y-84003773D01*
X151807273Y-84003774D01*
X151609602Y-84172602D01*
X151440774Y-84370273D01*
X151440773Y-84370276D01*
X151304951Y-84591915D01*
X151205472Y-84832080D01*
X151144789Y-85084846D01*
X151124393Y-85344000D01*
X135094156Y-85344000D01*
X135075564Y-85119632D01*
X135020296Y-84901384D01*
X134929860Y-84695209D01*
X134806722Y-84506732D01*
X134806719Y-84506729D01*
X134806715Y-84506723D01*
X134654243Y-84341097D01*
X134654238Y-84341092D01*
X134476577Y-84202812D01*
X134476578Y-84202812D01*
X134476576Y-84202811D01*
X134440070Y-84183055D01*
X134390479Y-84133836D01*
X134375371Y-84065619D01*
X134399541Y-84000064D01*
X134440070Y-83964945D01*
X134440084Y-83964936D01*
X134476576Y-83945189D01*
X134654240Y-83806906D01*
X134806722Y-83641268D01*
X134929860Y-83452791D01*
X135020296Y-83246616D01*
X135075564Y-83028368D01*
X135094156Y-82804000D01*
X135075564Y-82579632D01*
X135020296Y-82361384D01*
X134929860Y-82155209D01*
X134806722Y-81966732D01*
X134806719Y-81966729D01*
X134806715Y-81966723D01*
X134654243Y-81801097D01*
X134654238Y-81801092D01*
X134476577Y-81662812D01*
X134476577Y-81662811D01*
X134433303Y-81639393D01*
X134383713Y-81590173D01*
X134368605Y-81521957D01*
X134392775Y-81456401D01*
X134421198Y-81428763D01*
X134492373Y-81378925D01*
X133863533Y-80750086D01*
X133873315Y-80748680D01*
X134004100Y-80688952D01*
X134112761Y-80594798D01*
X134190493Y-80473844D01*
X134214076Y-80393524D01*
X134845925Y-81025373D01*
X134845926Y-81025373D01*
X134904598Y-80941582D01*
X134904600Y-80941578D01*
X135004429Y-80727492D01*
X135004433Y-80727483D01*
X135065567Y-80499326D01*
X135065569Y-80499315D01*
X135086157Y-80264001D01*
X135086157Y-80263998D01*
X135065569Y-80028684D01*
X135065567Y-80028673D01*
X135004433Y-79800516D01*
X135004429Y-79800507D01*
X134904600Y-79586423D01*
X134904599Y-79586421D01*
X134845925Y-79502626D01*
X134845925Y-79502625D01*
X134214076Y-80134475D01*
X134190493Y-80054156D01*
X134112761Y-79933202D01*
X134004100Y-79839048D01*
X133873315Y-79779320D01*
X133863533Y-79777913D01*
X134492373Y-79149073D01*
X134492373Y-79149072D01*
X134421199Y-79099236D01*
X134377574Y-79044659D01*
X134370380Y-78975161D01*
X134401903Y-78912806D01*
X134433305Y-78888606D01*
X134476576Y-78865189D01*
X134654240Y-78726906D01*
X134806722Y-78561268D01*
X134929860Y-78372791D01*
X135020296Y-78166616D01*
X135075564Y-77948368D01*
X135094156Y-77724000D01*
X135075564Y-77499632D01*
X135020296Y-77281384D01*
X134929860Y-77075209D01*
X134806722Y-76886732D01*
X134806719Y-76886729D01*
X134806715Y-76886723D01*
X134654243Y-76721097D01*
X134654238Y-76721092D01*
X134476577Y-76582812D01*
X134476572Y-76582808D01*
X134278580Y-76475661D01*
X134278577Y-76475659D01*
X134278574Y-76475658D01*
X134278571Y-76475657D01*
X134278569Y-76475656D01*
X134065637Y-76402556D01*
X133843569Y-76365500D01*
X133618431Y-76365500D01*
X133396362Y-76402556D01*
X133183430Y-76475656D01*
X133183419Y-76475661D01*
X132985427Y-76582808D01*
X132985422Y-76582812D01*
X132807761Y-76721092D01*
X132807756Y-76721097D01*
X132655284Y-76886723D01*
X132655276Y-76886734D01*
X132532140Y-77075207D01*
X132441703Y-77281385D01*
X132386436Y-77499628D01*
X132386434Y-77499640D01*
X132367844Y-77723994D01*
X132367844Y-77724005D01*
X132386434Y-77948359D01*
X132386436Y-77948371D01*
X132441703Y-78166614D01*
X132532140Y-78372792D01*
X132655276Y-78561265D01*
X132655284Y-78561276D01*
X132780900Y-78697729D01*
X132807760Y-78726906D01*
X132985424Y-78865189D01*
X133028695Y-78888606D01*
X133078286Y-78937825D01*
X133093394Y-79006042D01*
X133069224Y-79071597D01*
X133040801Y-79099236D01*
X132969626Y-79149072D01*
X132969625Y-79149072D01*
X133598466Y-79777913D01*
X133588685Y-79779320D01*
X133457900Y-79839048D01*
X133349239Y-79933202D01*
X133271507Y-80054156D01*
X133247923Y-80134476D01*
X132616072Y-79502625D01*
X132557401Y-79586419D01*
X132457570Y-79800507D01*
X132457566Y-79800516D01*
X132396432Y-80028673D01*
X132396430Y-80028684D01*
X132375843Y-80263998D01*
X132375843Y-80264001D01*
X132396430Y-80499315D01*
X132396432Y-80499326D01*
X132457566Y-80727483D01*
X132457570Y-80727492D01*
X132557400Y-80941579D01*
X132557402Y-80941583D01*
X132616072Y-81025373D01*
X132616073Y-81025373D01*
X133247923Y-80393523D01*
X133271507Y-80473844D01*
X133349239Y-80594798D01*
X133457900Y-80688952D01*
X133588685Y-80748680D01*
X133598466Y-80750086D01*
X132969625Y-81378925D01*
X133040801Y-81428763D01*
X133084426Y-81483340D01*
X133091620Y-81552838D01*
X133060097Y-81615193D01*
X133028697Y-81639392D01*
X132985427Y-81662809D01*
X132985422Y-81662812D01*
X132807761Y-81801092D01*
X132807756Y-81801097D01*
X132655284Y-81966723D01*
X132655276Y-81966734D01*
X132532140Y-82155207D01*
X132441703Y-82361385D01*
X132386436Y-82579628D01*
X132386434Y-82579640D01*
X132367844Y-82803994D01*
X132367844Y-82804005D01*
X132386434Y-83028359D01*
X132386436Y-83028371D01*
X132441703Y-83246614D01*
X132532140Y-83452792D01*
X132655276Y-83641265D01*
X132655284Y-83641276D01*
X132780900Y-83777729D01*
X132807760Y-83806906D01*
X132985424Y-83945189D01*
X132985429Y-83945191D01*
X132985431Y-83945193D01*
X133021930Y-83964946D01*
X133071520Y-84014165D01*
X133086628Y-84082382D01*
X133062457Y-84147937D01*
X133021930Y-84183054D01*
X132985431Y-84202806D01*
X132985422Y-84202812D01*
X132807761Y-84341092D01*
X132807756Y-84341097D01*
X132655284Y-84506723D01*
X132655276Y-84506734D01*
X132532140Y-84695207D01*
X132441703Y-84901385D01*
X132386436Y-85119628D01*
X132386434Y-85119640D01*
X132367844Y-85343994D01*
X132367844Y-85344005D01*
X132386434Y-85568359D01*
X132386436Y-85568371D01*
X132441703Y-85786614D01*
X132532140Y-85992792D01*
X132655276Y-86181265D01*
X132655284Y-86181276D01*
X132780900Y-86317729D01*
X132807760Y-86346906D01*
X132985424Y-86485189D01*
X132985429Y-86485191D01*
X132985431Y-86485193D01*
X133021930Y-86504946D01*
X133071520Y-86554165D01*
X133086628Y-86622382D01*
X133062457Y-86687937D01*
X133021930Y-86723054D01*
X132985431Y-86742806D01*
X132985422Y-86742812D01*
X132807761Y-86881092D01*
X132807756Y-86881097D01*
X132655284Y-87046723D01*
X132655276Y-87046734D01*
X132532140Y-87235207D01*
X132441703Y-87441385D01*
X132386436Y-87659628D01*
X132386434Y-87659640D01*
X132367844Y-87883994D01*
X132367844Y-87884005D01*
X132386434Y-88108359D01*
X132386436Y-88108371D01*
X132441703Y-88326614D01*
X132532140Y-88532792D01*
X132655276Y-88721265D01*
X132655284Y-88721276D01*
X132780900Y-88857729D01*
X132807760Y-88886906D01*
X132985424Y-89025189D01*
X132985429Y-89025191D01*
X132985431Y-89025193D01*
X133021930Y-89044946D01*
X133071520Y-89094165D01*
X133086628Y-89162382D01*
X133062457Y-89227937D01*
X133021930Y-89263054D01*
X132985431Y-89282806D01*
X132985422Y-89282812D01*
X132807761Y-89421092D01*
X132807756Y-89421097D01*
X132655284Y-89586723D01*
X132655276Y-89586734D01*
X132532140Y-89775207D01*
X132441703Y-89981385D01*
X132386436Y-90199628D01*
X132386434Y-90199640D01*
X132367844Y-90423994D01*
X132367844Y-90424005D01*
X132386434Y-90648359D01*
X132386436Y-90648371D01*
X132441703Y-90866614D01*
X132532140Y-91072792D01*
X132655276Y-91261265D01*
X132655284Y-91261276D01*
X132780900Y-91397729D01*
X132807760Y-91426906D01*
X132985424Y-91565189D01*
X132985429Y-91565191D01*
X132985431Y-91565193D01*
X133021930Y-91584946D01*
X133071520Y-91634165D01*
X133086628Y-91702382D01*
X133062457Y-91767937D01*
X133021930Y-91803054D01*
X132985431Y-91822806D01*
X132985422Y-91822812D01*
X132807761Y-91961092D01*
X132807756Y-91961097D01*
X132655284Y-92126723D01*
X132655276Y-92126734D01*
X132532140Y-92315207D01*
X132441703Y-92521385D01*
X132386436Y-92739628D01*
X132386434Y-92739640D01*
X132367844Y-92963994D01*
X132367844Y-92964005D01*
X132386434Y-93188359D01*
X132386436Y-93188371D01*
X132441703Y-93406614D01*
X132532140Y-93612792D01*
X132655276Y-93801265D01*
X132655284Y-93801276D01*
X132780900Y-93937729D01*
X132807760Y-93966906D01*
X132985424Y-94105189D01*
X132985429Y-94105191D01*
X132985431Y-94105193D01*
X133021930Y-94124946D01*
X133071520Y-94174165D01*
X133086628Y-94242382D01*
X133062457Y-94307937D01*
X133021930Y-94343054D01*
X132985431Y-94362806D01*
X132985422Y-94362812D01*
X132807761Y-94501092D01*
X132807756Y-94501097D01*
X132655284Y-94666723D01*
X132655276Y-94666734D01*
X132532140Y-94855207D01*
X132441703Y-95061385D01*
X132386436Y-95279628D01*
X132386434Y-95279640D01*
X132367844Y-95503994D01*
X132367844Y-95504005D01*
X132386434Y-95728359D01*
X132386436Y-95728371D01*
X132441703Y-95946614D01*
X132532140Y-96152792D01*
X132655276Y-96341265D01*
X132655284Y-96341276D01*
X132780900Y-96477729D01*
X132807760Y-96506906D01*
X132985424Y-96645189D01*
X132985429Y-96645191D01*
X132985431Y-96645193D01*
X133021930Y-96664946D01*
X133071520Y-96714165D01*
X133086628Y-96782382D01*
X133062457Y-96847937D01*
X133021930Y-96883054D01*
X132985431Y-96902806D01*
X132985422Y-96902812D01*
X132807761Y-97041092D01*
X132807756Y-97041097D01*
X132655284Y-97206723D01*
X132655276Y-97206734D01*
X132532140Y-97395207D01*
X132441703Y-97601385D01*
X132386436Y-97819628D01*
X132386434Y-97819640D01*
X132367844Y-98043994D01*
X132367844Y-98044005D01*
X132386434Y-98268359D01*
X132386436Y-98268371D01*
X132441703Y-98486614D01*
X132441705Y-98486618D01*
X132449632Y-98504691D01*
X132458535Y-98573991D01*
X132428557Y-98637103D01*
X132369217Y-98673989D01*
X132336076Y-98678500D01*
X119885924Y-98678500D01*
X119818885Y-98658815D01*
X119773130Y-98606011D01*
X119763186Y-98536853D01*
X119772368Y-98504691D01*
X119774143Y-98500643D01*
X119780296Y-98486616D01*
X119835564Y-98268368D01*
X119854156Y-98044000D01*
X119835564Y-97819632D01*
X119780296Y-97601384D01*
X119689860Y-97395209D01*
X119566722Y-97206732D01*
X119566719Y-97206729D01*
X119566715Y-97206723D01*
X119414243Y-97041097D01*
X119414238Y-97041092D01*
X119236577Y-96902812D01*
X119236578Y-96902812D01*
X119236576Y-96902811D01*
X119200070Y-96883055D01*
X119150479Y-96833836D01*
X119135371Y-96765619D01*
X119159541Y-96700064D01*
X119200070Y-96664945D01*
X119200084Y-96664936D01*
X119236576Y-96645189D01*
X119414240Y-96506906D01*
X119566722Y-96341268D01*
X119689860Y-96152791D01*
X119780296Y-95946616D01*
X119835564Y-95728368D01*
X119854156Y-95504000D01*
X119835564Y-95279632D01*
X119780296Y-95061384D01*
X119689860Y-94855209D01*
X119566722Y-94666732D01*
X119566719Y-94666729D01*
X119566715Y-94666723D01*
X119414243Y-94501097D01*
X119414238Y-94501092D01*
X119236577Y-94362812D01*
X119236578Y-94362812D01*
X119236576Y-94362811D01*
X119200070Y-94343055D01*
X119150479Y-94293836D01*
X119135371Y-94225619D01*
X119159541Y-94160064D01*
X119200070Y-94124945D01*
X119200084Y-94124936D01*
X119236576Y-94105189D01*
X119414240Y-93966906D01*
X119566722Y-93801268D01*
X119689860Y-93612791D01*
X119780296Y-93406616D01*
X119835564Y-93188368D01*
X119854156Y-92964000D01*
X119835564Y-92739632D01*
X119780296Y-92521384D01*
X119689860Y-92315209D01*
X119566722Y-92126732D01*
X119566719Y-92126729D01*
X119566715Y-92126723D01*
X119414243Y-91961097D01*
X119414238Y-91961092D01*
X119236577Y-91822812D01*
X119236578Y-91822812D01*
X119236576Y-91822811D01*
X119200070Y-91803055D01*
X119150479Y-91753836D01*
X119135371Y-91685619D01*
X119159541Y-91620064D01*
X119200070Y-91584945D01*
X119200084Y-91584936D01*
X119236576Y-91565189D01*
X119414240Y-91426906D01*
X119566722Y-91261268D01*
X119689860Y-91072791D01*
X119780296Y-90866616D01*
X119835564Y-90648368D01*
X119854156Y-90424000D01*
X119835564Y-90199632D01*
X119780296Y-89981384D01*
X119689860Y-89775209D01*
X119566722Y-89586732D01*
X119566719Y-89586729D01*
X119566715Y-89586723D01*
X119414243Y-89421097D01*
X119414238Y-89421092D01*
X119236577Y-89282812D01*
X119236578Y-89282812D01*
X119236576Y-89282811D01*
X119200070Y-89263055D01*
X119150479Y-89213836D01*
X119135371Y-89145619D01*
X119159541Y-89080064D01*
X119200070Y-89044945D01*
X119200084Y-89044936D01*
X119236576Y-89025189D01*
X119414240Y-88886906D01*
X119566722Y-88721268D01*
X119689860Y-88532791D01*
X119780296Y-88326616D01*
X119835564Y-88108368D01*
X119854156Y-87884000D01*
X119835564Y-87659632D01*
X119780296Y-87441384D01*
X119689860Y-87235209D01*
X119566722Y-87046732D01*
X119566719Y-87046729D01*
X119566715Y-87046723D01*
X119414243Y-86881097D01*
X119414238Y-86881092D01*
X119236577Y-86742812D01*
X119236578Y-86742812D01*
X119236576Y-86742811D01*
X119200070Y-86723055D01*
X119150479Y-86673836D01*
X119135371Y-86605619D01*
X119159541Y-86540064D01*
X119200070Y-86504945D01*
X119200084Y-86504936D01*
X119236576Y-86485189D01*
X119414240Y-86346906D01*
X119566722Y-86181268D01*
X119689860Y-85992791D01*
X119780296Y-85786616D01*
X119835564Y-85568368D01*
X119854156Y-85344000D01*
X119835564Y-85119632D01*
X119780296Y-84901384D01*
X119689860Y-84695209D01*
X119566722Y-84506732D01*
X119566719Y-84506729D01*
X119566715Y-84506723D01*
X119414243Y-84341097D01*
X119414238Y-84341092D01*
X119236577Y-84202812D01*
X119236578Y-84202812D01*
X119236576Y-84202811D01*
X119200070Y-84183055D01*
X119150479Y-84133836D01*
X119135371Y-84065619D01*
X119159541Y-84000064D01*
X119200070Y-83964945D01*
X119200084Y-83964936D01*
X119236576Y-83945189D01*
X119414240Y-83806906D01*
X119566722Y-83641268D01*
X119689860Y-83452791D01*
X119780296Y-83246616D01*
X119835564Y-83028368D01*
X119854156Y-82804000D01*
X119835564Y-82579632D01*
X119780296Y-82361384D01*
X119689860Y-82155209D01*
X119566722Y-81966732D01*
X119566719Y-81966729D01*
X119566715Y-81966723D01*
X119414243Y-81801097D01*
X119414238Y-81801092D01*
X119236577Y-81662812D01*
X119236578Y-81662812D01*
X119236576Y-81662811D01*
X119200070Y-81643055D01*
X119150479Y-81593836D01*
X119135371Y-81525619D01*
X119159541Y-81460064D01*
X119200070Y-81424945D01*
X119200084Y-81424936D01*
X119236576Y-81405189D01*
X119414240Y-81266906D01*
X119566722Y-81101268D01*
X119689860Y-80912791D01*
X119780296Y-80706616D01*
X119835564Y-80488368D01*
X119854156Y-80264000D01*
X119835564Y-80039632D01*
X119780296Y-79821384D01*
X119689860Y-79615209D01*
X119566722Y-79426732D01*
X119566719Y-79426729D01*
X119566715Y-79426723D01*
X119421510Y-79268991D01*
X119390587Y-79206337D01*
X119398447Y-79136911D01*
X119442594Y-79082755D01*
X119469405Y-79068827D01*
X119549584Y-79038920D01*
X119587204Y-79024889D01*
X119704261Y-78937261D01*
X119791889Y-78820204D01*
X119842989Y-78683201D01*
X119846591Y-78649692D01*
X119849499Y-78622654D01*
X119849500Y-78622637D01*
X119849500Y-76825362D01*
X119849499Y-76825345D01*
X119846157Y-76794270D01*
X119842989Y-76764799D01*
X119837572Y-76750276D01*
X119820522Y-76704564D01*
X119791889Y-76627796D01*
X119704261Y-76510739D01*
X119587204Y-76423111D01*
X119450203Y-76372011D01*
X119389654Y-76365500D01*
X119389638Y-76365500D01*
X117592362Y-76365500D01*
X117592345Y-76365500D01*
X117531797Y-76372011D01*
X117531795Y-76372011D01*
X117394795Y-76423111D01*
X117277739Y-76510739D01*
X117190111Y-76627795D01*
X117139011Y-76764795D01*
X117139011Y-76764797D01*
X117132500Y-76825345D01*
X117132500Y-78622654D01*
X117139011Y-78683202D01*
X117139011Y-78683204D01*
X117190111Y-78820204D01*
X117277739Y-78937261D01*
X117394796Y-79024889D01*
X117446737Y-79044262D01*
X117512595Y-79068827D01*
X117568528Y-79110699D01*
X117592944Y-79176163D01*
X117578092Y-79244436D01*
X117560490Y-79268991D01*
X117415279Y-79426730D01*
X117415276Y-79426734D01*
X117292140Y-79615207D01*
X117201703Y-79821385D01*
X117146436Y-80039628D01*
X117146434Y-80039640D01*
X117127844Y-80263994D01*
X117127844Y-80264005D01*
X117146434Y-80488359D01*
X117146436Y-80488371D01*
X117201703Y-80706614D01*
X117292140Y-80912792D01*
X117415276Y-81101265D01*
X117415284Y-81101276D01*
X117540900Y-81237729D01*
X117567760Y-81266906D01*
X117745424Y-81405189D01*
X117745429Y-81405191D01*
X117745431Y-81405193D01*
X117781930Y-81424946D01*
X117831520Y-81474165D01*
X117846628Y-81542382D01*
X117822457Y-81607937D01*
X117781930Y-81643054D01*
X117745431Y-81662806D01*
X117745422Y-81662812D01*
X117567761Y-81801092D01*
X117567756Y-81801097D01*
X117415284Y-81966723D01*
X117415276Y-81966734D01*
X117292140Y-82155207D01*
X117201703Y-82361385D01*
X117146436Y-82579628D01*
X117146434Y-82579640D01*
X117127844Y-82803994D01*
X117127844Y-82804005D01*
X117146434Y-83028359D01*
X117146436Y-83028371D01*
X117201703Y-83246614D01*
X117292140Y-83452792D01*
X117415276Y-83641265D01*
X117415284Y-83641276D01*
X117540900Y-83777729D01*
X117567760Y-83806906D01*
X117745424Y-83945189D01*
X117745429Y-83945191D01*
X117745431Y-83945193D01*
X117781930Y-83964946D01*
X117831520Y-84014165D01*
X117846628Y-84082382D01*
X117822457Y-84147937D01*
X117781930Y-84183054D01*
X117745431Y-84202806D01*
X117745422Y-84202812D01*
X117567761Y-84341092D01*
X117567756Y-84341097D01*
X117415284Y-84506723D01*
X117415276Y-84506734D01*
X117292140Y-84695207D01*
X117201703Y-84901385D01*
X117146436Y-85119628D01*
X117146434Y-85119640D01*
X117127844Y-85343994D01*
X117127844Y-85344005D01*
X117146434Y-85568359D01*
X117146436Y-85568371D01*
X117201703Y-85786614D01*
X117292140Y-85992792D01*
X117415276Y-86181265D01*
X117415284Y-86181276D01*
X117540900Y-86317729D01*
X117567760Y-86346906D01*
X117745424Y-86485189D01*
X117745429Y-86485191D01*
X117745431Y-86485193D01*
X117781930Y-86504946D01*
X117831520Y-86554165D01*
X117846628Y-86622382D01*
X117822457Y-86687937D01*
X117781930Y-86723054D01*
X117745431Y-86742806D01*
X117745422Y-86742812D01*
X117567761Y-86881092D01*
X117567756Y-86881097D01*
X117415284Y-87046723D01*
X117415276Y-87046734D01*
X117292140Y-87235207D01*
X117201703Y-87441385D01*
X117146436Y-87659628D01*
X117146434Y-87659640D01*
X117127844Y-87883994D01*
X117127844Y-87884005D01*
X117146434Y-88108359D01*
X117146436Y-88108371D01*
X117201703Y-88326614D01*
X117292140Y-88532792D01*
X117415276Y-88721265D01*
X117415284Y-88721276D01*
X117540900Y-88857729D01*
X117567760Y-88886906D01*
X117745424Y-89025189D01*
X117745429Y-89025191D01*
X117745431Y-89025193D01*
X117781930Y-89044946D01*
X117831520Y-89094165D01*
X117846628Y-89162382D01*
X117822457Y-89227937D01*
X117781930Y-89263054D01*
X117745431Y-89282806D01*
X117745422Y-89282812D01*
X117567761Y-89421092D01*
X117567756Y-89421097D01*
X117415284Y-89586723D01*
X117415276Y-89586734D01*
X117292140Y-89775207D01*
X117201703Y-89981385D01*
X117146436Y-90199628D01*
X117146434Y-90199640D01*
X117127844Y-90423994D01*
X117127844Y-90424005D01*
X117146434Y-90648359D01*
X117146436Y-90648371D01*
X117201703Y-90866614D01*
X117292140Y-91072792D01*
X117415276Y-91261265D01*
X117415284Y-91261276D01*
X117540900Y-91397729D01*
X117567760Y-91426906D01*
X117745424Y-91565189D01*
X117745429Y-91565191D01*
X117745431Y-91565193D01*
X117781930Y-91584946D01*
X117831520Y-91634165D01*
X117846628Y-91702382D01*
X117822457Y-91767937D01*
X117781930Y-91803054D01*
X117745431Y-91822806D01*
X117745422Y-91822812D01*
X117567761Y-91961092D01*
X117567756Y-91961097D01*
X117415284Y-92126723D01*
X117415276Y-92126734D01*
X117292140Y-92315207D01*
X117201703Y-92521385D01*
X117146436Y-92739628D01*
X117146434Y-92739640D01*
X117127844Y-92963994D01*
X117127844Y-92964005D01*
X117146434Y-93188359D01*
X117146436Y-93188371D01*
X117201703Y-93406614D01*
X117292140Y-93612792D01*
X117415276Y-93801265D01*
X117415284Y-93801276D01*
X117540900Y-93937729D01*
X117567760Y-93966906D01*
X117745424Y-94105189D01*
X117745429Y-94105191D01*
X117745431Y-94105193D01*
X117781930Y-94124946D01*
X117831520Y-94174165D01*
X117846628Y-94242382D01*
X117822457Y-94307937D01*
X117781930Y-94343054D01*
X117745431Y-94362806D01*
X117745422Y-94362812D01*
X117567761Y-94501092D01*
X117567756Y-94501097D01*
X117415284Y-94666723D01*
X117415276Y-94666734D01*
X117292140Y-94855207D01*
X117201703Y-95061385D01*
X117146436Y-95279628D01*
X117146434Y-95279640D01*
X117127844Y-95503994D01*
X117127844Y-95504005D01*
X117146434Y-95728359D01*
X117146436Y-95728371D01*
X117201703Y-95946614D01*
X117292140Y-96152792D01*
X117415276Y-96341265D01*
X117415284Y-96341276D01*
X117540900Y-96477729D01*
X117567760Y-96506906D01*
X117745424Y-96645189D01*
X117745429Y-96645191D01*
X117745431Y-96645193D01*
X117781930Y-96664946D01*
X117831520Y-96714165D01*
X117846628Y-96782382D01*
X117822457Y-96847937D01*
X117781930Y-96883054D01*
X117745431Y-96902806D01*
X117745422Y-96902812D01*
X117567761Y-97041092D01*
X117567756Y-97041097D01*
X117415284Y-97206723D01*
X117415276Y-97206734D01*
X117292140Y-97395207D01*
X117201703Y-97601385D01*
X117146436Y-97819628D01*
X117146434Y-97819640D01*
X117127844Y-98043994D01*
X117127844Y-98044005D01*
X117146434Y-98268359D01*
X117146436Y-98268371D01*
X117201703Y-98486614D01*
X117201705Y-98486618D01*
X117209632Y-98504691D01*
X117218535Y-98573991D01*
X117188557Y-98637103D01*
X117129217Y-98673989D01*
X117096076Y-98678500D01*
X116415852Y-98678500D01*
X116400069Y-98676757D01*
X116400044Y-98677025D01*
X116392282Y-98676291D01*
X116392281Y-98676291D01*
X116321997Y-98678500D01*
X116292017Y-98678500D01*
X116292014Y-98678500D01*
X116291999Y-98678501D01*
X116284981Y-98679387D01*
X116279164Y-98679845D01*
X116231800Y-98681334D01*
X116231794Y-98681335D01*
X116212093Y-98687058D01*
X116193054Y-98691000D01*
X116172711Y-98693571D01*
X116172703Y-98693572D01*
X116172701Y-98693573D01*
X116172699Y-98693573D01*
X116172693Y-98693575D01*
X116128645Y-98711014D01*
X116123122Y-98712905D01*
X116077609Y-98726130D01*
X116077607Y-98726130D01*
X116077607Y-98726131D01*
X116059948Y-98736573D01*
X116042483Y-98745129D01*
X116023415Y-98752678D01*
X116023414Y-98752679D01*
X115985070Y-98780537D01*
X115980188Y-98783743D01*
X115939398Y-98807868D01*
X115924902Y-98822364D01*
X115910112Y-98834996D01*
X115893516Y-98847054D01*
X115893512Y-98847057D01*
X115863296Y-98883581D01*
X115859364Y-98887902D01*
X115216086Y-99531181D01*
X115154763Y-99564666D01*
X115128405Y-99567500D01*
X109426256Y-99567500D01*
X109359217Y-99547815D01*
X109313462Y-99495011D01*
X109303518Y-99425853D01*
X109332543Y-99362297D01*
X109345724Y-99349210D01*
X109361591Y-99335658D01*
X109502398Y-99215398D01*
X109671223Y-99017729D01*
X109807048Y-98796084D01*
X109906527Y-98555920D01*
X109967211Y-98303150D01*
X109987607Y-98044000D01*
X109967211Y-97784850D01*
X109906527Y-97532080D01*
X109807048Y-97291915D01*
X109671226Y-97070276D01*
X109671225Y-97070273D01*
X109594165Y-96980048D01*
X109502398Y-96872602D01*
X109316892Y-96714165D01*
X109304726Y-96703774D01*
X109304723Y-96703773D01*
X109083084Y-96567951D01*
X108842919Y-96468472D01*
X108590153Y-96407789D01*
X108331000Y-96387393D01*
X108071846Y-96407789D01*
X107819080Y-96468472D01*
X107578915Y-96567951D01*
X107357276Y-96703773D01*
X107357273Y-96703774D01*
X107159602Y-96872602D01*
X106990774Y-97070273D01*
X106990773Y-97070276D01*
X106854951Y-97291915D01*
X106755472Y-97532080D01*
X106694789Y-97784846D01*
X106674393Y-98044000D01*
X106694789Y-98303153D01*
X106755472Y-98555919D01*
X106854951Y-98796084D01*
X106990773Y-99017723D01*
X106990774Y-99017726D01*
X106990777Y-99017729D01*
X107159602Y-99215398D01*
X107300409Y-99335658D01*
X107316276Y-99349210D01*
X107354469Y-99407717D01*
X107354967Y-99477585D01*
X107317614Y-99536631D01*
X107254267Y-99566109D01*
X107235744Y-99567500D01*
X103639647Y-99567500D01*
X103623867Y-99565758D01*
X103623842Y-99566026D01*
X103616081Y-99565292D01*
X103545815Y-99567500D01*
X103515813Y-99567500D01*
X103508773Y-99568388D01*
X103502960Y-99568845D01*
X103455600Y-99570334D01*
X103455594Y-99570335D01*
X103435893Y-99576058D01*
X103416854Y-99580000D01*
X103396511Y-99582571D01*
X103396503Y-99582572D01*
X103396501Y-99582573D01*
X103396499Y-99582573D01*
X103396493Y-99582575D01*
X103352445Y-99600014D01*
X103346922Y-99601905D01*
X103301409Y-99615130D01*
X103301407Y-99615130D01*
X103301407Y-99615131D01*
X103283748Y-99625573D01*
X103266283Y-99634129D01*
X103247215Y-99641678D01*
X103247214Y-99641679D01*
X103208870Y-99669537D01*
X103203988Y-99672743D01*
X103163198Y-99696868D01*
X103148702Y-99711364D01*
X103133912Y-99723996D01*
X103117316Y-99736054D01*
X103117312Y-99736057D01*
X103087096Y-99772581D01*
X103083164Y-99776902D01*
X102098921Y-100761144D01*
X102086531Y-100771072D01*
X102086702Y-100771279D01*
X102080696Y-100776247D01*
X102055878Y-100802675D01*
X102032573Y-100827493D01*
X102025503Y-100834563D01*
X102011365Y-100848700D01*
X102011363Y-100848702D01*
X102007008Y-100854316D01*
X102003218Y-100858753D01*
X101970782Y-100893294D01*
X101970781Y-100893296D01*
X101960900Y-100911268D01*
X101950225Y-100927519D01*
X101937652Y-100943729D01*
X101937649Y-100943733D01*
X101918827Y-100987228D01*
X101916257Y-100992474D01*
X101893430Y-101033997D01*
X101888329Y-101053864D01*
X101882030Y-101072262D01*
X101873884Y-101091087D01*
X101873881Y-101091096D01*
X101866469Y-101137898D01*
X101865284Y-101143620D01*
X101853500Y-101189511D01*
X101853500Y-101210025D01*
X101851973Y-101229424D01*
X101849185Y-101247030D01*
X101848765Y-101249679D01*
X101850320Y-101266131D01*
X101853225Y-101296859D01*
X101853500Y-101302697D01*
X101853500Y-106619404D01*
X101833815Y-106686443D01*
X101817181Y-106707085D01*
X101012160Y-107512106D01*
X96256921Y-112267344D01*
X96244531Y-112277272D01*
X96244702Y-112277479D01*
X96238696Y-112282447D01*
X96213878Y-112308875D01*
X96190573Y-112333693D01*
X96183503Y-112340763D01*
X96169365Y-112354900D01*
X96169363Y-112354902D01*
X96165008Y-112360516D01*
X96161218Y-112364953D01*
X96128782Y-112399494D01*
X96128781Y-112399496D01*
X96118900Y-112417468D01*
X96108225Y-112433719D01*
X96095652Y-112449929D01*
X96095649Y-112449933D01*
X96076827Y-112493428D01*
X96074257Y-112498674D01*
X96051430Y-112540197D01*
X96046329Y-112560064D01*
X96040030Y-112578462D01*
X96031884Y-112597287D01*
X96031881Y-112597296D01*
X96024469Y-112644098D01*
X96023284Y-112649820D01*
X96011500Y-112695711D01*
X96011500Y-112716225D01*
X96009972Y-112735624D01*
X96006765Y-112755879D01*
X96010214Y-112792368D01*
X96011225Y-112803059D01*
X96011500Y-112808897D01*
X96011500Y-112874226D01*
X95992495Y-112940196D01*
X95978694Y-112962160D01*
X95923832Y-113118947D01*
X95905236Y-113283997D01*
X95905236Y-113284002D01*
X95923832Y-113449052D01*
X95978693Y-113605838D01*
X96067066Y-113746482D01*
X96093197Y-113772613D01*
X96126682Y-113833936D01*
X96121698Y-113903628D01*
X96079826Y-113959561D01*
X96071489Y-113965287D01*
X96057520Y-113974064D01*
X96057517Y-113974066D01*
X95940066Y-114091517D01*
X95851693Y-114232161D01*
X95796832Y-114388947D01*
X95778236Y-114553997D01*
X95778236Y-114554002D01*
X95796832Y-114719052D01*
X95851693Y-114875838D01*
X95940066Y-115016482D01*
X96024903Y-115101319D01*
X96058388Y-115162642D01*
X96053404Y-115232334D01*
X96024903Y-115276681D01*
X95940066Y-115361517D01*
X95851693Y-115502161D01*
X95796832Y-115658947D01*
X95778236Y-115823997D01*
X95778236Y-115824002D01*
X95796832Y-115989052D01*
X95851693Y-116145838D01*
X95940066Y-116286482D01*
X96024903Y-116371319D01*
X96058388Y-116432642D01*
X96053404Y-116502334D01*
X96024903Y-116546681D01*
X95940066Y-116631517D01*
X95851693Y-116772161D01*
X95796832Y-116928947D01*
X95778236Y-117093997D01*
X95778236Y-117094002D01*
X95796832Y-117259052D01*
X95851693Y-117415838D01*
X95940066Y-117556482D01*
X96024903Y-117641319D01*
X96058388Y-117702642D01*
X96053404Y-117772334D01*
X96024903Y-117816681D01*
X95940066Y-117901517D01*
X95851693Y-118042161D01*
X95796832Y-118198947D01*
X95778236Y-118363997D01*
X95778236Y-118364002D01*
X94437700Y-118364002D01*
X94437700Y-95504000D01*
X100324393Y-95504000D01*
X100344789Y-95763153D01*
X100405472Y-96015919D01*
X100504951Y-96256084D01*
X100640773Y-96477723D01*
X100640774Y-96477726D01*
X100640777Y-96477729D01*
X100809602Y-96675398D01*
X100950409Y-96795658D01*
X101007273Y-96844225D01*
X101007276Y-96844226D01*
X101228915Y-96980048D01*
X101446734Y-97070271D01*
X101469080Y-97079527D01*
X101721850Y-97140211D01*
X101981000Y-97160607D01*
X102240150Y-97140211D01*
X102492920Y-97079527D01*
X102733084Y-96980048D01*
X102954729Y-96844223D01*
X103152398Y-96675398D01*
X103321223Y-96477729D01*
X103457048Y-96256084D01*
X103556527Y-96015920D01*
X103617211Y-95763150D01*
X103637607Y-95504000D01*
X103617211Y-95244850D01*
X103556527Y-94992080D01*
X103457048Y-94751915D01*
X103321226Y-94530276D01*
X103321225Y-94530273D01*
X103244165Y-94440048D01*
X103152398Y-94332602D01*
X102966892Y-94174165D01*
X102954726Y-94163774D01*
X102954723Y-94163773D01*
X102733084Y-94027951D01*
X102492919Y-93928472D01*
X102240153Y-93867789D01*
X101981000Y-93847393D01*
X101721846Y-93867789D01*
X101469080Y-93928472D01*
X101228915Y-94027951D01*
X101007276Y-94163773D01*
X101007273Y-94163774D01*
X100809602Y-94332602D01*
X100640774Y-94530273D01*
X100640773Y-94530276D01*
X100504951Y-94751915D01*
X100405472Y-94992080D01*
X100344789Y-95244846D01*
X100324393Y-95504000D01*
X94437700Y-95504000D01*
X94437700Y-92964000D01*
X106674393Y-92964000D01*
X106694789Y-93223153D01*
X106755472Y-93475919D01*
X106854951Y-93716084D01*
X106990773Y-93937723D01*
X106990774Y-93937726D01*
X106990777Y-93937729D01*
X107159602Y-94135398D01*
X107300409Y-94255658D01*
X107357273Y-94304225D01*
X107357276Y-94304226D01*
X107578915Y-94440048D01*
X107796734Y-94530271D01*
X107819080Y-94539527D01*
X108071850Y-94600211D01*
X108331000Y-94620607D01*
X108590150Y-94600211D01*
X108842920Y-94539527D01*
X109083084Y-94440048D01*
X109304729Y-94304223D01*
X109502398Y-94135398D01*
X109671223Y-93937729D01*
X109807048Y-93716084D01*
X109906527Y-93475920D01*
X109967211Y-93223150D01*
X109987607Y-92964000D01*
X109967211Y-92704850D01*
X109906527Y-92452080D01*
X109807048Y-92211915D01*
X109671226Y-91990276D01*
X109671225Y-91990273D01*
X109594165Y-91900048D01*
X109502398Y-91792602D01*
X109316892Y-91634165D01*
X109304726Y-91623774D01*
X109304723Y-91623773D01*
X109083084Y-91487951D01*
X108842919Y-91388472D01*
X108590153Y-91327789D01*
X108331000Y-91307393D01*
X108071846Y-91327789D01*
X107819080Y-91388472D01*
X107578915Y-91487951D01*
X107357276Y-91623773D01*
X107357273Y-91623774D01*
X107159602Y-91792602D01*
X106990774Y-91990273D01*
X106990773Y-91990276D01*
X106854951Y-92211915D01*
X106755472Y-92452080D01*
X106694789Y-92704846D01*
X106674393Y-92964000D01*
X94437700Y-92964000D01*
X94437700Y-90424000D01*
X100324393Y-90424000D01*
X100344789Y-90683153D01*
X100405472Y-90935919D01*
X100504951Y-91176084D01*
X100640773Y-91397723D01*
X100640774Y-91397726D01*
X100640777Y-91397729D01*
X100809602Y-91595398D01*
X100950409Y-91715658D01*
X101007273Y-91764225D01*
X101007276Y-91764226D01*
X101228915Y-91900048D01*
X101446734Y-91990271D01*
X101469080Y-91999527D01*
X101721850Y-92060211D01*
X101981000Y-92080607D01*
X102240150Y-92060211D01*
X102492920Y-91999527D01*
X102733084Y-91900048D01*
X102954729Y-91764223D01*
X103152398Y-91595398D01*
X103321223Y-91397729D01*
X103457048Y-91176084D01*
X103556527Y-90935920D01*
X103617211Y-90683150D01*
X103637607Y-90424000D01*
X103617211Y-90164850D01*
X103556527Y-89912080D01*
X103457048Y-89671915D01*
X103321226Y-89450276D01*
X103321225Y-89450273D01*
X103244165Y-89360048D01*
X103152398Y-89252602D01*
X102966892Y-89094165D01*
X102954726Y-89083774D01*
X102954723Y-89083773D01*
X102733084Y-88947951D01*
X102492919Y-88848472D01*
X102240153Y-88787789D01*
X101981000Y-88767393D01*
X101721846Y-88787789D01*
X101469080Y-88848472D01*
X101228915Y-88947951D01*
X101007276Y-89083773D01*
X101007273Y-89083774D01*
X100809602Y-89252602D01*
X100640774Y-89450273D01*
X100640773Y-89450276D01*
X100504951Y-89671915D01*
X100405472Y-89912080D01*
X100344789Y-90164846D01*
X100324393Y-90424000D01*
X94437700Y-90424000D01*
X94437700Y-87884000D01*
X106674393Y-87884000D01*
X106694789Y-88143153D01*
X106755472Y-88395919D01*
X106854951Y-88636084D01*
X106990773Y-88857723D01*
X106990774Y-88857726D01*
X106990777Y-88857729D01*
X107159602Y-89055398D01*
X107300409Y-89175658D01*
X107357273Y-89224225D01*
X107357276Y-89224226D01*
X107578915Y-89360048D01*
X107796734Y-89450271D01*
X107819080Y-89459527D01*
X108071850Y-89520211D01*
X108331000Y-89540607D01*
X108590150Y-89520211D01*
X108842920Y-89459527D01*
X109083084Y-89360048D01*
X109304729Y-89224223D01*
X109502398Y-89055398D01*
X109671223Y-88857729D01*
X109807048Y-88636084D01*
X109906527Y-88395920D01*
X109967211Y-88143150D01*
X109987607Y-87884000D01*
X109967211Y-87624850D01*
X109906527Y-87372080D01*
X109807048Y-87131915D01*
X109671226Y-86910276D01*
X109671225Y-86910273D01*
X109594165Y-86820048D01*
X109502398Y-86712602D01*
X109316892Y-86554165D01*
X109304726Y-86543774D01*
X109304723Y-86543773D01*
X109083084Y-86407951D01*
X108842919Y-86308472D01*
X108590153Y-86247789D01*
X108331000Y-86227393D01*
X108071846Y-86247789D01*
X107819080Y-86308472D01*
X107578915Y-86407951D01*
X107357276Y-86543773D01*
X107357273Y-86543774D01*
X107159602Y-86712602D01*
X106990774Y-86910273D01*
X106990773Y-86910276D01*
X106854951Y-87131915D01*
X106755472Y-87372080D01*
X106694789Y-87624846D01*
X106674393Y-87884000D01*
X94437700Y-87884000D01*
X94437700Y-85344000D01*
X100324393Y-85344000D01*
X100344789Y-85603153D01*
X100405472Y-85855919D01*
X100504951Y-86096084D01*
X100640773Y-86317723D01*
X100640774Y-86317726D01*
X100640777Y-86317729D01*
X100809602Y-86515398D01*
X100950409Y-86635658D01*
X101007273Y-86684225D01*
X101007276Y-86684226D01*
X101228915Y-86820048D01*
X101446734Y-86910271D01*
X101469080Y-86919527D01*
X101721850Y-86980211D01*
X101981000Y-87000607D01*
X102240150Y-86980211D01*
X102492920Y-86919527D01*
X102733084Y-86820048D01*
X102954729Y-86684223D01*
X103152398Y-86515398D01*
X103321223Y-86317729D01*
X103457048Y-86096084D01*
X103556527Y-85855920D01*
X103617211Y-85603150D01*
X103637607Y-85344000D01*
X103617211Y-85084850D01*
X103556527Y-84832080D01*
X103457048Y-84591915D01*
X103321226Y-84370276D01*
X103321225Y-84370273D01*
X103244165Y-84280048D01*
X103152398Y-84172602D01*
X102966892Y-84014165D01*
X102954726Y-84003774D01*
X102954723Y-84003773D01*
X102733084Y-83867951D01*
X102492919Y-83768472D01*
X102240153Y-83707789D01*
X101981000Y-83687393D01*
X101721846Y-83707789D01*
X101469080Y-83768472D01*
X101228915Y-83867951D01*
X101007276Y-84003773D01*
X101007273Y-84003774D01*
X100809602Y-84172602D01*
X100640774Y-84370273D01*
X100640773Y-84370276D01*
X100504951Y-84591915D01*
X100405472Y-84832080D01*
X100344789Y-85084846D01*
X100324393Y-85344000D01*
X94437700Y-85344000D01*
X94437700Y-82804000D01*
X106674393Y-82804000D01*
X106694789Y-83063153D01*
X106755472Y-83315919D01*
X106854951Y-83556084D01*
X106990773Y-83777723D01*
X106990774Y-83777726D01*
X106990777Y-83777729D01*
X107159602Y-83975398D01*
X107300409Y-84095658D01*
X107357273Y-84144225D01*
X107357276Y-84144226D01*
X107578915Y-84280048D01*
X107796734Y-84370271D01*
X107819080Y-84379527D01*
X108071850Y-84440211D01*
X108331000Y-84460607D01*
X108590150Y-84440211D01*
X108842920Y-84379527D01*
X109083084Y-84280048D01*
X109304729Y-84144223D01*
X109502398Y-83975398D01*
X109671223Y-83777729D01*
X109807048Y-83556084D01*
X109906527Y-83315920D01*
X109967211Y-83063150D01*
X109987607Y-82804000D01*
X109967211Y-82544850D01*
X109906527Y-82292080D01*
X109807048Y-82051915D01*
X109671226Y-81830276D01*
X109671225Y-81830273D01*
X109594165Y-81740048D01*
X109502398Y-81632602D01*
X109361591Y-81512342D01*
X109304726Y-81463774D01*
X109304723Y-81463773D01*
X109083084Y-81327951D01*
X108842919Y-81228472D01*
X108590153Y-81167789D01*
X108331000Y-81147393D01*
X108071846Y-81167789D01*
X107819080Y-81228472D01*
X107578915Y-81327951D01*
X107357276Y-81463773D01*
X107357273Y-81463774D01*
X107159602Y-81632602D01*
X106990774Y-81830273D01*
X106990773Y-81830276D01*
X106854951Y-82051915D01*
X106755472Y-82292080D01*
X106694789Y-82544846D01*
X106674393Y-82804000D01*
X94437700Y-82804000D01*
X94437700Y-80264000D01*
X100324393Y-80264000D01*
X100344789Y-80523153D01*
X100405472Y-80775919D01*
X100504951Y-81016084D01*
X100640773Y-81237723D01*
X100640774Y-81237726D01*
X100640777Y-81237729D01*
X100809602Y-81435398D01*
X100947107Y-81552838D01*
X101007273Y-81604225D01*
X101007276Y-81604226D01*
X101228915Y-81740048D01*
X101446734Y-81830271D01*
X101469080Y-81839527D01*
X101721850Y-81900211D01*
X101981000Y-81920607D01*
X102240150Y-81900211D01*
X102492920Y-81839527D01*
X102733084Y-81740048D01*
X102954729Y-81604223D01*
X103152398Y-81435398D01*
X103321223Y-81237729D01*
X103457048Y-81016084D01*
X103556527Y-80775920D01*
X103617211Y-80523150D01*
X103637607Y-80264000D01*
X103617211Y-80004850D01*
X103556527Y-79752080D01*
X103457048Y-79511915D01*
X103321226Y-79290276D01*
X103321225Y-79290273D01*
X103282076Y-79244436D01*
X103152398Y-79092602D01*
X103011591Y-78972342D01*
X102954726Y-78923774D01*
X102954723Y-78923773D01*
X102733084Y-78787951D01*
X102492919Y-78688472D01*
X102240153Y-78627789D01*
X101981000Y-78607393D01*
X101721846Y-78627789D01*
X101469080Y-78688472D01*
X101228915Y-78787951D01*
X101007276Y-78923773D01*
X101007273Y-78923774D01*
X100809602Y-79092602D01*
X100640774Y-79290273D01*
X100640773Y-79290276D01*
X100504951Y-79511915D01*
X100405472Y-79752080D01*
X100344789Y-80004846D01*
X100324393Y-80264000D01*
X94437700Y-80264000D01*
X94437700Y-77724000D01*
X106674393Y-77724000D01*
X106694789Y-77983153D01*
X106755472Y-78235919D01*
X106854951Y-78476084D01*
X106990773Y-78697723D01*
X106990774Y-78697726D01*
X106990777Y-78697729D01*
X107159602Y-78895398D01*
X107249692Y-78972342D01*
X107357273Y-79064225D01*
X107357276Y-79064226D01*
X107578915Y-79200048D01*
X107686078Y-79244436D01*
X107819080Y-79299527D01*
X108071850Y-79360211D01*
X108331000Y-79380607D01*
X108590150Y-79360211D01*
X108842920Y-79299527D01*
X109083084Y-79200048D01*
X109304729Y-79064223D01*
X109502398Y-78895398D01*
X109671223Y-78697729D01*
X109807048Y-78476084D01*
X109906527Y-78235920D01*
X109967211Y-77983150D01*
X109987607Y-77724000D01*
X109967211Y-77464850D01*
X109906527Y-77212080D01*
X109807048Y-76971915D01*
X109671226Y-76750276D01*
X109671225Y-76750273D01*
X109633084Y-76705616D01*
X109502398Y-76552602D01*
X109350783Y-76423111D01*
X109304726Y-76383774D01*
X109304723Y-76383773D01*
X109083084Y-76247951D01*
X108842919Y-76148472D01*
X108590153Y-76087789D01*
X108331000Y-76067393D01*
X108071846Y-76087789D01*
X107819080Y-76148472D01*
X107578915Y-76247951D01*
X107357276Y-76383773D01*
X107357273Y-76383774D01*
X107159602Y-76552602D01*
X106990774Y-76750273D01*
X106990773Y-76750276D01*
X106854951Y-76971915D01*
X106755472Y-77212080D01*
X106694789Y-77464846D01*
X106674393Y-77724000D01*
X94437700Y-77724000D01*
X94437700Y-74549000D01*
X94455155Y-74082482D01*
X94455498Y-74077911D01*
X94507511Y-73616288D01*
X94508199Y-73611733D01*
X94594558Y-73155315D01*
X94595580Y-73150837D01*
X94715813Y-72702119D01*
X94717167Y-72697733D01*
X94870593Y-72259269D01*
X94872274Y-72254988D01*
X95058029Y-71829234D01*
X95060032Y-71825071D01*
X95277089Y-71414381D01*
X95279393Y-71410392D01*
X95526522Y-71017088D01*
X95529135Y-71013255D01*
X95804972Y-70639509D01*
X95807846Y-70635907D01*
X96050438Y-70354011D01*
X96110840Y-70283821D01*
X96113982Y-70280435D01*
X96442435Y-69951982D01*
X96445822Y-69948840D01*
X96797913Y-69645840D01*
X96801509Y-69642972D01*
X97175261Y-69367130D01*
X97179088Y-69364522D01*
X97572392Y-69117393D01*
X97576381Y-69115089D01*
X97987071Y-68898032D01*
X97991234Y-68896029D01*
X98416988Y-68710274D01*
X98421269Y-68708593D01*
X98859733Y-68555167D01*
X98864119Y-68553813D01*
X99312837Y-68433580D01*
X99317315Y-68432558D01*
X99773743Y-68346197D01*
X99778288Y-68345511D01*
X100239911Y-68293498D01*
X100244482Y-68293155D01*
X100711000Y-68275700D01*
X100735921Y-68275700D01*
X151486079Y-68275700D01*
X151511000Y-68275700D01*
X151977515Y-68293155D01*
G37*
%TD.AperFunction*%
%TD*%
M02*
