%TF.GenerationSoftware,KiCad,Pcbnew,7.0.8*%
%TF.CreationDate,2024-08-14T14:07:49-06:00*%
%TF.ProjectId,blackpill_carrier,626c6163-6b70-4696-9c6c-5f6361727269,1.0*%
%TF.SameCoordinates,Original*%
%TF.FileFunction,Soldermask,Top*%
%TF.FilePolarity,Negative*%
%FSLAX46Y46*%
G04 Gerber Fmt 4.6, Leading zero omitted, Abs format (unit mm)*
G04 Created by KiCad (PCBNEW 7.0.8) date 2024-08-14 14:07:49*
%MOMM*%
%LPD*%
G01*
G04 APERTURE LIST*
G04 Aperture macros list*
%AMRoundRect*
0 Rectangle with rounded corners*
0 $1 Rounding radius*
0 $2 $3 $4 $5 $6 $7 $8 $9 X,Y pos of 4 corners*
0 Add a 4 corners polygon primitive as box body*
4,1,4,$2,$3,$4,$5,$6,$7,$8,$9,$2,$3,0*
0 Add four circle primitives for the rounded corners*
1,1,$1+$1,$2,$3*
1,1,$1+$1,$4,$5*
1,1,$1+$1,$6,$7*
1,1,$1+$1,$8,$9*
0 Add four rect primitives between the rounded corners*
20,1,$1+$1,$2,$3,$4,$5,0*
20,1,$1+$1,$4,$5,$6,$7,0*
20,1,$1+$1,$6,$7,$8,$9,0*
20,1,$1+$1,$8,$9,$2,$3,0*%
G04 Aperture macros list end*
%ADD10R,1.750000X0.600000*%
%ADD11C,2.286000*%
%ADD12RoundRect,0.200000X0.200000X0.275000X-0.200000X0.275000X-0.200000X-0.275000X0.200000X-0.275000X0*%
%ADD13RoundRect,0.300000X0.300000X-0.300000X0.300000X0.300000X-0.300000X0.300000X-0.300000X-0.300000X0*%
%ADD14RoundRect,0.185000X1.215000X-0.185000X1.215000X0.185000X-1.215000X0.185000X-1.215000X-0.185000X0*%
%ADD15RoundRect,0.200000X0.600000X-0.200000X0.600000X0.200000X-0.600000X0.200000X-0.600000X-0.200000X0*%
%ADD16RoundRect,0.250001X1.249999X-0.799999X1.249999X0.799999X-1.249999X0.799999X-1.249999X-0.799999X0*%
%ADD17RoundRect,0.185000X-1.215000X0.185000X-1.215000X-0.185000X1.215000X-0.185000X1.215000X0.185000X0*%
%ADD18R,1.700000X1.700000*%
%ADD19C,1.700000*%
G04 APERTURE END LIST*
D10*
%TO.C,J1*%
X110081000Y-124984000D03*
X108331000Y-125984000D03*
X110081000Y-126984000D03*
%TD*%
D11*
%TO.C,TP12*%
X146431000Y-87884000D03*
%TD*%
%TO.C,TP15*%
X108331000Y-77724000D03*
%TD*%
D12*
%TO.C,R6*%
X142176000Y-103124000D03*
X140526000Y-103124000D03*
%TD*%
D11*
%TO.C,TP2*%
X146431000Y-110744000D03*
%TD*%
%TO.C,TP3*%
X146431000Y-98044000D03*
%TD*%
%TO.C,TP4*%
X152781000Y-95504000D03*
%TD*%
D13*
%TO.C,D1*%
X140716000Y-133511000D03*
X140716000Y-131411000D03*
%TD*%
D12*
%TO.C,R3*%
X142176000Y-120904000D03*
X140526000Y-120904000D03*
%TD*%
D11*
%TO.C,TP14*%
X152781000Y-85344000D03*
%TD*%
D14*
%TO.C,J2*%
X102711000Y-118364000D03*
X98711000Y-118364000D03*
X102711000Y-117094000D03*
X98711000Y-117094000D03*
X102711000Y-115824000D03*
X98711000Y-115824000D03*
X102711000Y-114554000D03*
X98711000Y-114554000D03*
X102711000Y-113284000D03*
X98711000Y-113284000D03*
%TD*%
D11*
%TO.C,TP17*%
X108331000Y-82804000D03*
%TD*%
D13*
%TO.C,D4*%
X132969000Y-133511000D03*
X132969000Y-131411000D03*
%TD*%
D11*
%TO.C,TP10*%
X146431000Y-92964000D03*
%TD*%
%TO.C,TP9*%
X108331000Y-98044000D03*
%TD*%
D12*
%TO.C,R5*%
X142176000Y-123444000D03*
X140526000Y-123444000D03*
%TD*%
%TO.C,R2*%
X142176000Y-105740200D03*
X140526000Y-105740200D03*
%TD*%
D11*
%TO.C,TP16*%
X101981000Y-80264000D03*
%TD*%
D12*
%TO.C,R1*%
X142176000Y-108331000D03*
X140526000Y-108331000D03*
%TD*%
D11*
%TO.C,TP11*%
X152781000Y-90424000D03*
%TD*%
%TO.C,TP6*%
X101981000Y-90424000D03*
%TD*%
D15*
%TO.C,J4*%
X152286000Y-108809000D03*
X152286000Y-107559000D03*
X152286000Y-106309000D03*
X152286000Y-105059000D03*
D16*
X155186000Y-111359000D03*
X155186000Y-102509000D03*
%TD*%
D17*
%TO.C,J3*%
X98711000Y-101219000D03*
X102711000Y-101219000D03*
X98711000Y-102489000D03*
X102711000Y-102489000D03*
X98711000Y-103759000D03*
X102711000Y-103759000D03*
X98711000Y-105029000D03*
X102711000Y-105029000D03*
X98711000Y-106299000D03*
X102711000Y-106299000D03*
%TD*%
D18*
%TO.C,U1*%
X118491000Y-77724000D03*
D19*
X118491000Y-80264000D03*
X118491000Y-82804000D03*
X118491000Y-85344000D03*
X118491000Y-87884000D03*
X118491000Y-90424000D03*
X118491000Y-92964000D03*
X118491000Y-95504000D03*
X118491000Y-98044000D03*
X118491000Y-100584000D03*
X118491000Y-103124000D03*
X118491000Y-105664000D03*
X118491000Y-108204000D03*
X118491000Y-110744000D03*
X118491000Y-113284000D03*
X118491000Y-115824000D03*
X118491000Y-118364000D03*
X118491000Y-120904000D03*
X118491000Y-123444000D03*
X118491000Y-125984000D03*
X133731000Y-125984000D03*
X133731000Y-123444000D03*
X133731000Y-120904000D03*
X133731000Y-118364000D03*
X133731000Y-115824000D03*
X133731000Y-113284000D03*
X133731000Y-110744000D03*
X133731000Y-108204000D03*
X133731000Y-105664000D03*
X133731000Y-103124000D03*
X133731000Y-100584000D03*
X133731000Y-98044000D03*
X133731000Y-95504000D03*
X133731000Y-92964000D03*
X133731000Y-90424000D03*
X133731000Y-87884000D03*
X133731000Y-85344000D03*
X133731000Y-82804000D03*
X133731000Y-80264000D03*
X133731000Y-77724000D03*
X122301000Y-122174000D03*
X124841000Y-122174000D03*
X127381000Y-122174000D03*
X129921000Y-122174000D03*
%TD*%
D11*
%TO.C,TP7*%
X108331000Y-92964000D03*
%TD*%
%TO.C,TP8*%
X101981000Y-95504000D03*
%TD*%
%TO.C,TP1*%
X146431000Y-116459000D03*
%TD*%
D13*
%TO.C,D3*%
X120396000Y-133604000D03*
X120396000Y-131504000D03*
%TD*%
D12*
%TO.C,R4*%
X142176000Y-118364000D03*
X140526000Y-118364000D03*
%TD*%
D11*
%TO.C,TP13*%
X108331000Y-108204000D03*
%TD*%
D13*
%TO.C,D2*%
X136906000Y-133511000D03*
X136906000Y-131411000D03*
%TD*%
D11*
%TO.C,TP5*%
X108331000Y-87884000D03*
%TD*%
%TO.C,TP18*%
X101981000Y-85344000D03*
%TD*%
M02*
